<?xml version="1.0" encoding="utf-8"?>
<!-- Generator: Adobe Illustrator 23.0.1, SVG Export Plug-In . SVG Version: 6.00 Build 0)  -->
<svg version="1.1" id="Ebene_1" xmlns="http://www.w3.org/2000/svg" xmlns:xlink="http://www.w3.org/1999/xlink" x="0px" y="0px"
	 viewBox="0 0 595.3 152.3" style="enable-background:new 0 0 595.3 152.3;" xml:space="preserve">
<style type="text/css">
	.st0{fill-rule:evenodd;clip-rule:evenodd;fill:#18073A;}
	.st1{fill-rule:evenodd;clip-rule:evenodd;fill:#FFFFFF;}
	.st2{fill:#18073A;}
</style>
<rect x="2" y="22.1" class="st0" width="117.6" height="113.3"/>
<path class="st1" d="M60.5,77.9c0,16.1-13.1,29.2-29.2,29.2S2,94,2,77.9s13.1-29.2,29.2-29.2S60.5,61.8,60.5,77.9L60.5,77.9z"/>
<path class="st1" d="M121.8,77.9c0,16.1-13.1,29.2-29.2,29.2S63.3,94,63.3,77.9s13.1-29.2,29.2-29.2S121.8,61.8,121.8,77.9
	L121.8,77.9z"/>
<g>
	<path class="st2" d="M153.7,49.2c4.1,0,8,0.8,11.5,2.3c3.6,1.6,6.7,3.6,9.3,6.3s4.7,5.8,6.2,9.4s2.3,7.5,2.3,11.6
		c0,4-0.8,7.8-2.3,11.4c-1.6,3.6-3.6,6.7-6.3,9.3s-5.8,4.7-9.3,6.2c-3.6,1.5-7.4,2.3-11.4,2.3c-4.1,0-8-0.8-11.6-2.3
		s-6.7-3.6-9.4-6.3s-4.7-5.8-6.2-9.4s-2.3-7.5-2.3-11.6c0-4,0.8-7.8,2.3-11.3s3.6-6.6,6.3-9.3s5.8-4.8,9.4-6.3
		C145.9,50,149.7,49.2,153.7,49.2z M153.7,60.3c-2.4,0-4.8,0.5-6.9,1.5c-2.2,1-4.1,2.3-5.7,4c-1.6,1.7-2.9,3.6-3.9,5.8
		s-1.4,4.5-1.4,7.1s0.5,5,1.4,7.2s2.2,4.2,3.8,5.8c1.6,1.6,3.5,2.9,5.7,3.9s4.5,1.5,7,1.5s4.9-0.5,7.1-1.5c2.2-1,4.1-2.3,5.7-3.9
		s2.9-3.6,3.8-5.8c0.9-2.2,1.4-4.6,1.4-7.1s-0.5-4.9-1.4-7.2s-2.2-4.2-3.8-5.9c-1.6-1.6-3.5-2.9-5.7-3.9
		C158.6,60.8,156.3,60.3,153.7,60.3z"/>
	<path class="st2" d="M187.5,81.7c0-4.8,0.5-8.8,1.4-12c1-3.2,2.5-6.3,4.7-9.3c2.8-3.5,6.2-6.3,10.2-8.2c4-2,8.3-3,12.9-3
		c4.1,0,8,0.8,11.6,2.3s6.7,3.6,9.4,6.3c2.6,2.7,4.7,5.8,6.2,9.5c1.5,3.6,2.3,7.5,2.3,11.6c0,4-0.8,7.7-2.3,11.3
		c-1.5,3.6-3.6,6.7-6.2,9.3c-2.6,2.6-5.6,4.8-9.1,6.3s-7.2,2.3-11,2.3c-7.1,0-13.5-2.6-19-7.9v35h-11.1L187.5,81.7L187.5,81.7z
		 M216.6,60.3c-2.5,0-4.9,0.5-7,1.5s-4,2.3-5.6,3.9s-2.9,3.6-3.8,5.8c-0.9,2.2-1.4,4.6-1.4,7.1c0,2.6,0.5,5,1.4,7.2s2.2,4.2,3.8,5.8
		c1.6,1.6,3.6,2.9,5.7,3.9s4.5,1.5,7.1,1.5c2.4,0,4.7-0.5,6.9-1.4s4.1-2.2,5.7-3.8c1.6-1.6,2.9-3.5,3.8-5.7c0.9-2.2,1.4-4.5,1.4-7.1
		s-0.5-5.1-1.4-7.4s-2.2-4.3-3.8-5.9s-3.6-2.9-5.8-3.9C221.5,60.8,219.1,60.3,216.6,60.3z"/>
	<path class="st2" d="M246.6,51.1h5.8V37.5h11.1v13.6h13.9v10.5h-13.9v12.9c0,2.1,0,3.9,0.1,5.5s0.2,2.9,0.4,4.2s0.5,2.3,0.9,3.3
		s0.8,1.9,1.3,2.7c2.2,3.7,6,5.8,11.6,6.3v12c-4.2-0.2-7.8-1.1-10.9-2.5s-5.8-3.5-8.2-6.2c-1.9-2.2-3.4-4.5-4.4-6.8
		c-1-2.4-1.6-5-1.8-8.1c-0.1-0.8-0.1-1.7-0.1-2.7s0-2.5,0-4.7V61.6h-5.8L246.6,51.1L246.6,51.1z"/>
	<path class="st2" d="M291.2,31.7c2,0,3.7,0.7,5.1,2.1c1.4,1.4,2.1,3.1,2.1,5.2c0,2-0.7,3.7-2.1,5.1c-1.4,1.4-3.1,2.1-5.1,2.1
		c-2.1,0-3.8-0.7-5.2-2.1s-2.1-3.1-2.1-5.2c0-2,0.7-3.7,2.1-5.1S289.2,31.7,291.2,31.7z M285.5,51.1h11.1v55.1h-11.1V51.1z"/>
	<path class="st2" d="M306.9,22.1h11.3V75l19.3-23.9h14.6l-18.5,22.5c3.8,1,6.8,2.6,9.1,4.7s4.2,5.1,5.7,8.9
		c0.9,2.3,1.6,4.9,2.1,7.9s0.8,6,0.8,9.1v1.9h-11.5v-1.9c0-3.9-0.5-7.4-1.4-10.7c-1.2-4-3.4-7.3-6.7-9.7s-7-3.6-11.1-3.6
		c-0.3,0-0.7,0-1.1,0s-0.9,0-1.5,0.1v25.8h-11.3L306.9,22.1L306.9,22.1z"/>
	<path class="st2" d="M367.7,91.9c2.2,0,4.1,0.8,5.7,2.4s2.4,3.5,2.4,5.7s-0.8,4.1-2.4,5.7s-3.5,2.4-5.7,2.4c-2.3,0-4.2-0.8-5.7-2.4
		c-1.6-1.6-2.3-3.5-2.3-5.8c0-2.2,0.8-4,2.4-5.6C363.6,92.7,365.5,91.9,367.7,91.9z"/>
	<path class="st2" d="M407.6,49.2c4.1,0,8,0.8,11.5,2.3c3.6,1.6,6.7,3.6,9.3,6.3c2.6,2.6,4.7,5.8,6.2,9.4s2.3,7.5,2.3,11.6
		c0,4-0.8,7.8-2.3,11.4c-1.6,3.6-3.6,6.7-6.3,9.3c-2.6,2.6-5.8,4.7-9.3,6.2c-3.6,1.5-7.4,2.3-11.4,2.3c-4.1,0-8-0.8-11.6-2.3
		s-6.7-3.6-9.4-6.3c-2.6-2.6-4.7-5.8-6.2-9.4s-2.3-7.5-2.3-11.6c0-4,0.8-7.8,2.3-11.3s3.6-6.6,6.3-9.3c2.6-2.6,5.8-4.8,9.4-6.3
		C399.7,50,403.5,49.2,407.6,49.2z M407.6,60.3c-2.4,0-4.8,0.5-6.9,1.5c-2.2,1-4.1,2.3-5.7,4c-1.6,1.7-2.9,3.6-3.9,5.8
		s-1.5,4.5-1.5,7.1s0.5,5,1.4,7.2s2.2,4.2,3.8,5.8c1.6,1.6,3.5,2.9,5.7,3.9s4.5,1.5,7,1.5s4.9-0.5,7.1-1.5s4.1-2.3,5.7-3.9
		s2.9-3.6,3.8-5.8c0.9-2.2,1.4-4.6,1.4-7.1s-0.5-4.9-1.4-7.2c-0.9-2.3-2.2-4.2-3.8-5.9c-1.6-1.6-3.5-2.9-5.7-3.9
		C412.4,60.8,410.1,60.3,407.6,60.3z"/>
	<path class="st2" d="M441.3,77c0-3.7,0.2-6.7,0.8-9.1c0.5-2.4,1.3-4.8,2.5-7.2c1.9-3.6,4.7-6.4,8.4-8.4c3.6-2,7.8-3,12.5-3
		c4.5,0,8.6,0.9,12.2,2.8c3.6,1.9,6.4,4.6,8.4,8.1c0.7,1.3,1.2,2.4,1.7,3.5s0.8,2.3,1.1,3.6s0.4,2.7,0.6,4.3
		c0.1,1.6,0.2,3.4,0.2,5.5v29.1h-11.1V76.4c0-3.9-0.4-6.8-1.3-8.8c-0.9-2.2-2.4-4-4.5-5.3s-4.5-2-7.1-2c-2.5,0-4.9,0.6-7.1,2
		c-2.2,1.3-3.7,3-4.7,5.1c-0.4,1.1-0.8,2.5-1.1,4.1c-0.3,1.6-0.4,3.3-0.4,5v29.7h-11.1V77L441.3,77z"/>
	<path class="st2" d="M544.8,98.6c-5.7,6.3-12.7,9.5-20.9,9.5c-4.2,0-8.1-0.8-11.7-2.3c-3.6-1.5-6.8-3.6-9.4-6.2s-4.8-5.8-6.4-9.3
		s-2.3-7.4-2.3-11.5c0-4,0.8-7.8,2.3-11.4s3.7-6.7,6.3-9.4c2.7-2.7,5.7-4.8,9.3-6.4c3.5-1.6,7.3-2.3,11.2-2.3c2.8,0,5.7,0.4,8.4,1.2
		s5.2,1.9,7.6,3.4s4.4,3.2,6.2,5.3s3.3,4.4,4.4,6.9c1,2.2,1.7,4.7,2.2,7.4c0.5,2.8,0.7,6.2,0.7,10.2H506c0.4,1.9,1.2,3.7,2.3,5.4
		c1.1,1.6,2.5,3,4.1,4.2s3.4,2.1,5.3,2.8c2,0.7,4,1,6.2,1c2.7,0,5-0.4,6.9-1.3s3.9-2.5,6.1-4.9L544.8,98.6z M540.3,73.1
		c-0.5-1.9-1.3-3.6-2.4-5.2c-1.1-1.6-2.4-3-3.9-4.1s-3.2-2-5-2.6s-3.7-0.9-5.7-0.9c-4.1,0-7.8,1.2-10.9,3.5
		c-3.1,2.4-5.3,5.5-6.5,9.3C505.9,73.1,540.3,73.1,540.3,73.1z"/>
</g>
<ellipse class="st2" cx="103.6" cy="63.1" rx="8.3" ry="7.5"/>
<ellipse class="st2" cx="42.2" cy="63.1" rx="8.3" ry="7.5"/>
</svg>
