<svg id="Layer_1" data-name="Layer 1" xmlns="http://www.w3.org/2000/svg" viewBox="0 0 380 90">
  <defs>
    <style>
      .cls-1 {
        fill: #3f5c9a;
      }
    </style>
  </defs>
  <title>facebook</title>
  <path class="cls-1" d="M94.05,6.3H37.51A10.43,10.43,0,0,0,27.08,16.73V73.27A10.43,10.43,0,0,0,37.51,83.7H65.4l0-27.66H58.26a1.7,1.7,0,0,1-1.7-1.69l0-8.91a1.7,1.7,0,0,1,1.69-1.71H65.4V35.12c0-10,6.1-15.44,15-15.44h7.32a1.7,1.7,0,0,1,1.69,1.7v7.51a1.7,1.7,0,0,1-1.69,1.7H83.25c-4.85,0-5.79,2.31-5.79,5.69v7.46H88.11a1.69,1.69,0,0,1,1.69,1.89l-1.06,8.91A1.69,1.69,0,0,1,87.06,56H77.51L77.46,83.7H94.05a10.43,10.43,0,0,0,10.43-10.43V16.73A10.43,10.43,0,0,0,94.05,6.3Zm0,0"/>
  <g>
    <path class="cls-1" d="M133.91,28.3c-3,0-3.81,1.32-3.81,4.21v4.8H138l-.79,7.76h-7.1V68.6h-9.47V45.07h-6.37V37.31h6.37V32.64c0-7.82,3.16-12,12-12a44,44,0,0,1,5.52.33V28.3"/>
    <path class="cls-1" d="M138.64,52c0-8.74,4.14-15.32,12.82-15.32,4.74,0,7.63,2.43,9,5.46v-4.8h9.07V68.6h-9.07V63.87c-1.32,3-4.27,5.39-9,5.39-8.68,0-12.82-6.58-12.82-15.32m9.47.13c0,4.67,1.71,7.76,6.11,7.76,3.88,0,5.86-2.83,5.86-7.3V51.38c0-4.47-2-7.3-5.86-7.3-4.4,0-6.11,3.09-6.11,7.76Z"/>
    <path class="cls-1" d="M189.26,36.65c3.68,0,7.16.79,9.07,2.1l-2.11,6.71a14.9,14.9,0,0,0-6.3-1.45c-5.13,0-7.37,3-7.37,8v1.84c0,5.07,2.24,8,7.37,8a14.9,14.9,0,0,0,6.3-1.44l2.11,6.7c-1.91,1.32-5.39,2.11-9.07,2.11-11.11,0-16.17-6-16.17-15.58V52.23c0-9.6,5.06-15.58,16.17-15.58"/>
    <path class="cls-1" d="M199.58,54.14V51.38c0-8.88,5.06-14.73,15.38-14.73,9.73,0,14,5.92,14,14.6v5H209c.2,4.28,2.11,6.18,7.37,6.18a26.9,26.9,0,0,0,10.05-1.9l1.71,6.5c-2.49,1.32-7.62,2.3-12.16,2.3-12,0-16.43-6-16.43-15.18M209,50.06h11.44v-.79c0-3.41-1.38-6.11-5.52-6.11s-5.92,2.7-5.92,6.9"/>
    <path class="cls-1" d="M264.06,53.94c0,8.74-4.2,15.32-12.88,15.32-4.73,0-8-2.37-9.34-5.4V68.6H232.9v-47l9.47-.85V41.65c1.38-2.77,4.4-5,8.81-5,8.68,0,12.88,6.57,12.88,15.31m-9.46-.19c0-4.41-1.71-7.69-6.25-7.69-3.88,0-6,2.76-6,7.23v3.28c0,4.48,2.1,7.24,6,7.24,4.54,0,6.25-3.29,6.25-7.7Z"/>
    <path class="cls-1" d="M267.22,53.74V52.16c0-9,5.12-15.51,15.58-15.51s15.58,6.51,15.58,15.51v1.58c0,9-5.13,15.52-15.58,15.52s-15.58-6.51-15.58-15.52m21.69-2.23c0-4.14-1.71-7.43-6.11-7.43s-6.12,3.29-6.12,7.43V54.4c0,4.14,1.71,7.43,6.12,7.43s6.11-3.29,6.11-7.43Z"/>
    <path class="cls-1" d="M301.53,53.74V52.16c0-9,5.12-15.51,15.58-15.51s15.58,6.51,15.58,15.51v1.58c0,9-5.13,15.52-15.58,15.52s-15.58-6.51-15.58-15.52m21.69-2.23c0-4.14-1.71-7.43-6.11-7.43S311,47.37,311,51.51V54.4c0,4.14,1.71,7.43,6.12,7.43s6.11-3.29,6.11-7.43Z"/>
    <polyline class="cls-1" points="345.7 52.23 355.03 37.31 365.09 37.31 355.3 52.76 365.48 68.6 355.43 68.6 345.7 53.28 345.7 68.6 336.23 68.6 336.23 21.6 345.7 20.74"/>
  </g>
</svg>
