<svg id="Layer_1" data-name="Layer 1" xmlns="http://www.w3.org/2000/svg" xmlns:xlink="http://www.w3.org/1999/xlink" viewBox="0 0 380 90">
  <defs>
    <style>
      .cls-1 {
        fill: url(#linear-gradient);
      }

      .cls-2 {
        fill: url(#linear-gradient-2);
      }

      .cls-3 {
        fill: url(#linear-gradient-3);
      }

      .cls-4 {
        fill: url(#linear-gradient-4);
      }

      .cls-5 {
        fill: url(#linear-gradient-5);
      }

      .cls-6 {
        fill: url(#linear-gradient-6);
      }

      .cls-7 {
        fill: url(#linear-gradient-7);
      }

      .cls-8 {
        fill: url(#linear-gradient-8);
      }

      .cls-9 {
        fill: #1da1f2;
      }
    </style>
    <linearGradient id="linear-gradient" x1="134.98" y1="20.58" x2="134.98" y2="68.95" gradientUnits="userSpaceOnUse">
      <stop offset="0" stop-color="#343333"/>
      <stop offset="1" stop-color="#121111"/>
    </linearGradient>
    <linearGradient id="linear-gradient-2" x1="243.86" y1="20.58" x2="243.86" y2="68.95" xlink:href="#linear-gradient"/>
    <linearGradient id="linear-gradient-3" x1="273.55" y1="20.58" x2="273.55" y2="68.95" xlink:href="#linear-gradient"/>
    <linearGradient id="linear-gradient-4" x1="342.8" y1="20.58" x2="342.8" y2="68.95" xlink:href="#linear-gradient"/>
    <linearGradient id="linear-gradient-5" x1="181.66" y1="20.58" x2="181.66" y2="68.95" xlink:href="#linear-gradient"/>
    <linearGradient id="linear-gradient-6" x1="219.83" y1="20.58" x2="219.83" y2="68.95" xlink:href="#linear-gradient"/>
    <linearGradient id="linear-gradient-7" x1="219.83" y1="20.58" x2="219.83" y2="68.95" xlink:href="#linear-gradient"/>
    <linearGradient id="linear-gradient-8" x1="306.07" y1="20.58" x2="306.07" y2="68.95" xlink:href="#linear-gradient"/>
  </defs>
  <title>twitter</title>
  <g>
    <path class="cls-1" d="M137.74,69A19.75,19.75,0,0,1,118,49.28l.06-22.66a5.66,5.66,0,0,1,11.31,0V35.1H143.5a5.66,5.66,0,0,1,0,11.31H129.36v2.85a8.46,8.46,0,0,0,8.46,8.46h8.5a5.66,5.66,0,1,1,0,11.31Z"/>
    <path class="cls-2" d="M249.41,69a19.69,19.69,0,0,1-19.68-19.75V26.62a5.66,5.66,0,0,1,11.31,0V35.1h8.47a5.66,5.66,0,1,1,0,11.31H241v2.85a8.45,8.45,0,0,0,8.45,8.46h2.85a5.66,5.66,0,1,1,0,11.31Z"/>
    <path class="cls-3" d="M279.1,69a19.7,19.7,0,0,1-19.69-19.75V26.62a5.66,5.66,0,0,1,11.31,0V35.1h8.48a5.66,5.66,0,0,1,0,11.31h-8.48v2.85a8.46,8.46,0,0,0,8.46,8.46H282A5.66,5.66,0,0,1,282,69Z"/>
    <path class="cls-4" d="M327.3,52.07a16.89,16.89,0,0,1,16.87-17h8.48a5.66,5.66,0,0,1,0,11.31h-8.48a5.66,5.66,0,0,0-5.66,5.66l.09,11.31a5.65,5.65,0,0,1-11.3,0Z"/>
    <path class="cls-5" d="M204.28,35.1a5.66,5.66,0,0,0-5.65,5.66V52.07a5.66,5.66,0,0,1-11.31,0V40.76a5.66,5.66,0,1,0-11.31,0V52.07a5.66,5.66,0,0,1-11.31,0V40.76a5.66,5.66,0,1,0-11.31,0V52.07a16.95,16.95,0,0,0,28.27,12.62,17,17,0,0,0,28.28-12.62V40.76A5.66,5.66,0,0,0,204.28,35.1Z"/>
    <g>
      <path class="cls-6" d="M219.83,35.1a5.66,5.66,0,0,0-5.65,5.66V63.38a5.66,5.66,0,0,0,11.31,0V40.76A5.66,5.66,0,0,0,219.83,35.1Z"/>
      <circle class="cls-7" cx="219.83" cy="26.62" r="5.65"/>
    </g>
    <path class="cls-8" d="M323,49.24c0,2-.83,5.64-3.78,5.64H300.58a5.67,5.67,0,0,0,5.48,4.26h12a4.95,4.95,0,1,1,0,9.89h-12c-9.37,0-17-7.65-17-18.38,0-9.41,7.6-15.55,17-15.55s17,6.33,17,14.14Zm-11.3-1.41c0-2.6-2.53-4.71-5.66-4.71s-5.65,2.11-5.65,4.71Z"/>
  </g>
  <path class="cls-9" d="M43.05,81.73c34.11,0,52.76-28.26,52.76-52.76,0-.81,0-1.6-.06-2.4A37.73,37.73,0,0,0,105,17a37,37,0,0,1-10.65,2.92,18.67,18.67,0,0,0,8.15-10.26,37,37,0,0,1-11.77,4.5A18.55,18.55,0,0,0,58.66,26.82,18.32,18.32,0,0,0,59.14,31,52.61,52.61,0,0,1,20.92,11.67a18.53,18.53,0,0,0,5.74,24.75,18.35,18.35,0,0,1-8.4-2.32,1.93,1.93,0,0,0,0,.24A18.56,18.56,0,0,0,33.13,52.52a18.79,18.79,0,0,1-4.89.65,19,19,0,0,1-3.48-.33A18.57,18.57,0,0,0,42.08,65.72a37.22,37.22,0,0,1-23,7.93,38.19,38.19,0,0,1-4.43-.25,52.53,52.53,0,0,0,28.43,8.33"/>
</svg>
