<?xml version="1.0" encoding="utf-8"?>
<!-- Generator: Adobe Illustrator 24.0.2, SVG Export Plug-In . SVG Version: 6.00 Build 0)  -->
<svg version="1.1" id="Layer_1" xmlns="http://www.w3.org/2000/svg" xmlns:xlink="http://www.w3.org/1999/xlink" x="0px" y="0px"
	 viewBox="0 0 380 90" style="enable-background:new 0 0 380 90;" xml:space="preserve">
<style type="text/css">
	.st0{fill:#FF0000;}
	.st1{fill:#FFFFFF;}
	.st2{fill:#282828;}
</style>
<g>
	<g>
		<path class="st0" d="M121.4,16.9c-1.4-5-5.3-9-10.4-10.3C102,4.2,65.5,4.2,65.5,4.2S29.1,4.2,20,6.6c-5,1.4-9,5.3-10.3,10.3
			C7.3,26,7.3,45,7.3,45s0,19,2.4,28.1c1.4,5,5.3,9,10.3,10.3c9.1,2.4,45.5,2.4,45.5,2.4s36.5,0,45.5-2.4c5-1.3,9-5.2,10.4-10.3
			c2.4-9.1,2.4-28.1,2.4-28.1S123.8,26,121.4,16.9z"/>
		<polygon class="st1" points="53.9,62.5 84.2,45 53.9,27.5 		"/>
	</g>
	<g>
		<path class="st2" d="M176.5,78.4c-2.4-1.8-4.2-4.3-4.9-7.2c-1.1-4.3-1.6-8.7-1.5-13.1v-7.4c-0.1-4.5,0.4-8.9,1.7-13.3
			c0.8-3,2.7-5.5,5.2-7.3c2.8-1.6,6-2.4,9.3-2.3c3.8,0,6.8,0.8,9.1,2.3c2.4,1.8,4.2,4.4,5,7.3c1.2,4.3,1.7,8.8,1.6,13.2v7.4
			c0.1,4.4-0.4,8.8-1.5,13.1c-0.8,2.9-2.5,5.5-5,7.3c-2.3,1.5-5.4,2.3-9.4,2.3C181.9,80.8,178.8,80,176.5,78.4z M189.4,70.4
			c0.6-1.7,1-4.4,1-8.2V46.3c0-3.7-0.3-6.4-1-8c-0.4-1.5-1.8-2.6-3.4-2.5c-1.5,0-2.9,1-3.3,2.5c-0.6,1.7-1,4.4-1,8v15.9
			c0,3.8,0.3,6.5,1,8.2c0.4,1.5,1.8,2.5,3.3,2.5C187.6,72.9,189,71.9,189.4,70.4z"/>
		<path class="st2" d="M353.5,58.2v2.6c0,2.5,0.1,4.9,0.3,7.4c0.1,1.3,0.5,2.5,1.2,3.6c0.7,0.8,1.8,1.2,2.8,1.1
			c1.5,0.1,2.9-0.7,3.6-2c0.6-1.3,1-3.6,1-6.7l9.9,0.6c0.1,0.6,0.1,1.2,0.1,1.8c0,4.7-1.3,8.2-3.8,10.6c-2.6,2.3-6.2,3.5-11,3.5
			c-5.7,0-9.6-1.8-11.9-5.3s-3.4-9.1-3.4-16.5v-8.9c0-7.7,1.2-13.3,3.5-16.8c2.4-3.5,6.4-5.3,12.1-5.3c3.9,0,7,0.7,9.1,2.2
			c2.2,1.6,3.8,4,4.5,6.7c1,4.2,1.4,8.4,1.3,12.7v8.8L353.5,58.2z M355,36.7c-0.7,1.1-1.1,2.3-1.2,3.5c-0.2,2.5-0.3,5-0.3,7.5v3.7
			h8.4v-3.7c0-2.5-0.1-5-0.3-7.5c-0.1-1.3-0.5-2.5-1.2-3.6c-0.7-0.7-1.7-1.1-2.7-1C356.6,35.5,355.6,35.9,355,36.7L355,36.7z"/>
		<path class="st2" d="M148.4,57.3L135.4,10h11.4l4.6,21.4c1.2,5.3,2,9.8,2.6,13.5h0.3c0.4-2.7,1.3-7.1,2.6-13.4l4.8-21.5h11.4
			l-13.3,47.3v22.7h-11.4V57.3z"/>
		<path class="st2" d="M239.1,28.8v51.1h-9l-1-6.3h-0.2c-2.4,4.7-6.1,7.1-11,7.1c-3.4,0-5.9-1.1-7.5-3.3c-1.6-2.2-2.4-5.7-2.4-10.4
			V28.8h11.5v37.5c-0.1,1.7,0.1,3.3,0.7,4.9c0.5,0.9,1.5,1.5,2.5,1.5c1,0,2-0.4,2.9-1c0.9-0.6,1.5-1.3,2-2.3V28.8H239.1z"/>
		<path class="st2" d="M298.1,28.8v51.1h-9l-1-6.3h-0.2c-2.4,4.7-6.1,7.1-11,7.1c-3.4,0-5.9-1.1-7.5-3.3c-1.6-2.2-2.4-5.7-2.4-10.4
			V28.8h11.5v37.5c-0.1,1.7,0.1,3.3,0.7,4.9c0.5,0.9,1.4,1.5,2.5,1.5c1,0,2-0.4,2.9-1c0.9-0.6,1.6-1.3,2-2.3V28.8H298.1z"/>
		<path class="st2" d="M270.3,19.2h-11.4v60.7h-11.3V19.2h-11.4V10h34.1V19.2z"/>
		<path class="st2" d="M336.1,37c-0.7-3.2-1.8-5.6-3.4-7c-1.8-1.5-4.1-2.3-6.4-2.2c-2.1,0-4.2,0.6-5.9,1.8c-1.8,1.2-3.2,2.8-4.2,4.7
			h-0.1V7.4H305v72.5h9.5l1.2-4.8h0.2c0.9,1.7,2.3,3.1,4,4.1c1.8,1,3.8,1.5,5.9,1.5c3.7,0.1,7.1-2,8.6-5.4c1.8-3.6,2.7-9.2,2.8-16.8
			v-8.1C337.3,45.9,336.9,41.4,336.1,37z M325.6,57.8c0,2.9-0.1,5.8-0.5,8.8c-0.1,1.6-0.6,3.2-1.5,4.5c-0.7,0.9-1.8,1.4-2.9,1.3
			c-0.9,0-1.8-0.2-2.6-0.7c-0.8-0.5-1.5-1.2-1.9-2v-29c0.3-1.3,1-2.5,2-3.4c0.8-0.8,1.9-1.3,3.1-1.3c1.1,0,2.1,0.5,2.7,1.4
			c0.8,1.4,1.3,3,1.3,4.6c0.3,3.1,0.4,6.2,0.4,9.2L325.6,57.8z"/>
	</g>
</g>
</svg>
