<?xml version="1.0" standalone="no"?>
<!DOCTYPE svg PUBLIC "-//W3C//DTD SVG 20010904//EN"
 "http://www.w3.org/TR/2001/REC-SVG-20010904/DTD/svg10.dtd">
<svg version="1.0" xmlns="http://www.w3.org/2000/svg"
 width="981.000000pt" height="981.000000pt" viewBox="0 0 981.000000 981.000000"
 preserveAspectRatio="xMidYMid meet">
<metadata>
Created by potrace 1.11, written by Peter Selinger 2001-2013
</metadata>
<g transform="translate(0.000000,981.000000) scale(0.100000,-0.100000)"
fill="#000000" stroke="none">
<path d="M8775 8373 c-67 -4 -208 -24 -245 -35 -171 -51 -289 -107 -410 -194
-162 -117 -295 -272 -366 -424 -12 -25 -29 -60 -37 -78 -14 -29 -29 -85 -56
-212 -8 -40 -7 -168 3 -220 9 -45 48 -173 55 -180 13 -11 42 -70 35 -70 -4 0
1 -7 12 -15 10 -8 15 -15 11 -15 -4 0 -2 -6 5 -14 7 -8 16 -12 21 -9 4 2 7 -1
7 -7 0 -6 7 -18 15 -27 8 -8 13 -19 9 -24 -3 -5 -2 -9 3 -8 19 3 33 -2 33 -12
0 -5 -5 -7 -12 -3 -7 4 -8 3 -4 -4 4 -6 13 -9 20 -6 8 3 20 -4 28 -15 8 -12
18 -18 23 -13 4 4 4 -4 1 -18 -5 -16 -4 -20 2 -12 9 14 42 6 42 -10 0 -5 5 -6
10 -3 6 3 10 -1 10 -11 0 -11 6 -15 20 -11 11 3 23 1 26 -4 3 -5 10 -7 15 -3
5 3 8 0 7 -7 -2 -8 7 -13 22 -14 14 -1 24 -6 23 -12 -1 -6 9 -14 23 -17 23 -6
24 -9 12 -24 -11 -15 -11 -16 3 -5 9 7 20 9 24 5 5 -4 5 1 2 10 -4 12 -2 15 9
11 9 -3 13 -13 9 -27 -5 -17 -4 -18 5 -6 9 11 13 12 17 3 2 -7 9 -13 15 -13 6
0 4 8 -5 18 -14 15 -15 19 -2 19 8 0 12 -4 9 -9 -3 -4 2 -8 11 -8 10 0 13 -5
9 -12 -4 -7 3 -4 16 7 13 11 20 14 16 8 -4 -7 -3 -13 3 -13 6 0 18 -9 28 -20
18 -18 19 -19 19 0 0 10 -5 16 -11 13 -5 -4 -6 -2 -2 2 11 13 36 15 43 4 3 -5
10 -9 15 -9 6 0 7 5 3 12 -4 6 -3 8 4 4 6 -3 9 -16 7 -27 -3 -15 -1 -18 8 -12
7 5 36 9 65 7 28 -1 52 3 52 8 0 5 4 7 9 4 5 -4 11 -1 13 5 3 8 9 6 20 -4 15
-15 16 -15 21 3 3 13 11 18 20 14 8 -3 21 2 30 10 13 14 16 14 21 0 3 -8 2
-13 -2 -10 -4 2 -14 1 -21 -3 -9 -6 -10 -11 -2 -15 6 -4 11 -3 11 3 0 5 9 8
20 6 23 -4 26 5 8 24 -7 8 -1 6 15 -4 15 -9 27 -14 27 -10 0 4 7 2 15 -5 10
-9 15 -9 15 -1 0 6 -3 11 -8 11 -4 0 -13 10 -21 23 -13 20 -13 21 2 8 10 -7
17 -10 17 -5 0 5 7 0 15 -10 13 -18 15 -18 15 -3 0 10 7 20 15 23 8 4 13 10
10 14 -6 10 15 7 33 -4 15 -9 14 -9 31 19 8 13 11 14 7 3 -2 -9 1 -19 9 -21
18 -8 27 4 14 19 -14 17 9 30 24 15 9 -9 7 -11 -8 -6 -16 6 -17 5 -5 -4 22
-15 36 4 19 25 -13 16 -12 16 8 4 16 -11 19 -18 12 -31 -5 -10 -9 -21 -9 -26
1 -4 8 4 16 20 8 15 22 27 30 27 8 0 12 5 9 10 -5 8 -11 8 -20 0 -9 -8 -15 -8
-20 0 -3 5 -4 11 -1 11 22 5 33 4 51 -4 19 -10 19 -9 2 10 -14 16 -14 20 -2
20 8 0 12 -4 9 -9 -3 -4 2 -8 10 -8 19 0 20 11 4 30 -11 12 -10 12 3 2 9 -6
19 -9 23 -5 4 4 4 -1 1 -12 -6 -18 -6 -18 5 -2 6 9 16 14 22 11 7 -4 8 -2 4 5
-4 6 -12 9 -17 6 -5 -4 -9 -2 -9 3 0 6 7 13 16 16 8 3 13 2 10 -3 -3 -5 1 -12
9 -15 9 -3 18 1 21 9 4 8 10 13 14 10 4 -3 15 7 24 20 10 14 22 23 28 19 7 -5
8 -3 4 5 -5 8 -3 11 7 9 9 -2 16 1 15 6 0 9 29 29 34 24 4 -3 58 51 58 58 0 3
-4 2 -10 -1 -5 -3 -10 -1 -10 4 0 6 9 11 20 11 20 0 26 11 13 24 -11 10 -12
37 -2 30 5 -3 7 -9 4 -14 -3 -4 4 -10 16 -13 19 -5 20 -4 4 19 -8 13 -11 24
-5 24 5 0 10 -5 10 -11 0 -8 4 -8 15 1 8 6 20 8 27 4 8 -5 8 -1 -2 11 -14 17
-13 18 2 12 10 -3 17 -3 17 1 -5 31 4 55 21 59 20 5 20 6 3 27 -11 13 -12 16
-3 9 17 -12 43 -13 48 0 5 16 1 19 -12 8 -10 -9 -16 -9 -21 -1 -4 6 -4 14 -1
17 3 4 6 1 6 -6 0 -7 4 -10 10 -6 5 3 6 13 3 23 -6 16 -6 16 11 0 25 -26 31
-22 12 7 -12 18 -13 24 -4 23 7 -2 16 -7 20 -13 5 -6 8 -5 8 3 0 7 -10 17 -22
22 -13 5 -17 9 -10 9 7 1 22 -4 32 -9 13 -7 21 -7 25 0 4 6 1 9 -7 8 -7 -2
-12 2 -11 9 2 7 -4 10 -15 7 -9 -3 -5 2 11 11 15 8 27 20 27 26 0 6 5 7 12 3
7 -5 8 -3 3 6 -6 10 -11 9 -22 -5 -7 -11 -13 -14 -13 -8 0 7 5 15 10 18 8 5 7
11 -1 21 -8 10 -8 14 0 14 6 0 11 -4 11 -10 0 -5 4 -10 9 -10 11 0 37 61 33
79 -2 7 1 10 7 6 7 -4 8 0 4 11 -5 13 -3 15 7 9 8 -5 11 -4 6 3 -3 6 -15 9
-26 7 -12 -2 -18 0 -15 6 4 5 10 7 15 4 4 -3 10 5 13 16 4 13 10 18 17 14 8
-5 8 0 -1 16 -15 27 -24 83 -10 60 5 -8 7 -21 4 -30 -4 -12 -3 -13 5 -3 11 16
3 64 -12 74 -7 5 -4 8 7 8 9 0 17 -5 17 -12 0 -6 3 -8 6 -5 11 10 -17 38 -30
30 -7 -4 -6 -1 1 9 7 8 9 19 5 23 -4 5 -1 5 6 1 7 -4 9 -13 6 -19 -4 -7 -3 -9
1 -4 14 12 13 48 0 43 -7 -2 -11 6 -10 22 1 15 -3 31 -9 35 -7 5 -5 7 4 4 8
-2 14 -10 13 -16 -2 -6 2 -11 7 -11 13 0 13 17 0 25 -8 5 -7 12 2 23 10 12 10
14 1 8 -8 -4 -13 -1 -13 8 0 9 -6 16 -12 16 -9 0 -8 4 2 10 12 8 12 10 1 10
-8 0 -11 3 -8 7 4 3 2 12 -3 19 -17 19 -21 56 -8 71 9 11 7 15 -10 20 -13 3
-22 13 -22 25 0 12 4 17 13 12 7 -4 9 -3 4 2 -5 5 -13 10 -18 10 -5 1 -12 2
-15 3 -4 0 -1 8 6 17 11 12 11 15 -1 12 -8 -2 -13 4 -13 14 1 10 -2 15 -7 13
-15 -10 -29 31 -16 45 10 12 9 12 -5 1 -14 -11 -20 -7 -40 28 -13 23 -27 41
-31 41 -4 0 -25 16 -45 36 -96 94 -249 163 -404 184 -114 15 -118 15 -163 13z
m760 -982 c3 -5 -1 -16 -9 -24 -8 -8 -12 -18 -8 -21 3 -4 -1 -4 -11 0 -16 6
-16 8 3 24 15 13 17 19 8 23 -9 4 -9 6 -1 6 6 1 14 -3 18 -8z m-205 -341 c0
-5 -2 -10 -4 -10 -3 0 -8 5 -11 10 -3 6 -1 10 4 10 6 0 11 -4 11 -10z m-87
-103 c4 3 7 3 7 0 0 -4 -18 -18 -40 -32 -24 -15 -38 -30 -34 -37 4 -7 3 -8 -4
-4 -18 11 -3 33 30 47 17 7 26 15 20 17 -7 2 -12 8 -12 14 0 7 5 7 13 -1 8 -6
17 -8 20 -4z m-115 -96 c-13 -15 -26 -27 -30 -24 -4 2 -11 -5 -17 -14 -6 -10
-10 -13 -10 -8 0 13 21 41 34 46 6 2 9 8 7 12 -1 5 2 6 8 2 5 -3 10 -1 10 4 0
6 5 11 11 11 6 0 0 -13 -13 -29z m-50 -1 c-7 -10 -14 -17 -17 -15 -4 4 18 35
25 35 2 0 -1 -9 -8 -20z m-248 -134 c0 -3 -4 -8 -10 -11 -5 -3 -10 -1 -10 4 0
6 5 11 10 11 6 0 10 -2 10 -4z m-139 -63 c13 -16 12 -17 -3 -4 -10 7 -18 15
-18 17 0 8 8 3 21 -13z m-278 -26 c3 -8 -1 -14 -8 -14 -7 0 -11 6 -8 14 3 7 6
13 8 13 2 0 5 -6 8 -13z m40 -8 c-8 -8 -13 -7 -18 2 -5 8 -4 10 3 5 7 -4 12
-2 12 5 0 7 3 9 7 6 4 -4 2 -12 -4 -18z m41 3 c3 -5 -1 -9 -9 -9 -8 0 -15 4
-15 9 0 4 4 8 9 8 6 0 12 -4 15 -8z"/>
<path d="M6230 7995 c-123 -26 -182 -46 -281 -95 -392 -196 -660 -607 -635
-975 3 -49 7 -97 9 -105 15 -68 69 -191 92 -210 8 -7 15 -17 15 -22 0 -6 18
-28 40 -50 24 -23 38 -44 34 -51 -4 -7 -4 -9 1 -5 4 4 15 2 23 -5 13 -10 14
-9 7 2 -6 10 -4 12 4 6 7 -4 11 -16 8 -26 -3 -11 -1 -17 3 -14 5 3 10 2 13 -2
2 -5 2 -2 1 5 -5 18 13 15 20 -4 3 -9 13 -14 21 -11 8 4 16 -2 20 -14 6 -16 9
-18 21 -8 13 10 14 8 10 -15 -3 -15 -1 -24 5 -21 5 4 7 11 4 16 -4 5 -1 9 4 9
6 0 11 -5 11 -11 0 -8 6 -7 17 2 14 12 16 12 11 -1 -3 -9 0 -24 8 -35 8 -10
14 -13 14 -7 0 19 -4 27 -13 24 -5 -1 -6 2 -2 8 4 6 12 5 25 -2 10 -7 17 -15
14 -19 -2 -4 10 -4 27 1 26 8 29 7 19 -5 -7 -8 -17 -12 -23 -8 -6 4 -7 1 -2
-6 5 -9 10 -10 18 -2 7 7 15 7 25 -2 16 -13 90 -18 98 -6 2 4 -8 6 -23 4 -16
-2 -22 -2 -15 1 6 3 10 9 7 14 -9 15 24 4 44 -14 24 -22 63 -14 55 12 -5 15
-4 15 6 -1 6 -9 16 -14 22 -11 6 4 14 0 19 -7 6 -10 9 -11 9 -1 0 6 7 12 16
12 14 0 15 -2 3 -17 -11 -15 -10 -14 9 1 14 12 22 15 22 7 0 -8 10 -4 26 8 30
24 64 27 83 9 11 -11 12 -10 6 1 -6 11 -4 13 9 8 14 -6 15 -3 5 14 -6 11 -8
23 -5 27 3 3 6 -1 6 -9 0 -12 2 -11 11 1 8 13 9 13 7 -2 -2 -9 2 -17 7 -17 11
-1 14 18 6 34 -3 6 2 2 11 -8 10 -11 15 -24 11 -30 -3 -6 -1 -7 6 -3 6 4 9 12
6 17 -6 8 9 13 29 10 5 -1 3 6 -5 15 -13 16 -12 16 8 6 29 -16 34 -15 26 5 -4
11 -3 14 5 9 6 -4 23 1 37 10 23 15 30 13 26 -9 -1 -4 8 -3 19 3 22 12 27 22
7 14 -8 -3 -19 1 -25 8 -8 10 -2 13 27 12 40 -2 50 15 27 46 -9 13 -9 13 6 2
18 -14 43 -7 32 9 -3 5 -10 6 -16 3 -6 -4 -8 -2 -5 4 6 9 15 9 46 3 2 -1 -2
-7 -8 -15 -9 -11 -9 -16 0 -22 8 -4 9 -3 5 4 -4 7 -2 12 4 12 8 0 10 9 5 28
-6 26 -6 26 9 7 9 -11 16 -14 16 -7 0 6 4 12 10 12 5 0 6 -8 3 -17 -4 -11 3
-7 19 9 14 15 28 25 32 21 4 -4 4 0 0 10 -5 14 -2 16 12 10 14 -4 12 0 -6 15
-14 12 -19 21 -12 22 6 0 12 -5 12 -12 0 -6 3 -8 7 -5 3 4 11 2 18 -3 8 -7 11
-3 11 13 -1 13 5 23 14 23 8 1 20 3 25 4 6 1 13 2 17 1 4 0 5 10 2 24 -3 19
-1 23 11 19 9 -4 15 0 15 9 0 10 -8 14 -25 13 -13 -2 -22 1 -19 6 3 5 12 7 19
4 7 -2 18 1 25 7 10 9 11 9 6 0 -3 -6 -1 -15 5 -19 8 -5 10 1 7 18 -4 22 -1
26 18 23 15 -1 21 2 17 11 -2 7 -12 10 -21 7 -15 -4 -15 -3 -2 6 9 6 18 7 24
1 6 -6 14 -10 19 -10 5 0 1 8 -8 17 -16 16 -16 17 1 30 10 7 24 11 32 8 7 -2
10 0 7 5 -3 6 -1 10 5 10 7 0 7 7 -1 23 -12 21 -11 21 6 7 15 -12 17 -12 10
-1 -6 11 -4 13 9 8 14 -6 15 -3 6 13 -6 12 -7 20 -1 20 5 0 12 -6 14 -12 3 -8
6 -5 6 5 1 11 6 15 13 11 6 -4 8 -3 4 4 -3 6 -2 13 4 17 6 4 8 11 5 16 -4 5
-1 9 6 9 7 0 2 9 -11 20 -13 11 -19 20 -14 20 6 0 15 -5 22 -12 9 -9 12 -9 12
1 0 8 -8 20 -17 27 -17 13 -17 14 0 8 13 -5 16 -2 11 12 -5 15 -4 16 4 4 6 -8
9 -17 6 -21 -2 -4 -1 -10 4 -13 5 -3 9 0 9 7 0 7 2 17 3 22 5 19 0 36 -8 31
-5 -3 -9 1 -9 9 0 8 5 11 11 7 26 -16 39 -9 16 8 -21 16 -23 21 -12 32 11 11
12 9 6 -7 -4 -11 -4 -17 1 -13 4 4 14 3 21 -3 10 -8 12 -6 9 10 -2 11 0 23 5
26 4 3 6 21 4 40 -2 21 1 33 7 30 5 -4 9 -3 8 2 -5 31 2 73 13 67 6 -4 8 -3 4
4 -3 6 -2 13 4 17 5 3 10 11 10 16 0 6 -11 -2 -23 -17 -17 -20 -24 -23 -24
-11 0 9 4 14 9 11 4 -3 8 -1 8 5 0 5 -3 11 -7 14 -5 2 -3 3 3 1 6 -1 16 6 22
17 9 14 8 21 -4 34 -11 10 -12 15 -3 15 7 0 5 6 -6 13 -13 10 -15 16 -6 21 7
5 18 0 26 -10 8 -11 15 -15 15 -11 0 4 -15 22 -32 39 -18 17 -28 28 -23 25 6
-3 17 -2 25 4 12 7 11 9 -4 9 -20 0 -20 0 0 15 16 13 16 14 1 9 -13 -5 -16 -2
-11 10 3 9 11 13 17 9 6 -3 7 -1 3 6 -6 9 -11 9 -23 -1 -14 -11 -15 -10 -9 9
4 12 2 24 -4 28 -8 5 -6 13 6 26 15 17 15 19 2 14 -9 -4 -19 -1 -24 6 -4 7 -3
10 2 7 5 -4 10 5 10 18 2 24 1 24 -13 7 -8 -10 -11 -12 -7 -4 3 7 0 17 -7 22
-12 7 -12 9 0 9 11 0 10 4 -5 16 -10 8 -12 13 -4 9 10 -4 10 -2 -2 8 -14 11
-15 16 -5 26 7 7 8 12 2 11 -19 -4 -35 0 -33 8 3 9 -29 56 -61 90 -68 71 -164
130 -268 162 -87 28 -277 36 -373 15z m814 -666 c-8 -14 -21 -11 -21 5 0 8 6
12 14 9 7 -3 10 -9 7 -14z m-38 -164 c1 -8 -2 -15 -6 -15 -5 0 -8 9 -7 20 1
21 10 18 13 -5z m4 -29 c0 -3 -4 -8 -10 -11 -5 -3 -10 -1 -10 4 0 6 5 11 10
11 6 0 10 -2 10 -4z m-84 -191 c-3 -19 -26 -44 -26 -28 0 18 12 43 20 43 5 0
7 -7 6 -15z m-105 -118 c-10 -9 -11 -8 -5 6 3 10 9 15 12 12 3 -3 0 -11 -7
-18z m-107 -156 c3 -5 -1 -14 -8 -20 -12 -10 -14 -9 -11 6 2 10 4 19 4 21 2 5
10 2 15 -7z m-57 -27 c-3 -3 -12 -4 -19 -1 -8 3 -5 6 6 6 11 1 17 -2 13 -5z
m-47 -52 c0 -5 -6 -16 -13 -27 -11 -14 -16 -15 -22 -5 -6 9 -4 11 5 5 10 -6
12 -4 7 9 -4 10 -3 15 3 11 6 -3 10 -1 10 4 0 6 2 11 5 11 3 0 5 -4 5 -8z
m-140 -107 c0 -2 -6 -5 -13 -8 -8 -3 -14 1 -14 8 0 7 6 11 14 8 7 -3 13 -6 13
-8z m-90 -35 c-8 -5 -19 -10 -25 -10 -5 0 -3 5 5 10 8 5 20 10 25 10 6 0 3 -5
-5 -10z m-50 -20 c0 -5 -2 -10 -4 -10 -3 0 -8 5 -11 10 -3 6 -1 10 4 10 6 0
11 -4 11 -10z m-42 -25 c-3 -3 -9 2 -12 12 -6 14 -5 15 5 6 7 -7 10 -15 7 -18z
m-118 -25 c0 -5 -5 -10 -11 -10 -5 0 -7 5 -4 10 3 6 8 10 11 10 2 0 4 -4 4
-10z m27 -12 c-3 -8 -6 -5 -6 6 -1 11 2 17 5 13 3 -3 4 -12 1 -19z m-72 2 c3
-5 1 -10 -4 -10 -6 0 -11 5 -11 10 0 6 2 10 4 10 3 0 8 -4 11 -10z m-258 -24
c-2 -6 -12 -11 -22 -11 -10 0 -20 5 -22 11 -2 7 7 12 22 12 15 0 24 -5 22 -12z
m190 8 c-3 -3 -12 -4 -19 -1 -8 3 -5 6 6 6 11 1 17 -2 13 -5z m48 -4 c8 -13
-5 -13 -25 0 -13 8 -13 10 2 10 9 0 20 -4 23 -10z m-138 -16 c-3 -3 -12 -4
-19 -1 -8 3 -5 6 6 6 11 1 17 -2 13 -5z"/>
<path d="M9543 7865 c0 -7 6 -11 14 -8 7 3 13 6 13 8 0 2 -6 5 -13 8 -8 3 -14
-1 -14 -8z"/>
<path d="M4150 7684 c-158 -28 -332 -102 -459 -197 -296 -221 -474 -537 -474
-842 -1 -112 19 -213 51 -262 7 -12 11 -27 7 -33 -3 -5 1 -10 9 -10 9 0 16 -6
16 -14 0 -7 20 -34 45 -58 25 -25 45 -52 45 -59 0 -11 2 -11 10 1 7 11 10 11
10 2 0 -7 15 -19 33 -27 19 -8 40 -21 47 -30 7 -9 22 -14 34 -13 14 2 21 -2
20 -12 -1 -17 32 -20 55 -6 10 7 11 4 1 -14 -6 -12 -9 -24 -6 -28 3 -3 6 0 6
7 0 7 5 9 10 6 6 -4 7 -12 3 -18 -5 -8 -2 -8 9 0 8 7 18 10 21 6 4 -3 7 -1 7
5 0 6 -4 14 -10 17 -5 3 -10 1 -10 -5 0 -6 -5 -8 -11 -4 -8 4 -7 9 2 15 7 4
18 5 24 1 10 -7 15 -8 38 -11 7 -1 5 -7 -7 -16 -18 -13 -18 -14 2 -12 11 0 19
4 16 8 -2 3 7 7 20 7 18 0 23 -5 19 -16 -4 -10 -2 -13 5 -8 16 9 15 33 0 39
-10 4 -10 6 -1 6 7 1 17 -8 23 -18 6 -13 17 -17 30 -14 17 5 18 8 8 21 -12 13
-11 14 9 2 16 -11 19 -17 11 -27 -6 -7 -6 -13 -2 -13 5 0 15 9 22 20 10 17 10
20 -2 20 -8 0 -18 4 -21 10 -4 6 2 7 17 1 13 -5 22 -16 22 -25 -1 -9 3 -13 8
-10 5 4 8 14 5 23 -3 13 1 17 17 15 12 -1 22 -3 24 -4 1 -2 5 -3 10 -4 4 -1
12 -5 18 -9 7 -4 18 1 25 11 13 15 12 16 -3 3 -12 -9 -18 -10 -18 -2 0 6 3 11
8 12 4 0 15 2 25 4 9 2 15 0 12 -5 -3 -4 2 -11 11 -14 11 -4 15 -2 12 6 -3 7
3 21 13 30 14 14 18 14 23 2 3 -7 0 -13 -6 -11 -6 1 -13 -5 -15 -13 -4 -12 -3
-12 5 -2 5 8 13 14 18 14 5 0 8 4 6 10 -1 5 3 8 10 5 7 -2 12 -11 10 -18 -2
-8 0 -10 4 -6 12 12 14 38 2 31 -7 -5 -8 -2 -4 5 6 9 13 8 29 -6 11 -10 17
-12 13 -5 -4 6 -2 13 3 13 12 2 26 5 39 9 4 1 11 2 15 1 5 -1 6 3 2 9 -3 5 0
13 9 16 8 3 17 12 20 21 5 11 2 13 -9 9 -9 -3 -13 -2 -10 4 12 19 37 11 30 -9
-3 -11 -1 -22 4 -26 7 -4 8 1 4 11 -5 13 -3 15 7 9 8 -5 11 -4 6 3 -3 6 3 13
14 17 20 7 28 25 10 25 -5 0 -10 5 -10 11 0 5 4 8 9 4 6 -3 14 3 20 12 6 10
11 13 11 8 0 -6 -4 -15 -9 -20 -6 -6 -3 -16 7 -25 14 -13 15 -12 9 3 -6 16 4
22 28 17 6 -1 7 2 3 5 -11 12 12 47 27 41 7 -2 21 2 32 10 10 9 12 13 6 9 -7
-3 -13 -1 -13 4 0 6 4 11 9 11 11 0 44 50 44 67 0 9 8 6 23 -8 20 -19 22 -19
21 -3 -1 10 4 19 11 19 6 0 12 3 12 8 0 4 0 14 0 23 0 9 -5 12 -12 8 -7 -4 -8
-3 -4 4 7 12 37 5 48 -12 5 -8 8 -7 8 1 0 7 -7 16 -17 21 -16 9 -12 44 4 41
22 -4 33 2 27 14 -6 10 -4 10 7 0 16 -16 29 -17 29 -2 0 5 -5 7 -11 3 -7 -4
-10 -1 -7 7 3 8 11 13 17 11 7 -1 10 2 7 7 -3 5 1 11 9 15 8 3 15 11 15 18 0
9 -3 10 -8 2 -4 -6 -18 -17 -32 -23 -22 -11 -21 -10 5 13 17 14 35 23 42 21 7
-2 15 1 19 7 4 7 3 8 -4 4 -7 -4 -12 -2 -12 4 0 6 -4 8 -10 5 -15 -9 -12 4 5
22 8 8 12 19 9 25 -4 7 -2 8 4 4 11 -6 16 5 13 26 0 4 6 5 15 1 13 -5 13 -8 2
-15 -10 -8 -10 -9 2 -5 8 2 15 9 15 16 0 6 7 16 15 21 8 5 11 12 7 16 -4 4
-13 -1 -20 -11 -12 -15 -14 -16 -14 -1 0 9 5 16 10 16 5 0 6 7 3 16 -5 14 -4
15 9 4 12 -10 15 -10 15 4 0 11 5 14 12 10 7 -4 8 -3 4 4 -4 6 -14 9 -24 6
-15 -5 -15 -5 1 6 9 6 21 9 25 6 5 -3 9 1 9 9 0 8 -6 15 -14 15 -16 0 -17 16
-1 26 7 4 8 3 4 -4 -4 -7 -2 -12 3 -12 6 0 11 9 11 21 0 13 -4 18 -12 13 -7
-5 -8 -3 -4 5 6 9 12 9 25 -3 15 -14 18 -14 18 -1 0 8 -4 12 -8 10 -14 -9 -17
24 -3 35 13 12 18 7 15 -13 -1 -5 3 -6 9 -2 6 4 4 15 -6 30 -14 21 -14 24 3
34 10 6 14 11 9 11 -5 0 -2 8 5 17 12 14 12 16 0 8 -11 -6 -13 -4 -8 8 3 10 2
17 -2 17 -5 0 -12 -6 -14 -12 -4 -10 -6 -10 -6 -1 -1 6 4 15 9 18 8 5 7 12 -2
23 -11 13 -11 14 1 7 11 -6 13 -4 8 9 -4 10 -3 15 3 11 6 -3 10 0 10 9 0 8 -6
17 -12 20 -7 3 -2 4 12 1 14 -3 19 -2 12 1 -10 5 -10 9 -1 21 7 8 8 13 3 12
-21 -4 -35 2 -29 11 4 6 11 8 16 5 5 -3 6 2 2 11 -5 13 -3 15 8 9 12 -8 12 -6
0 8 -14 18 -26 23 -16 8 3 -5 1 -12 -4 -15 -5 -4 -8 2 -6 11 1 11 10 17 21 16
19 -1 19 -1 0 12 -10 8 -23 12 -27 9 -5 -3 -6 2 -3 10 3 9 10 13 15 10 5 -3 6
2 3 10 -3 9 -10 14 -14 11 -5 -3 -7 3 -6 12 2 10 -2 22 -8 26 -7 6 -6 7 4 4 8
-2 14 -10 12 -16 -1 -7 2 -10 7 -6 14 8 2 35 -16 35 -8 0 -11 5 -8 10 3 6 1
10 -6 10 -7 0 -10 3 -6 6 3 4 -3 24 -14 46 -13 26 -16 38 -7 33 7 -3 5 0 -6 9
-11 9 -15 20 -10 28 4 7 4 10 -1 6 -9 -8 -35 15 -35 31 0 6 -5 11 -11 11 -6 0
-9 7 -6 14 4 10 1 13 -9 9 -7 -3 -14 -1 -14 4 0 19 -104 87 -177 115 -65 25
-95 31 -178 34 -55 1 -111 0 -125 -2z m623 -711 c-3 -7 -6 -13 -8 -13 -2 0 -5
6 -8 13 -3 8 1 14 8 14 7 0 11 -6 8 -14z m-20 -28 c4 -8 3 -16 -1 -19 -4 -3
-9 4 -9 15 -2 23 3 25 10 4z m-172 -348 c-10 -9 -11 -8 -5 6 3 10 9 15 12 12
3 -3 0 -11 -7 -18z m-113 -139 c-2 -7 2 -12 9 -13 6 0 15 -4 20 -9 4 -5 3 -6
-4 -2 -6 3 -14 2 -18 -4 -14 -23 -26 5 -16 38 3 8 11 0 9 -10z m-80 -93 c-3
-3 -9 2 -12 12 -6 14 -5 15 5 6 7 -7 10 -15 7 -18z m-81 -77 c-3 -8 -6 -5 -6
6 -1 11 2 17 5 13 3 -3 4 -12 1 -19z m-133 -77 c3 -4 -3 -16 -14 -26 -11 -10
-20 -15 -20 -11 0 4 -10 2 -22 -4 -21 -10 -21 -10 -6 3 10 8 14 18 10 22 -4 5
-1 5 6 1 7 -4 15 -1 18 8 7 18 20 21 28 7z m-69 -21 c-3 -5 -12 -10 -18 -10
-7 0 -6 4 3 10 19 12 23 12 15 0z m-35 -16 c0 -8 -19 -13 -24 -6 -3 5 1 9 9 9
8 0 15 -2 15 -3z m-63 -30 c-3 -3 -12 -4 -19 -1 -8 3 -5 6 6 6 11 1 17 -2 13
-5z m-230 -56 c-3 -8 -6 -5 -6 6 -1 11 2 17 5 13 3 -3 4 -12 1 -19z"/>
<path d="M4149 6193 c-13 -16 -12 -17 4 -4 9 7 17 15 17 17 0 8 -8 3 -21 -13z"/>
<path d="M2235 7392 c-16 -1 -65 -12 -108 -23 -276 -69 -568 -321 -715 -614
-33 -67 -76 -183 -87 -236 -13 -57 -15 -276 -4 -311 20 -62 73 -163 101 -190
29 -28 37 -45 16 -32 -7 4 -8 3 -4 -4 4 -6 13 -9 21 -5 10 3 15 -1 15 -13 0
-9 3 -14 6 -11 10 9 46 -12 39 -24 -4 -5 -1 -9 4 -9 6 0 11 6 11 13 0 8 3 7
10 -3 6 -9 5 -17 -3 -22 -8 -5 -8 -8 -1 -8 6 0 14 3 18 7 9 9 36 13 33 5 -1
-4 1 -7 4 -7 4 0 17 -11 29 -25 12 -14 19 -20 16 -14 -3 7 3 14 15 17 15 4 18
2 10 -7 -7 -8 -6 -17 1 -26 8 -12 9 -12 4 3 -3 11 0 17 10 17 8 0 12 4 9 10
-3 6 1 7 10 4 11 -5 13 -10 5 -19 -8 -10 -8 -15 1 -21 7 -4 9 -3 6 3 -4 6 0
13 8 17 8 3 17 1 20 -4 3 -5 12 -7 20 -3 9 3 21 0 28 -6 10 -8 14 -7 14 4 0 7
-5 13 -10 12 -5 -1 -12 5 -14 13 -3 9 -1 11 4 5 11 -13 47 -19 39 -6 -4 5 -2
12 3 15 10 7 9 -13 -2 -31 -4 -6 -2 -15 4 -19 7 -4 9 -3 5 4 -3 6 3 13 14 17
11 4 18 10 15 15 -3 5 0 12 6 16 8 5 9 3 4 -6 -6 -10 -1 -12 19 -8 21 4 24 3
15 -9 -9 -11 -8 -12 5 -7 9 3 16 10 16 15 0 5 4 9 10 9 5 0 6 -7 3 -17 -4 -11
-3 -14 5 -9 7 4 12 16 12 27 0 10 5 19 11 19 5 0 7 6 3 13 -6 9 -5 9 7 0 10
-8 19 -9 27 -3 9 7 9 7 2 -2 -6 -7 -16 -13 -22 -13 -6 0 -13 -7 -15 -15 -3 -9
-1 -11 4 -5 4 6 14 11 21 13 6 1 18 3 25 5 6 1 11 -5 9 -13 -2 -8 0 -11 5 -7
4 5 8 14 8 20 0 7 13 11 28 10 l27 -2 -20 21 c-11 12 -17 24 -14 27 3 3 9 -1
14 -9 8 -13 13 -13 30 -2 11 7 25 10 30 7 6 -4 10 -1 10 6 0 8 4 8 15 -1 8 -7
15 -10 15 -6 0 3 -15 15 -32 26 -39 24 -30 27 13 5 16 -9 28 -12 27 -8 -2 5 3
15 10 23 7 8 19 24 27 35 14 19 15 19 8 1 -5 -14 -3 -17 7 -11 7 4 27 8 44 8
17 0 24 2 15 4 -9 2 -21 16 -28 31 -10 23 -9 25 2 10 20 -25 54 -20 51 9 -2
20 0 22 19 11 21 -11 21 -10 7 7 -13 17 -13 18 2 13 11 -5 18 0 21 13 3 11 15
23 27 26 16 4 18 8 8 14 -9 6 -4 9 17 10 17 1 34 1 38 0 5 -1 6 3 2 9 -3 6
-11 8 -16 5 -5 -4 -9 1 -9 9 0 18 11 21 26 6 6 -6 10 -3 11 10 1 13 -2 18 -10
13 -7 -4 -7 -1 1 10 8 9 11 20 8 25 -3 6 12 9 37 7 23 -2 35 -1 25 2 -17 4
-32 32 -23 41 3 3 5 0 5 -6 0 -7 7 -12 15 -12 9 0 12 6 9 15 -4 10 3 18 22 26
28 10 28 11 10 25 -14 10 -16 14 -5 14 12 0 12 2 -1 10 -11 8 -7 9 15 4 23 -4
26 -3 15 5 -11 8 -12 11 -2 11 7 0 10 5 6 11 -4 7 0 9 13 5 17 -5 20 -2 18 16
-1 13 -3 23 -4 23 -2 0 -4 8 -6 18 -2 9 1 15 6 11 5 -3 7 -10 4 -15 -4 -5 0
-9 7 -9 7 0 19 9 26 21 8 12 9 18 4 15 -6 -3 -13 1 -16 10 -3 8 -2 12 4 9 6
-3 10 0 10 7 0 11 2 10 9 0 7 -11 9 -10 14 3 4 9 3 13 -2 10 -5 -3 -12 -1 -16
5 -3 5 1 10 9 10 9 0 16 5 16 10 0 9 -15 14 -33 11 -5 -1 -6 3 -2 8 3 6 13 7
22 4 12 -5 14 -3 9 8 -4 8 0 5 9 -6 16 -19 16 -19 9 9 -5 20 -3 27 4 22 6 -3
14 -1 18 5 4 8 3 9 -4 5 -16 -10 -15 7 0 22 10 10 10 15 -2 22 -13 8 -13 11
-1 22 10 9 12 10 7 1 -5 -9 -2 -11 10 -6 15 5 15 7 0 15 -9 5 -14 13 -11 19 4
5 0 9 -7 9 -10 0 -10 2 1 9 8 5 11 16 8 24 -4 11 -1 14 8 10 8 -3 12 -10 8
-16 -3 -5 -2 -7 4 -4 12 8 10 36 -4 63 -17 30 -10 60 13 56 11 -2 16 -1 12 4
-4 4 -2 14 5 22 10 13 9 14 -12 3 -13 -7 -21 -8 -17 -3 3 6 3 12 -1 15 -5 2
-3 2 4 1 7 -2 15 2 19 8 4 6 3 8 -3 5 -6 -4 -17 1 -24 10 -12 15 -12 16 3 10
13 -4 15 -2 11 10 -5 12 -3 14 8 8 11 -6 12 -5 2 6 -7 7 -13 17 -13 22 0 4 6
5 13 1 8 -5 8 -2 -2 9 -14 18 -26 23 -16 8 3 -5 1 -12 -5 -16 -14 -9 -12 18 3
34 8 10 8 12 0 7 -6 -3 -14 -2 -18 4 -3 5 -1 10 6 10 8 0 9 3 0 13 -6 8 -8 17
-4 20 3 4 1 7 -5 7 -9 0 -33 54 -31 73 0 5 -9 17 -21 27 -12 10 -21 22 -20 27
1 12 -60 73 -100 98 -87 54 -204 79 -315 67z m510 -590 c-3 -3 -11 0 -18 7 -9
10 -8 11 6 5 10 -3 15 -9 12 -12z m-40 -148 c-17 -18 -31 -18 -16 -1 6 8 8 17
4 21 -4 4 0 4 10 1 14 -6 14 -9 2 -21z m-64 -151 c13 -16 12 -17 -3 -4 -10 7
-18 15 -18 17 0 8 8 3 21 -13z m-33 -58 c-3 -3 -9 2 -12 12 -6 14 -5 15 5 6 7
-7 10 -15 7 -18z m-238 -279 c0 -2 -8 -10 -17 -17 -16 -13 -17 -12 -4 4 13 16
21 21 21 13z m-75 -75 c3 -5 2 -12 -3 -15 -5 -3 -9 1 -9 9 0 17 3 19 12 6z
m-125 -81 c0 -5 -5 -10 -11 -10 -5 0 -7 5 -4 10 3 6 8 10 11 10 2 0 4 -4 4
-10z m-75 -40 c3 -5 1 -10 -4 -10 -6 0 -11 5 -11 10 0 6 2 10 4 10 3 0 8 -4
11 -10z m-45 -34 c0 -2 -8 -10 -17 -17 -16 -13 -17 -12 -4 4 13 16 21 21 21
13z"/>
<path d="M2710 7131 c0 -6 4 -12 8 -15 5 -3 9 1 9 9 0 8 -4 15 -9 15 -4 0 -8
-4 -8 -9z"/>
<path d="M9386 7102 c-3 -5 1 -9 9 -9 8 0 12 4 9 9 -3 4 -7 8 -9 8 -2 0 -6 -4
-9 -8z"/>
<path d="M4786 7052 c-3 -5 1 -15 8 -21 11 -10 14 -9 12 3 -3 21 -13 29 -20
18z"/>
<path d="M2743 6860 c-1 -10 5 -24 13 -31 9 -7 14 -8 14 -1 0 6 -6 13 -12 15
-10 4 -10 8 0 15 11 8 11 10 0 15 -9 3 -14 -2 -15 -13z"/>
<path d="M6821 6801 c-10 -7 -10 -10 -1 -16 6 -4 16 -3 22 3 13 13 -4 23 -21
13z"/>
<path d="M2755 6750 c-4 -6 -10 -8 -14 -6 -4 3 -8 -1 -8 -9 0 -13 4 -12 19 2
18 16 22 23 14 23 -3 0 -8 -5 -11 -10z"/>
<path d="M8017 6714 c-3 -5 1 -15 9 -22 16 -14 18 -5 5 17 -5 7 -11 9 -14 5z"/>
<path d="M8070 6678 c0 -4 4 -8 9 -8 6 0 12 4 15 8 3 5 -1 9 -9 9 -8 0 -15 -4
-15 -9z"/>
<path d="M8784 6675 c-4 -8 -11 -12 -17 -8 -6 3 -7 1 -3 -6 6 -9 11 -9 21 -1
8 7 20 8 27 4 10 -6 9 -3 -1 9 -17 21 -20 21 -27 2z"/>
<path d="M8835 6670 c3 -5 8 -10 11 -10 2 0 4 5 4 10 0 6 -5 10 -11 10 -5 0
-7 -4 -4 -10z"/>
<path d="M4645 6661 c-3 -6 -3 -11 2 -11 4 0 1 -5 -7 -10 -10 -7 -11 -10 -2
-10 7 0 15 7 19 15 7 19 -2 31 -12 16z"/>
<path d="M6670 6626 c0 -2 8 -10 18 -17 15 -13 16 -12 3 4 -13 16 -21 21 -21
13z"/>
<path d="M8260 6626 c0 -2 8 -10 18 -17 15 -13 16 -12 3 4 -13 16 -21 21 -21
13z"/>
<path d="M8335 6621 c-3 -5 -1 -12 5 -16 5 -3 10 1 10 9 0 18 -6 21 -15 7z"/>
<path d="M8516 6592 c-3 -5 1 -9 9 -9 8 0 12 4 9 9 -3 4 -7 8 -9 8 -2 0 -6 -4
-9 -8z"/>
<path d="M5466 6508 c3 -5 10 -6 15 -3 13 9 11 12 -6 12 -8 0 -12 -4 -9 -9z"/>
<path d="M4520 6500 c0 -13 26 -19 41 -9 8 5 10 9 4 10 -5 0 -18 2 -27 4 -10
2 -18 0 -18 -5z"/>
<path d="M6495 6490 c-3 -5 -1 -10 4 -10 6 0 11 5 11 10 0 6 -2 10 -4 10 -3 0
-8 -4 -11 -10z"/>
<path d="M6375 6410 c-3 -6 1 -7 9 -4 18 7 21 14 7 14 -6 0 -13 -4 -16 -10z"/>
<path d="M2610 6401 c0 -6 4 -13 10 -16 6 -3 7 1 4 9 -7 18 -14 21 -14 7z"/>
<path d="M4426 6379 c-15 -25 -16 -33 -6 -42 10 -9 11 -9 6 0 -7 13 3 45 13
39 4 -3 8 4 8 15 2 25 0 24 -21 -12z"/>
<path d="M2570 6376 c0 -2 7 -7 16 -10 8 -3 12 -2 9 4 -6 10 -25 14 -25 6z"/>
<path d="M6150 6339 c0 -5 5 -7 10 -4 6 3 10 8 10 11 0 2 -4 4 -10 4 -5 0 -10
-5 -10 -11z"/>
<path d="M2546 6318 c3 -5 10 -6 15 -3 13 9 11 12 -6 12 -8 0 -12 -4 -9 -9z"/>
<path d="M2477 6257 c-3 -8 -2 -20 3 -26 5 -9 8 -4 8 13 0 29 -3 32 -11 13z"/>
<path d="M8545 6252 c-189 -12 -400 -85 -568 -195 -330 -218 -536 -585 -531
-942 2 -137 37 -293 80 -363 8 -12 12 -27 9 -32 -3 -6 -2 -10 4 -10 14 0 42
-55 33 -65 -4 -5 -1 -5 6 -1 7 4 12 2 12 -6 0 -7 9 -19 20 -26 11 -7 20 -21
20 -33 0 -11 5 -17 10 -14 6 3 10 -1 10 -9 0 -9 6 -15 13 -14 6 2 11 -3 9 -9
-1 -7 5 -13 15 -13 9 0 13 -3 10 -7 -4 -3 3 -11 16 -18 12 -6 21 -17 19 -25
-2 -7 3 -10 12 -7 9 4 19 1 23 -6 5 -7 17 -17 28 -23 11 -7 19 -19 19 -28 -1
-9 2 -14 6 -11 5 3 10 2 13 -2 2 -5 2 -3 1 4 -2 7 3 10 11 6 8 -3 13 -8 11
-12 -2 -3 3 -13 12 -21 14 -13 15 -12 9 2 -4 12 -2 15 9 11 19 -7 18 -20 -3
-32 -10 -6 -13 -11 -6 -11 6 0 15 5 18 10 3 6 11 10 16 10 6 0 7 -4 4 -10 -9
-14 8 -12 24 3 11 10 13 10 7 0 -4 -8 -1 -13 8 -13 9 0 16 -5 16 -11 0 -6 9
-9 20 -6 11 3 23 0 27 -5 4 -7 1 -8 -7 -3 -9 5 -11 4 -6 -4 6 -9 11 -9 24 1
13 11 15 11 10 -3 -4 -9 -1 -16 7 -16 8 0 14 3 13 6 -2 19 4 21 23 7 12 -8 29
-12 38 -8 14 5 14 4 2 -11 -12 -15 -12 -17 2 -11 8 3 24 1 34 -5 11 -5 25 -6
33 -1 9 6 19 3 27 -8 13 -15 13 -14 8 8 l-7 25 18 -25 c11 -14 18 -29 16 -34
-2 -5 3 -4 11 2 8 7 17 9 20 5 4 -3 7 -1 7 6 0 7 10 12 23 11 39 -4 48 -1 41
13 -4 6 5 1 20 -13 20 -18 25 -20 20 -7 -8 21 0 22 19 2 13 -13 16 -13 21 1 3
8 2 13 -3 10 -5 -3 -15 2 -22 12 -13 15 -12 16 3 4 13 -10 17 -10 21 0 4 11 6
11 6 0 1 -10 6 -10 22 -1 15 8 19 8 15 0 -4 -6 -2 -11 4 -11 6 0 8 -5 4 -11
-5 -8 -1 -8 13 0 11 6 24 7 28 3 5 -4 5 -2 1 5 -4 7 -13 10 -21 6 -10 -3 -15
1 -15 13 0 16 2 17 10 4 9 -13 10 -13 10 0 0 12 2 13 9 1 6 -8 16 -11 31 -6
18 6 20 9 9 17 -11 8 -10 8 4 4 10 -3 21 -6 23 -6 2 0 4 -5 4 -11 0 -5 -4 -8
-9 -5 -4 3 -17 -1 -27 -10 -18 -14 -18 -15 4 -4 12 6 22 7 22 3 0 -4 5 -2 11
4 6 6 18 9 25 6 8 -3 14 0 14 6 0 6 7 11 15 11 8 0 15 5 15 11 0 7 -9 5 -24
-4 -22 -15 -25 -15 -37 1 -11 14 -11 15 0 5 11 -9 19 -8 36 3 16 10 25 12 30
5 3 -6 11 -11 16 -11 6 0 8 4 5 8 -2 4 -1 14 3 21 6 10 10 9 14 -4 4 -9 3 -13
-3 -10 -6 3 -7 -1 -4 -9 5 -14 8 -14 22 1 12 12 13 18 4 21 -20 6 -14 18 10
19 16 2 19 0 10 -6 -10 -6 -9 -10 7 -14 25 -6 34 2 19 20 -9 11 -7 12 8 6 17
-6 18 -5 4 12 -14 17 -14 18 10 5 15 -8 20 -15 12 -18 -14 -4 -17 -22 -3 -22
14 0 22 31 12 44 -8 9 2 12 40 11 33 -1 54 4 62 14 10 12 9 13 -2 6 -10 -6
-12 -4 -7 4 5 7 15 10 23 7 9 -4 11 -2 7 6 -5 8 -2 9 10 5 9 -4 15 -3 11 2 -3
5 1 12 7 15 9 3 7 9 -6 20 -11 9 -15 16 -9 16 7 0 15 -5 19 -11 4 -8 13 -4 25
12 12 16 29 24 50 25 18 1 35 7 37 13 3 9 8 9 20 -1 15 -12 16 -11 3 5 -13 16
-15 16 -32 1 -11 -10 -19 -12 -19 -6 0 7 5 12 11 12 5 0 7 5 3 12 -4 6 -3 8 4
4 6 -3 21 7 34 24 20 25 24 27 24 11 0 -11 -5 -17 -10 -14 -5 3 -6 1 -2 -6 4
-6 12 -9 17 -5 5 3 6 10 3 16 -5 7 -1 9 9 5 16 -6 16 -5 1 18 -19 29 -13 33
12 8 17 -17 17 -17 12 5 -3 12 -2 22 3 22 5 0 9 -4 9 -10 0 -5 10 1 23 13 13
12 22 25 20 29 -2 4 1 9 5 12 5 3 8 22 6 43 -2 29 0 34 7 20 6 -9 8 -21 5 -25
-7 -11 31 -8 41 3 5 4 3 5 -3 2 -7 -4 -15 1 -19 11 -12 25 -14 41 -7 41 19 -3
32 2 32 12 0 5 -6 7 -12 3 -9 -5 -9 -2 1 9 14 18 26 23 17 8 -3 -5 1 -11 9
-15 21 -8 29 12 11 30 -21 21 -20 27 3 15 16 -9 20 -7 23 14 3 13 0 30 -6 37
-8 8 -6 8 6 -1 10 -7 15 -17 12 -22 -3 -5 0 -9 6 -9 7 0 10 6 7 14 -8 21 4 28
22 13 14 -10 14 -10 4 4 -7 9 -11 19 -8 23 3 3 -1 2 -7 -4 -16 -13 -28 -13
-28 1 0 5 4 8 8 5 5 -3 14 4 22 14 8 10 17 17 22 14 4 -3 8 0 8 5 0 14 -13 14
-28 -1 -9 -9 -12 -9 -12 0 0 7 5 12 10 12 6 0 10 7 10 15 0 8 5 15 11 15 5 0
7 -5 4 -11 -4 -6 2 -5 14 2 11 8 17 16 13 19 -4 3 -8 10 -9 15 -1 6 -5 19 -9
30 -7 19 -6 20 8 1 10 -13 17 -15 22 -8 4 6 -2 17 -13 24 -19 11 -18 13 17 35
20 12 32 23 25 23 -14 0 -9 36 7 55 8 10 8 15 0 20 -8 5 -6 14 7 28 13 16 14
18 2 9 -14 -10 -18 -10 -23 4 -8 21 -8 24 5 24 5 0 7 -6 4 -12 -4 -7 0 -5 8 4
8 10 18 14 23 10 4 -4 2 1 -5 11 -11 14 -11 20 0 34 12 14 12 16 0 8 -11 -6
-13 -4 -8 9 5 13 3 17 -6 13 -8 -3 -14 1 -14 8 0 8 7 11 16 7 14 -5 14 -4 1
12 -18 23 -21 44 -8 53 6 3 8 1 4 -5 -3 -6 -2 -13 3 -16 5 -4 12 -2 15 3 4 5
2 12 -4 16 -6 4 -8 10 -5 15 3 5 -1 15 -10 23 -8 8 -12 24 -10 36 2 11 0 23
-4 26 -10 5 -7 57 3 74 5 7 1 9 -11 4 -14 -5 -16 -3 -6 7 10 11 9 16 -5 26
-16 12 -16 13 3 14 l20 1 -20 9 c-11 5 -14 9 -7 9 6 1 12 5 12 11 0 5 -6 7
-14 4 -17 -6 -29 23 -14 32 7 5 8 2 3 -6 -5 -9 -4 -11 4 -6 6 4 9 12 5 17 -3
5 -10 6 -16 3 -7 -5 -9 0 -6 14 4 12 1 25 -4 29 -7 4 -8 1 -3 -7 5 -9 4 -11
-4 -6 -6 4 -9 11 -6 16 3 4 -2 13 -11 20 -8 7 -13 19 -10 27 3 7 1 13 -5 13
-6 0 -8 4 -5 9 3 5 -1 11 -9 15 -8 3 -15 12 -15 21 0 8 -4 15 -8 15 -4 0 -15
12 -24 28 -9 15 -35 46 -57 69 -23 23 -41 47 -41 53 0 6 -4 9 -9 5 -5 -3 -18
6 -30 20 -11 15 -21 25 -23 23 -2 -1 -23 11 -48 28 -150 103 -368 159 -565
146z m940 -953 c-4 -5 -12 -9 -18 -8 -9 0 -8 2 1 6 6 2 9 10 6 15 -4 7 -2 8 5
4 6 -4 9 -12 6 -17z m-17 -100 c10 -13 10 -19 -1 -27 -9 -8 -13 -4 -13 19 -1
17 -1 29 0 27 1 -2 7 -10 14 -19z m-12 -76 c-2 -9 -9 -19 -17 -21 -11 -3 -11
-1 1 7 13 10 13 11 0 12 -11 0 -11 2 -2 6 10 4 10 8 0 21 -11 15 -11 15 4 4 9
-7 15 -20 14 -29z m-40 -116 c1 -9 -2 -15 -7 -11 -5 3 -7 9 -4 14 3 4 0 11 -5
13 -6 3 -5 4 1 3 7 -1 13 -10 15 -19z m-86 -137 c0 -5 -5 -10 -11 -10 -5 0 -7
5 -4 10 3 6 8 10 11 10 2 0 4 -4 4 -10z m-112 -188 c-25 -32 -36 -41 -41 -35
-4 3 5 14 18 25 14 11 22 24 19 30 -4 7 -2 8 5 4 9 -6 9 -12 -1 -24z m-18 14
c0 -2 -8 -10 -17 -17 -16 -13 -17 -12 -4 4 13 16 21 21 21 13z m-150 -140 c0
-3 -4 -8 -10 -11 -5 -3 -10 -1 -10 4 0 6 5 11 10 11 6 0 10 -2 10 -4z m-126
-108 c-3 -4 -9 -8 -15 -8 -5 0 -9 4 -9 8 0 5 7 9 15 9 8 0 12 -4 9 -9z m-55
-36 c-1 -15 -2 -15 -6 1 -2 9 -9 14 -15 11 -7 -4 -8 -2 -4 5 10 15 26 4 25
-17z m-569 -142 c-8 -5 -18 -6 -22 -4 -4 3 -8 0 -8 -6 0 -6 -5 -8 -11 -4 -14
8 2 19 33 21 17 2 19 0 8 -7z m40 0 c0 -5 -2 -10 -4 -10 -3 0 -8 5 -11 10 -3
6 -1 10 4 10 6 0 11 -4 11 -10z"/>
<path d="M3411 6177 c2 -1 13 -9 24 -17 19 -14 19 -14 6 3 -7 9 -18 17 -24 17
-6 0 -8 -1 -6 -3z"/>
<path d="M3466 6155 c4 -8 11 -15 16 -15 6 0 5 6 -2 15 -7 8 -14 15 -16 15 -2
0 -1 -7 2 -15z"/>
<path d="M2415 6150 c-3 -5 -1 -10 4 -10 6 0 11 5 11 10 0 6 -2 10 -4 10 -3 0
-8 -4 -11 -10z"/>
<path d="M2380 6140 c-9 -6 -10 -10 -3 -10 6 0 15 5 18 10 8 12 4 12 -15 0z"/>
<path d="M3525 6129 c-4 -6 -5 -12 -2 -15 2 -3 7 2 10 11 7 17 1 20 -8 4z"/>
<path d="M3887 6103 c-3 -5 -2 -15 4 -23 5 -10 9 -11 9 -3 0 7 7 10 18 6 18
-7 17 -5 -10 15 -9 7 -19 9 -21 5z"/>
<path d="M2210 6009 c0 -4 7 -10 16 -13 8 -3 13 -2 9 3 -3 5 1 11 7 14 7 3 3
4 -9 4 -13 -1 -23 -4 -23 -8z"/>
<path d="M5890 5976 c-79 -16 -205 -58 -269 -90 -161 -82 -349 -243 -451 -387
-83 -119 -177 -318 -195 -419 -3 -14 -8 -36 -11 -50 -15 -57 -14 -285 2 -350
9 -36 17 -72 19 -82 4 -21 67 -151 75 -158 4 -3 13 -16 20 -30 7 -14 22 -31
32 -39 12 -8 17 -19 13 -29 -3 -9 -3 -14 0 -10 9 9 56 -33 49 -44 -3 -5 -2 -8
3 -7 19 3 33 -2 33 -12 0 -5 -4 -7 -10 -4 -6 3 -7 -1 -3 -10 4 -12 8 -13 13
-5 10 17 52 -10 45 -29 -5 -12 -3 -12 12 0 15 12 16 12 10 -5 -6 -15 -5 -17 6
-7 11 9 17 8 27 -4 7 -8 16 -13 20 -10 5 3 11 -4 15 -15 3 -11 12 -19 18 -17
7 1 11 -3 10 -8 -1 -6 8 -12 19 -12 12 -1 25 -8 29 -15 6 -8 9 -9 9 -2 0 13
29 23 48 17 6 -3 10 -9 6 -14 -3 -5 2 -9 11 -9 10 0 13 5 9 13 -5 8 -2 8 9 -2
20 -16 23 -25 5 -15 -7 4 -10 4 -6 -1 4 -4 2 -15 -4 -24 -10 -12 -8 -12 8 1
19 17 21 17 38 0 11 -9 16 -12 13 -6 -3 6 9 18 28 27 29 14 33 14 28 2 -3 -8
-9 -13 -13 -10 -5 3 -12 0 -16 -7 -4 -7 -4 -10 1 -6 4 4 14 3 22 -3 10 -9 13
-8 13 4 0 22 19 32 33 17 9 -10 8 -12 -4 -7 -9 3 -16 0 -16 -7 0 -6 8 -12 18
-12 10 0 16 3 14 7 -3 3 9 6 25 7 17 0 30 -4 30 -10 0 -6 3 -8 6 -5 4 4 1 13
-6 22 -11 13 -10 14 6 8 17 -6 18 -5 4 12 -14 17 -14 17 8 4 12 -8 22 -17 22
-22 0 -4 -5 -5 -12 -1 -7 4 -8 3 -4 -5 4 -6 12 -8 18 -5 10 7 70 13 137 15 16
1 20 4 11 9 -7 4 -8 10 -4 12 5 3 2 2 -6 0 -8 -3 -27 -5 -42 -6 -15 0 -24 -4
-22 -8 3 -4 1 -8 -5 -8 -5 0 -9 9 -8 19 1 11 6 17 12 13 17 -11 38 -11 59 0
15 8 22 7 33 -8 7 -10 13 -13 13 -7 0 7 16 17 35 24 19 7 35 17 35 23 0 5 7 1
15 -10 15 -19 15 -19 8 1 -6 18 -5 18 10 6 11 -8 17 -9 17 -3 0 6 8 9 18 6 14
-5 14 -4 2 4 -8 6 -18 8 -22 6 -4 -3 -16 0 -25 6 -14 8 -14 10 -3 9 38 -4 49
1 44 19 -5 14 -4 14 4 2 6 -8 8 -18 6 -22 -3 -4 -1 -8 4 -8 5 0 14 11 22 24 7
14 18 22 26 19 8 -3 12 -9 9 -13 -3 -5 -1 -12 5 -15 6 -4 9 -1 8 7 -2 7 3 12
10 10 8 -1 11 2 7 8 -3 5 0 10 8 10 8 0 17 7 21 15 5 13 2 13 -22 -1 -18 -11
-21 -11 -10 -2 10 8 15 18 12 21 -8 7 18 3 32 -6 13 -7 24 1 24 17 0 6 -5 4
-10 -4 -6 -9 -10 -10 -10 -3 0 6 14 20 30 30 17 9 30 22 30 27 0 5 3 6 7 2 4
-4 -2 -15 -14 -24 -17 -13 -20 -20 -12 -32 9 -13 10 -12 5 3 -5 15 5 22 27 18
5 -1 6 3 2 9 -5 9 7 14 27 11 4 0 5 6 1 15 -5 13 -8 13 -15 2 -8 -10 -9 -10
-5 2 3 10 15 14 37 13 23 -1 29 1 19 8 -8 5 -9 9 -4 10 6 0 1 5 -10 10 -17 8
-16 9 8 5 15 -2 30 1 33 6 3 4 10 5 16 2 7 -4 8 -2 4 5 -4 6 -3 18 3 25 6 7 9
22 5 32 -5 18 -5 18 6 1 9 -14 15 -16 26 -6 7 6 11 15 8 20 -5 8 9 13 29 10
11 -2 8 6 -10 25 -16 16 -16 17 -1 12 9 -4 22 0 29 8 10 12 9 13 -7 8 -17 -5
-17 -4 -2 6 9 6 15 17 12 24 -3 8 -1 17 5 21 7 4 8 -1 4 -12 -6 -16 -5 -16 10
-4 14 11 15 17 5 30 -11 14 -11 14 3 4 9 -7 20 -9 25 -5 4 4 2 -1 -5 -10 -7
-10 -9 -18 -3 -18 17 0 23 30 7 36 -12 5 -11 9 5 26 11 12 17 24 15 28 -2 4 2
7 10 7 10 0 12 -4 5 -12 -5 -7 -6 -16 -2 -20 4 -5 2 -5 -4 -2 -7 4 -15 0 -18
-8 -4 -13 -2 -14 15 -5 11 6 17 15 14 21 -4 5 1 12 9 15 9 3 16 10 16 16 0 5
-4 7 -9 3 -6 -3 -9 3 -8 14 1 16 4 18 16 8 12 -10 13 -9 6 2 -6 11 -4 13 10 7
14 -5 16 -4 7 7 -16 19 14 61 37 52 12 -5 13 -3 5 5 -9 9 -17 9 -32 1 -12 -6
-23 -7 -26 -2 -8 13 4 20 22 14 10 -4 13 -2 8 5 -4 8 -2 10 7 6 11 -4 14 4 14
33 -1 39 5 48 26 40 9 -4 9 -6 0 -6 -7 -1 -13 -6 -13 -12 0 -8 5 -8 15 1 8 7
13 16 10 20 -3 5 -1 11 5 15 7 4 7 12 0 26 -8 14 -7 19 3 19 7 0 17 -3 23 -7
5 -5 1 0 -9 9 -11 10 -23 16 -27 13 -11 -7 -6 22 5 32 4 4 5 3 2 -3 -4 -7 -1
-14 7 -17 22 -9 27 5 9 25 -18 20 -4 25 15 6 7 -7 12 -8 12 -2 0 6 -10 15 -22
21 -19 8 -20 10 -4 16 12 5 15 3 10 -6 -5 -8 -2 -7 9 2 18 14 23 26 8 16 -5
-3 -12 -1 -16 5 -4 6 -12 7 -18 3 -7 -4 -6 0 2 10 7 9 19 17 25 17 6 0 4 -5
-4 -11 -13 -9 -13 -10 0 -6 8 2 15 8 15 13 0 5 4 14 8 21 4 6 3 14 -2 18 -6 3
-8 13 -5 23 5 14 4 14 -4 3 -6 -8 -9 -22 -7 -31 2 -9 -3 -17 -11 -17 -10 0
-11 4 -3 14 6 7 8 13 5 13 -4 0 -2 8 3 18 7 13 6 23 -2 31 -9 9 -9 14 2 20 7
5 11 14 7 20 -5 7 -1 9 9 5 11 -5 13 -10 5 -19 -5 -6 -6 -16 -2 -20 4 -5 1 -5
-7 0 -10 6 -12 4 -7 -4 9 -13 21 -6 21 12 1 7 7 11 15 9 12 -3 11 0 -1 15 -9
10 -14 25 -11 33 4 13 3 13 -11 1 -21 -17 -22 -8 -1 13 8 9 11 16 5 16 -6 0
-11 5 -11 11 0 5 4 8 8 5 5 -3 9 2 9 10 0 8 -6 13 -12 10 -7 -2 -11 6 -10 25
1 17 -3 32 -8 36 -5 3 1 14 14 25 l24 19 -25 -7 c-22 -6 -23 -5 -12 9 9 10 9
16 2 19 -6 2 -13 12 -15 23 -2 11 -4 20 -5 20 -1 0 -3 16 -6 35 -2 19 -9 39
-14 44 -6 6 -10 18 -10 28 0 10 -4 18 -10 18 -5 0 -7 6 -4 14 3 7 -2 16 -11
20 -11 4 -15 12 -11 23 4 10 4 14 0 10 -11 -10 -55 55 -49 72 3 9 3 13 0 9
-10 -10 -45 24 -38 36 3 6 3 8 -2 4 -4 -4 -19 5 -34 20 -62 66 -154 120 -268
158 -95 31 -287 41 -393 20z m835 -1086 c-3 -5 -13 -6 -21 -3 -12 4 -13 8 -3
14 15 9 32 2 24 -11z m-265 -400 c-8 -5 -19 -10 -25 -10 -5 0 -3 5 5 10 8 5
20 10 25 10 6 0 3 -5 -5 -10z m-57 -72 c-19 -22 -30 -23 -30 -4 0 8 6 12 15 8
9 -3 13 -1 9 5 -3 5 0 10 8 10 13 0 12 -4 -2 -19z m-138 -88 c-3 -5 -14 -10
-23 -9 -14 0 -13 2 3 9 27 11 27 11 20 0z m-99 -80 c0 -12 -4 -16 -9 -11 -5 5
-6 14 -3 20 10 15 12 14 12 -9z m-153 -65 c-3 -9 -8 -14 -10 -11 -3 3 -2 9 2
15 9 16 15 13 8 -4z m-57 -33 c-15 -15 -15 -15 -4 10 7 15 15 23 17 17 2 -6
-4 -18 -13 -27z m-545 8 c10 0 19 -4 19 -10 0 -13 -43 4 -46 19 -1 6 0 7 3 1
2 -5 13 -10 24 -10z m526 4 c-3 -3 -12 -4 -19 -1 -8 3 -5 6 6 6 11 1 17 -2 13
-5z m-361 -38 c17 6 17 5 -1 -9 -11 -8 -20 -15 -20 -14 -1 1 -7 11 -15 22 -14
18 -13 19 1 7 9 -7 25 -9 35 -6z m227 -6 c4 0 5 5 1 12 -5 7 -3 8 5 3 9 -5 10
-10 2 -18 -8 -8 -15 -6 -26 6 -8 9 -10 12 -3 7 7 -6 16 -10 21 -10z m-113 -1
c0 -5 5 -7 12 -3 7 4 8 3 4 -5 -6 -9 -11 -9 -22 0 -17 14 -18 19 -4 19 6 0 10
-5 10 -11z"/>
<path d="M1556 5895 c-3 -8 -1 -15 4 -15 6 0 10 7 10 15 0 8 -2 15 -4 15 -2 0
-6 -7 -10 -15z"/>
<path d="M1861 5861 c-8 -5 -9 -11 -3 -15 5 -3 12 1 16 9 6 17 6 18 -13 6z"/>
<path d="M3670 5745 c-127 -28 -196 -55 -307 -121 -240 -142 -430 -366 -533
-629 -54 -140 -71 -220 -75 -352 -4 -127 10 -209 50 -305 15 -35 28 -71 28
-80 1 -9 6 -16 12 -15 5 1 9 -6 9 -16 -1 -10 0 -16 3 -14 8 9 44 -33 38 -43
-4 -6 0 -10 8 -10 14 0 43 -26 49 -45 2 -5 9 -9 16 -7 7 2 11 -3 10 -10 -2 -7
3 -12 11 -10 17 4 41 -16 37 -31 -1 -7 -1 -9 1 -4 10 17 24 5 18 -15 -6 -21
-6 -21 6 -6 11 13 18 15 29 7 13 -9 12 -10 -3 -5 -10 3 -16 2 -13 -3 3 -5 15
-11 26 -14 12 -3 18 -1 14 5 -4 6 1 6 13 -1 11 -6 23 -8 26 -4 4 3 5 -4 2 -15
-2 -15 0 -19 11 -15 7 3 11 9 8 14 -3 5 2 6 11 3 12 -5 13 -10 6 -17 -6 -6
-11 -16 -11 -21 0 -7 3 -8 8 -1 18 25 40 36 48 24 4 -8 3 -9 -4 -5 -8 5 -10 1
-5 -9 4 -12 8 -13 13 -5 4 7 13 9 19 6 6 -4 9 -12 6 -17 -4 -5 -1 -9 5 -9 7 0
10 6 7 14 -3 8 0 17 8 20 9 3 12 0 9 -8 -3 -7 3 -19 12 -27 10 -8 15 -9 11 -3
-4 7 2 12 18 12 14 0 22 -5 18 -11 -3 -6 -1 -7 6 -3 6 4 9 12 6 17 -4 5 1 9 9
9 10 0 13 -6 10 -17 -4 -14 -3 -15 4 -5 5 8 12 13 16 13 20 -3 25 1 20 17 -5
16 -5 16 6 0 6 -10 16 -18 22 -18 9 0 9 3 0 12 -7 7 -12 16 -12 22 0 5 9 -2
21 -15 18 -21 22 -22 32 -8 7 8 26 24 42 34 l30 18 -27 -24 c-22 -19 -26 -27
-17 -39 9 -13 10 -13 6 1 -4 11 3 20 19 28 29 13 45 14 26 2 -11 -7 -11 -9 1
-14 11 -4 14 1 12 18 -1 14 2 22 6 19 5 -3 9 0 9 6 0 6 5 8 10 5 6 -3 10 0 10
7 1 7 8 1 16 -14 16 -31 27 -37 17 -10 -6 14 -4 15 9 4 13 -10 17 -10 22 4 3
9 2 22 -4 29 -7 8 -5 12 5 12 8 0 12 -4 10 -8 -3 -4 8 -9 24 -11 18 -3 29 0
28 6 -1 6 8 12 21 14 12 2 22 8 22 13 0 6 4 8 8 5 5 -3 9 1 9 9 0 12 -4 12
-20 -2 -11 -10 -17 -13 -14 -6 4 6 4 13 0 16 -5 2 -2 2 5 1 7 -2 16 4 19 12 5
14 8 12 19 -7 7 -13 13 -18 14 -11 0 7 5 10 10 7 6 -4 9 -1 8 7 -2 7 6 13 19
13 12 0 26 5 30 9 4 5 3 7 -2 3 -6 -3 -17 -2 -25 4 -11 6 -7 9 15 10 17 1 34
0 40 -1 5 -1 7 2 3 6 -7 7 29 39 44 39 3 0 10 4 15 9 5 5 3 6 -5 2 -10 -6 -13
-3 -11 10 2 11 0 25 -5 33 -7 11 -6 12 5 5 8 -5 22 -7 33 -5 12 2 16 -1 11
-10 -5 -7 -4 -10 3 -6 5 4 9 18 7 32 -1 16 2 24 9 22 6 -3 10 -11 8 -18 -3
-11 -1 -11 9 -2 10 10 9 15 -1 28 -15 18 0 20 19 3 11 -10 13 -10 7 0 -5 7 -1
12 11 12 15 0 15 2 3 9 -8 6 -18 7 -22 5 -4 -3 -5 2 -1 11 3 9 9 13 12 8 3 -5
15 -13 26 -17 11 -4 16 -4 12 0 -4 4 -1 14 6 22 11 13 9 14 -13 2 -23 -12 -24
-12 -11 3 7 10 19 17 26 17 15 0 28 27 19 41 -3 5 -10 6 -16 3 -7 -4 -8 -2 -4
5 6 9 11 9 23 -1 31 -25 51 -14 30 18 -7 13 1 24 17 24 6 0 4 -5 -4 -10 -8 -5
-10 -10 -4 -10 18 0 24 12 13 26 -8 10 -5 16 15 25 14 7 26 16 26 21 0 5 -4 7
-8 4 -4 -2 -14 -1 -22 4 -10 7 -3 9 21 7 27 -2 36 0 32 10 -3 7 -10 10 -16 6
-6 -4 -7 -1 -3 6 5 7 13 10 20 8 6 -3 21 13 33 34 12 22 18 39 13 39 -5 0 -10
-6 -13 -12 -3 -10 -8 -10 -18 1 -12 12 -12 13 0 6 10 -6 13 -4 9 7 -5 11 0 14
18 12 13 -1 22 1 19 6 -3 5 1 11 7 13 10 4 10 6 1 6 -7 1 -10 8 -7 16 4 8 11
12 17 8 6 -3 7 -1 3 5 -10 17 -35 3 -31 -19 2 -10 -1 -22 -7 -25 -7 -4 -8 -2
-4 4 4 7 1 12 -6 12 -9 0 -9 3 2 10 8 5 11 10 5 10 -5 0 -2 7 8 15 11 7 24 12
31 9 7 -3 12 5 13 18 2 18 0 20 -7 8 -5 -8 -10 -10 -10 -4 0 5 7 19 16 30 8
10 12 12 8 4 -5 -12 -4 -12 6 -3 10 9 10 15 -4 28 -22 22 -20 28 4 15 11 -6
20 -7 19 -3 -1 4 0 10 1 13 7 20 7 41 -2 47 -7 4 -8 1 -3 -7 5 -8 4 -11 -2 -7
-12 8 -10 53 3 49 5 -2 8 -10 6 -18 -3 -14 14 -20 21 -6 5 9 -18 54 -25 47 -2
-3 -5 2 -5 10 0 10 4 12 12 5 8 -7 15 -2 23 15 10 21 9 27 -2 31 -7 3 -13 17
-13 31 0 17 2 21 8 12 7 -12 10 -12 21 0 7 8 8 11 2 8 -7 -4 -15 0 -18 9 -3 8
-2 12 3 9 5 -3 12 -1 16 5 3 5 -1 10 -9 10 -8 0 -18 4 -21 10 -3 5 0 7 8 4 8
-3 18 0 22 5 3 6 11 8 17 5 7 -4 8 -2 4 5 -6 9 -11 9 -21 1 -9 -7 -16 -6 -25
5 -11 13 -10 14 6 8 17 -6 17 -5 5 10 -12 15 -12 17 1 12 9 -4 15 0 15 10 0 8
-7 14 -15 13 -8 -2 -16 5 -17 15 -2 9 1 15 6 11 5 -3 6 -10 3 -16 -4 -6 -2 -8
4 -5 13 9 4 47 -12 47 -6 0 -4 5 4 10 8 5 10 10 3 10 -13 0 -12 18 1 39 6 9 5
12 -1 8 -6 -4 -14 0 -17 9 -10 25 -7 27 12 13 14 -11 15 -11 5 1 -7 8 -13 18
-13 23 0 4 6 5 13 1 8 -5 7 -2 -2 10 -8 9 -19 15 -25 13 -7 -3 -12 3 -12 13 0
11 6 16 16 13 8 -2 5 2 -8 9 -12 8 -19 17 -16 21 4 4 2 7 -4 7 -7 0 -12 5 -12
11 0 5 5 7 10 4 16 -10 11 0 -15 31 -14 16 -25 34 -25 40 0 6 -9 19 -20 29
-11 10 -20 22 -20 27 0 9 -49 59 -102 104 -13 11 -53 34 -88 51 -103 49 -127
55 -255 58 -55 1 -125 -3 -155 -10z m734 -778 c4 4 4 -1 0 -10 -3 -10 -7 -17
-8 -15 -1 2 -8 12 -16 23 -14 18 -13 19 1 8 9 -7 19 -10 23 -6z m-30 -149 c-3
-5 -12 -4 -20 3 -19 16 -18 18 6 12 11 -3 17 -9 14 -15z m-44 -58 c-6 -11 -13
-20 -16 -20 -2 0 0 9 6 20 6 11 13 20 16 20 2 0 0 -9 -6 -20z m-57 -186 c-7
-19 -18 -18 -34 4 -13 16 -13 16 5 2 18 -14 19 -13 13 2 -4 12 -2 15 8 12 8
-3 11 -12 8 -20z m-103 -108 c0 -2 -8 -10 -17 -17 -16 -13 -17 -12 -4 4 13 16
21 21 21 13z m-222 -261 c-3 -3 -9 2 -12 12 -6 14 -5 15 5 6 7 -7 10 -15 7
-18z m-14 -10 c3 -10 -5 -20 -25 -31 -23 -11 -29 -12 -23 -2 5 7 9 16 9 20 0
3 4 10 9 15 5 5 6 3 2 -4 -4 -8 -1 -13 8 -13 10 0 13 6 10 15 -4 8 -4 15 -1
15 3 0 7 -7 11 -15z m-84 -35 c0 -5 -5 -10 -11 -10 -5 0 -7 5 -4 10 3 6 8 10
11 10 2 0 4 -4 4 -10z m-25 -39 c3 -5 2 -12 -3 -15 -5 -3 -9 1 -9 9 0 17 3 19
12 6z m-88 -58 c-14 -14 -19 -15 -29 -4 -11 10 -10 11 5 6 10 -4 17 -2 17 4 0
6 5 11 12 11 8 0 6 -6 -5 -17z m-72 -33 c8 -13 -5 -13 -25 0 -13 8 -13 10 2
10 9 0 20 -4 23 -10z m-336 -63 c0 -8 -2 -8 -6 1 -4 10 -8 10 -21 0 -15 -12
-16 -11 -3 4 14 19 32 15 30 -5z"/>
<path d="M1650 5535 c-217 -46 -437 -190 -603 -395 -213 -263 -322 -589 -283
-849 9 -60 51 -180 76 -213 12 -16 18 -33 15 -38 -4 -6 -1 -9 7 -8 7 2 12 -4
10 -12 -2 -8 -1 -12 3 -8 10 10 35 -17 35 -39 0 -14 2 -15 9 -4 7 10 11 9 22
-6 8 -11 22 -22 32 -26 9 -3 17 -12 17 -19 0 -9 -3 -8 -10 2 -5 8 -10 10 -10
4 0 -18 12 -24 31 -14 10 6 19 6 21 1 2 -5 10 -11 18 -13 8 -2 20 -8 26 -14 7
-6 26 -10 43 -9 17 1 29 0 27 -3 -5 -5 19 -32 28 -32 3 0 5 5 4 11 -2 6 3 13
10 14 7 2 8 1 2 -2 -5 -2 -8 -9 -4 -14 3 -5 13 -5 24 1 13 7 21 7 26 -2 5 -7
3 -8 -6 -3 -9 5 -11 4 -6 -3 5 -8 2 -10 -8 -6 -9 3 -16 2 -16 -4 0 -11 18 -11
35 0 6 3 27 4 48 3 35 -3 43 3 37 30 -1 6 9 0 23 -13 18 -17 27 -20 32 -11 6
8 4 10 -5 4 -8 -5 -11 -4 -6 3 4 6 13 9 21 6 8 -4 12 -11 9 -16 -4 -7 0 -7 12
0 11 5 27 8 37 7 9 -2 14 1 11 7 -4 5 4 8 17 6 19 -2 23 1 21 16 -3 17 -2 18
12 7 13 -11 17 -11 22 3 6 15 8 15 20 -1 13 -17 14 -17 7 2 -6 18 -5 19 13 5
17 -14 18 -14 6 2 -11 13 -11 21 -2 35 10 15 11 15 6 1 -2 -9 2 -22 10 -29 12
-10 13 -9 8 6 -5 12 -4 16 3 12 6 -4 16 0 23 8 7 8 16 12 21 9 5 -3 9 -2 8 3
-1 4 1 16 6 26 6 14 10 15 16 6 11 -19 39 -20 32 -1 -4 9 -2 13 4 9 6 -4 14 0
17 9 3 8 9 13 14 10 4 -2 14 -1 20 3 10 6 9 11 -4 22 -16 13 -17 12 -10 -6 4
-11 4 -16 0 -13 -4 4 -16 1 -28 -7 -24 -18 -36 -19 -36 -4 0 5 4 7 10 4 5 -3
21 5 33 19 13 14 27 23 31 19 13 -13 36 -11 36 3 0 8 -6 11 -15 8 -8 -4 -15
-1 -15 7 0 7 3 10 6 6 11 -11 65 23 57 36 -5 9 -3 9 8 1 14 -11 54 -16 43 -5
-3 3 -11 6 -17 6 -5 0 -12 7 -14 15 -4 13 -3 13 6 0 10 -13 11 -13 12 0 1 8 1
18 0 23 -2 12 6 8 20 -10 12 -14 12 -16 0 -8 -10 5 -12 4 -7 -3 4 -7 12 -12
17 -12 14 0 7 33 -11 48 -13 11 -11 11 8 2 12 -6 22 -16 22 -23 0 -7 4 -6 10
3 7 11 4 20 -13 33 -21 18 -21 18 -1 8 17 -8 27 -6 46 9 17 13 29 16 36 10 9
-7 9 -7 2 2 -11 13 -43 21 -35 8 3 -4 -5 -6 -17 -2 -21 5 -21 6 -2 12 10 4 29
6 41 5 12 -1 20 1 18 6 -7 10 24 41 35 34 5 -3 7 3 5 12 -4 27 5 35 23 21 14
-11 14 -10 -1 12 -24 34 -21 47 4 19 11 -13 18 -19 15 -12 -4 6 1 16 10 21 15
8 15 10 0 15 -12 5 -15 3 -10 -6 5 -7 0 -6 -12 3 -10 8 -21 15 -23 17 -2 1 12
1 31 0 26 -2 34 1 34 14 0 15 -3 16 -16 6 -13 -11 -13 -10 -1 6 9 11 21 15 34
11 17 -5 18 -4 6 9 -8 8 -19 13 -25 10 -7 -2 -15 0 -19 6 -4 7 0 8 11 4 12 -5
15 -3 9 6 -4 8 4 6 19 -4 22 -15 25 -15 20 -2 -3 8 0 18 5 22 6 3 9 10 6 15
-3 5 4 14 15 20 11 6 18 15 14 21 -3 5 0 16 6 24 7 9 8 15 2 15 -5 0 -15 -14
-22 -30 -7 -17 -17 -33 -22 -36 -6 -4 -5 3 1 15 7 12 9 27 5 33 -5 7 -3 8 6 3
10 -6 12 -4 7 8 -3 9 -3 16 1 16 21 -3 32 3 32 17 0 9 8 23 18 30 16 13 16 14
0 8 -10 -3 -18 -1 -18 5 0 6 8 11 17 11 13 0 14 3 5 12 -7 7 -12 17 -12 23 0
5 5 3 10 -5 9 -13 11 -13 20 0 5 8 7 23 4 34 -4 11 -2 16 4 12 6 -3 14 -1 18
5 4 7 3 9 -3 6 -6 -4 -14 0 -17 9 -3 8 -2 12 3 9 5 -3 12 -1 16 5 3 5 0 10 -8
10 -9 0 -14 9 -13 23 0 13 6 24 13 24 8 0 9 -6 2 -19 -6 -12 -6 -18 1 -18 5 0
11 8 12 18 0 9 2 22 2 28 1 6 7 19 15 28 10 12 10 16 1 16 -9 0 -9 4 1 17 8 9
9 14 4 11 -6 -4 -16 2 -23 12 -10 16 -9 18 2 14 11 -4 13 0 9 15 -3 11 -10 18
-16 14 -6 -3 -7 -1 -3 5 10 17 26 15 26 -2 0 -8 4 -18 10 -21 6 -4 7 2 1 18
-6 15 -6 28 0 34 6 6 4 10 -5 10 -8 0 -12 -5 -9 -10 3 -6 1 -7 -5 -3 -19 12
-14 26 11 26 17 0 19 2 7 9 -8 6 -17 8 -20 6 -3 -2 -5 10 -5 25 0 15 3 26 6
24 4 -2 10 3 13 12 4 11 2 15 -8 11 -11 -4 -13 -1 -9 10 4 10 2 14 -4 10 -5
-3 -10 0 -10 7 0 8 7 12 16 9 13 -4 13 -2 -1 10 -19 15 -25 32 -8 22 6 -3 10
-1 10 4 0 6 -4 11 -10 11 -5 0 -10 9 -10 21 0 13 4 18 13 13 8 -5 8 -2 -2 9
-16 20 -25 23 -15 5 4 -8 2 -8 -7 1 -11 11 -11 14 -1 18 10 4 8 9 -5 19 -17
13 -17 14 2 8 15 -4 14 -2 -4 9 -18 11 -20 16 -10 20 11 4 11 6 -1 6 -15 1
-57 78 -52 94 1 5 -2 6 -7 3 -5 -4 -19 7 -30 22 -29 41 -116 98 -186 123 -76
27 -207 33 -295 14z m617 -696 c2 -11 -1 -18 -6 -14 -6 3 -9 14 -8 25 2 23 10
17 14 -11z m-42 -129 c3 -5 1 -10 -4 -10 -6 0 -11 5 -11 10 0 6 2 10 4 10 3 0
8 -4 11 -10z m5 -41 c0 -6 -4 -7 -10 -4 -5 3 -10 11 -10 16 0 6 5 7 10 4 6 -3
10 -11 10 -16z m-95 -219 c-3 -5 -11 -10 -16 -10 -6 0 -7 5 -4 10 3 6 11 10
16 10 6 0 7 -4 4 -10z m-112 -153 c-4 -7 -8 -16 -8 -21 0 -5 -6 -11 -12 -13
-7 -3 -13 0 -13 6 0 6 0 14 0 19 0 4 6 7 13 7 6 1 11 7 9 14 -1 7 2 10 8 6 6
-3 7 -12 3 -18z m-46 -51 c0 -8 -6 -12 -15 -9 -11 5 -11 7 0 14 7 5 13 9 14 9
0 0 1 -6 1 -14z m-50 -62 c-3 -3 -12 -4 -19 -1 -8 3 -5 6 6 6 11 1 17 -2 13
-5z m-297 -213 c0 -5 -8 -19 -18 -32 -15 -17 -21 -19 -27 -9 -5 9 -4 11 3 6 7
-4 17 3 24 18 12 27 18 33 18 17z m-87 -46 c-3 -9 -8 -14 -10 -11 -3 3 -2 9 2
15 9 16 15 13 8 -4z m-36 -37 c-3 -8 -6 -5 -6 6 -1 11 2 17 5 13 3 -3 4 -12 1
-19z m-40 5 c-4 -3 -2 -12 5 -20 8 -11 7 -12 -6 -7 -18 7 -22 34 -4 34 6 0 8
-3 5 -7z m-31 -20 c-3 -21 -40 -27 -56 -8 -9 11 -9 15 -1 15 6 0 11 -4 11 -10
0 -5 5 -10 11 -10 5 0 7 5 3 12 -4 6 -3 8 4 4 6 -3 13 -2 17 4 9 15 14 12 11
-7z m-186 -13 c0 -5 -2 -10 -4 -10 -3 0 -8 5 -11 10 -3 6 -1 10 4 10 6 0 11
-4 11 -10z m50 -8 c0 -4 -9 -8 -19 -8 -11 0 -17 4 -15 8 3 4 12 8 20 8 8 0 14
-4 14 -8z"/>
<path d="M9483 5485 c0 -8 4 -12 9 -9 4 3 8 9 8 15 0 5 -4 9 -8 9 -5 0 -9 -7
-9 -15z"/>
<path d="M6750 5470 c0 -5 5 -10 11 -10 5 0 7 5 4 10 -3 6 -8 10 -11 10 -2 0
-4 -4 -4 -10z"/>
<path d="M6757 5439 c7 -7 15 -10 18 -7 3 3 -2 9 -12 12 -14 6 -15 5 -6 -5z"/>
<path d="M9487 5379 c7 -7 15 -10 18 -7 3 3 -2 9 -12 12 -14 6 -15 5 -6 -5z"/>
<path d="M6766 5358 c3 -5 10 -6 15 -3 13 9 11 12 -6 12 -8 0 -12 -4 -9 -9z"/>
<path d="M6770 5331 c0 -6 4 -12 8 -15 5 -3 9 1 9 9 0 8 -4 15 -9 15 -4 0 -8
-4 -8 -9z"/>
<path d="M9430 5075 c0 -7 30 -13 34 -7 3 4 -4 9 -15 9 -10 1 -19 0 -19 -2z"/>
<path d="M4400 4996 c0 -2 7 -6 15 -10 8 -3 15 -1 15 4 0 6 -7 10 -15 10 -8 0
-15 -2 -15 -4z"/>
<path d="M9290 4769 c0 -5 -4 -8 -9 -4 -5 3 -12 1 -16 -5 -7 -11 5 -13 29 -4
18 7 22 24 6 24 -5 0 -10 -5 -10 -11z"/>
<path d="M6666 4733 c-6 -14 -5 -15 5 -6 7 7 10 15 7 18 -3 3 -9 -2 -12 -12z"/>
<path d="M6530 4555 c-9 -10 -9 -15 -1 -15 6 0 11 5 11 11 0 5 5 7 12 3 7 -4
8 -3 4 4 -9 15 -11 15 -26 -3z"/>
<path d="M9095 4560 c-3 -5 -1 -10 4 -10 6 0 11 5 11 10 0 6 -2 10 -4 10 -3 0
-8 -4 -11 -10z"/>
<path d="M9006 4501 c-3 -5 1 -11 9 -14 9 -4 12 -1 8 9 -6 16 -10 17 -17 5z"/>
<path d="M4200 4470 c-8 -5 -10 -10 -5 -10 6 0 17 5 25 10 8 5 11 10 5 10 -5
0 -17 -5 -25 -10z"/>
<path d="M8985 4471 c-3 -5 0 -13 6 -17 7 -4 9 -3 5 4 -3 5 0 13 6 15 9 4 10
6 1 6 -6 1 -14 -3 -18 -8z"/>
<path d="M7776 4418 c3 -5 10 -6 15 -3 13 9 11 12 -6 12 -8 0 -12 -4 -9 -9z"/>
<path d="M8828 4372 c4 -11 7 -12 10 -4 3 10 7 10 20 0 14 -10 15 -10 5 2 -18
20 -43 22 -35 2z"/>
<path d="M4135 4351 c-3 -5 -2 -12 3 -15 5 -3 9 1 9 9 0 17 -3 19 -12 6z"/>
<path d="M8066 4296 c3 -9 13 -16 22 -16 8 0 13 1 11 3 -2 1 -12 9 -22 16 -15
12 -17 12 -11 -3z"/>
<path d="M8455 4260 c3 -5 8 -10 11 -10 2 0 4 5 4 10 0 6 -5 10 -11 10 -5 0
-7 -4 -4 -10z"/>
<path d="M8355 4250 c-3 -5 -1 -10 4 -10 6 0 11 5 11 10 0 6 -2 10 -4 10 -3 0
-8 -4 -11 -10z"/>
<path d="M3975 4220 c-3 -5 -1 -10 4 -10 6 0 11 5 11 10 0 6 -2 10 -4 10 -3 0
-8 -4 -11 -10z"/>
<path d="M6125 4211 c-3 -5 -2 -12 3 -15 5 -3 9 1 9 9 0 17 -3 19 -12 6z"/>
<path d="M5290 4200 c0 -5 5 -10 11 -10 5 0 7 5 4 10 -3 6 -8 10 -11 10 -2 0
-4 -4 -4 -10z"/>
<path d="M5455 4130 c-3 -5 -1 -10 4 -10 6 0 11 5 11 10 0 6 -2 10 -4 10 -3 0
-8 -4 -11 -10z"/>
<path d="M5975 4130 c-3 -6 1 -7 9 -4 18 7 21 14 7 14 -6 0 -13 -4 -16 -10z"/>
<path d="M1807 4065 c-21 -15 -22 -22 -3 -22 8 0 14 5 13 11 -1 6 6 10 16 8
20 -3 23 4 4 11 -7 3 -21 -1 -30 -8z"/>
<path d="M2995 4070 c3 -5 8 -10 11 -10 2 0 4 5 4 10 0 6 -5 10 -11 10 -5 0
-7 -4 -4 -10z"/>
<path d="M3600 4010 c-8 -5 -12 -11 -9 -14 2 -3 11 -1 19 4 8 5 12 11 9 14 -2
3 -11 1 -19 -4z"/>
<path d="M3110 4000 c-13 -8 -12 -10 3 -10 9 0 17 5 17 10 0 12 -1 12 -20 0z"/>
<path d="M3530 3970 c0 -5 5 -10 11 -10 5 0 7 5 4 10 -3 6 -8 10 -11 10 -2 0
-4 -4 -4 -10z"/>
<path d="M1050 3870 c0 -5 5 -10 11 -10 5 0 7 5 4 10 -3 6 -8 10 -11 10 -2 0
-4 -4 -4 -10z"/>
<path d="M1085 3853 c-5 -14 -4 -15 6 -6 9 9 18 9 33 2 20 -10 20 -10 2 5 -25
20 -32 20 -41 -1z"/>
<path d="M1320 3841 c0 -6 4 -13 10 -16 6 -3 7 1 4 9 -7 18 -14 21 -14 7z"/>
<path d="M8265 3802 c-2 -3 -17 -6 -32 -7 -44 -5 -89 -14 -120 -26 -15 -6 -30
-10 -33 -10 -42 6 -346 -147 -358 -180 -2 -5 -8 -9 -13 -9 -22 0 -170 -144
-238 -232 -88 -114 -192 -314 -217 -420 -2 -10 -6 -26 -8 -35 -2 -10 -9 -38
-15 -63 -31 -123 -33 -334 -6 -460 3 -14 7 -37 10 -52 3 -15 9 -38 14 -51 6
-14 7 -28 4 -31 -4 -3 -1 -6 6 -6 7 0 10 -4 7 -8 -5 -8 4 -30 50 -124 13 -27
21 -48 18 -48 -3 0 4 -10 16 -22 11 -12 20 -25 20 -30 0 -4 9 -17 20 -28 11
-11 16 -20 10 -20 -5 0 4 -13 20 -29 17 -15 30 -33 30 -40 0 -6 7 -11 16 -11
8 0 12 -4 9 -10 -3 -5 -2 -10 4 -10 5 0 13 -9 16 -20 4 -11 10 -18 15 -15 5 3
14 -4 20 -15 6 -11 17 -20 25 -20 8 0 15 -7 15 -15 0 -14 12 -19 33 -16 12 2
8 -17 -5 -23 -7 -3 -2 -3 11 0 17 5 21 3 16 -6 -6 -9 -4 -11 5 -5 7 4 16 2 21
-6 4 -8 12 -14 16 -15 22 -2 62 -28 56 -37 -4 -6 0 -8 10 -4 11 4 17 1 17 -9
0 -11 6 -13 21 -9 13 5 19 3 15 -3 -3 -5 4 -12 15 -15 12 -3 18 -10 15 -16 -4
-5 -1 -13 5 -17 8 -5 9 -3 4 6 -6 10 -4 12 9 7 10 -4 15 -3 11 3 -3 6 -2 10 3
10 5 0 14 -12 21 -27 l13 -27 18 24 19 25 -5 -30 c-2 -16 -1 -25 3 -20 5 6 18
16 31 23 18 10 22 10 20 0 -2 -7 3 -12 10 -10 10 2 12 -4 7 -20 -4 -14 -3 -18
2 -11 9 12 37 12 49 0 4 -4 14 -2 21 5 19 15 52 18 60 5 3 -6 1 -7 -5 -3 -12
7 -10 -20 3 -31 4 -4 6 -3 2 2 -3 6 1 18 8 28 11 16 13 16 19 2 3 -9 2 -13 -4
-10 -16 10 -11 -1 7 -16 10 -8 14 -9 10 -2 -4 6 -2 15 5 20 19 11 39 13 32 2
-3 -5 -11 -6 -17 -3 -8 5 -8 3 0 -6 21 -23 40 -20 37 5 -2 21 1 23 21 15 16
-6 25 -5 29 3 3 9 5 8 5 -1 1 -7 6 -10 13 -6 7 4 8 3 4 -5 -4 -6 -12 -8 -18
-5 -6 4 -8 3 -5 -3 5 -9 36 -9 82 0 11 2 24 -1 28 -7 6 -7 7 -4 3 7 -3 9 -1
17 5 17 6 0 7 5 3 12 -4 6 -3 8 4 4 5 -3 13 0 15 6 4 10 6 10 6 0 1 -7 6 -10
13 -6 7 4 8 3 4 -5 -4 -6 -12 -9 -17 -6 -5 3 -6 -1 -3 -10 5 -13 9 -12 25 6
10 12 16 26 12 32 -3 6 -1 7 5 3 6 -4 9 -13 6 -20 -3 -8 0 -17 7 -22 7 -4 10
-3 5 4 -3 6 -2 13 3 17 5 3 14 -3 20 -12 6 -10 11 -13 11 -6 0 6 -7 19 -16 27
-8 9 -11 16 -5 16 5 0 13 -4 16 -10 9 -15 25 -12 25 4 0 20 17 29 26 15 4 -8
3 -9 -4 -5 -8 5 -11 -1 -10 -18 1 -13 6 -22 10 -20 5 3 5 10 2 16 -5 7 0 9 13
6 12 -3 20 0 20 8 0 7 -5 10 -11 7 -6 -3 -5 0 2 8 8 9 15 10 20 4 4 -6 13 -11
20 -13 9 -1 7 6 -5 25 l-17 28 23 -22 c23 -24 37 -31 26 -13 -3 6 -1 10 5 10
6 0 9 4 5 9 -3 5 -1 12 4 16 6 3 8 -3 6 -15 -2 -11 1 -23 7 -26 6 -4 8 -3 5 2
-9 15 7 33 33 37 13 2 26 10 28 18 3 11 2 12 -6 1 -8 -11 -10 -11 -15 1 -6 16
9 17 32 3 10 -6 12 -5 7 3 -5 8 0 10 18 7 18 -3 26 0 26 10 0 8 5 14 10 14 6
0 10 5 10 10 0 16 -24 6 -32 -13 -8 -19 -28 -15 -28 6 0 8 3 8 9 -1 6 -11 9
-9 14 7 3 14 11 19 26 16 12 -2 25 3 31 13 5 9 10 12 10 6 0 -5 -5 -15 -11
-21 -8 -8 -7 -13 2 -18 8 -6 10 -4 5 4 -5 8 0 14 13 18 12 3 21 10 21 15 0 5
-6 6 -12 2 -14 -9 10 26 27 38 16 12 37 9 30 -4 -4 -7 2 -4 12 8 10 11 25 19
33 17 13 -4 13 -3 0 6 -10 7 -11 11 -2 11 6 0 12 5 12 11 0 5 -4 7 -10 4 -5
-3 -10 -1 -10 4 0 14 13 14 27 0 7 -7 12 -6 17 6 3 9 2 14 -3 11 -5 -3 -11 1
-15 9 -3 8 0 17 6 21 7 4 8 3 4 -4 -4 -7 -1 -12 8 -12 9 0 16 -6 16 -12 0 -7
7 -2 16 10 8 12 19 20 24 17 4 -3 7 3 6 12 0 10 5 18 12 18 6 0 12 3 12 8 0 4
0 12 0 18 0 6 -9 1 -20 -12 -14 -16 -12 -9 6 22 24 40 30 45 41 33 18 -17 24
-18 21 -1 -2 6 3 11 10 9 17 -3 15 15 -4 22 -8 3 -12 2 -9 -4 4 -6 -1 -7 -11
-3 -11 4 -13 8 -6 11 7 2 9 9 6 14 -4 7 -2 8 5 4 6 -4 20 -2 29 6 15 11 15 11
5 -3 -10 -13 -10 -16 1 -16 9 0 13 9 11 24 -2 19 1 23 14 18 12 -5 13 -4 4 6
-8 8 -9 18 -2 31 5 10 7 24 2 31 -4 6 4 5 18 -5 l26 -16 -1 48 c-1 33 3 46 11
43 6 -3 11 -10 9 -16 -1 -7 -1 -9 1 -4 3 4 9 5 14 1 5 -3 8 0 7 8 -2 7 3 12
10 10 10 -2 10 2 3 17 -6 10 -7 22 -3 26 4 5 2 5 -5 1 -7 -4 -10 -14 -7 -24 5
-15 4 -15 -6 -2 -10 13 -11 12 -5 -5 4 -14 3 -17 -5 -9 -14 14 -3 42 20 49 19
6 24 45 5 45 -5 0 -4 4 3 9 7 4 12 12 10 17 -2 5 2 9 7 9 6 0 8 -4 7 -10 -9
-26 -10 -45 -2 -50 5 -3 7 4 5 15 -3 13 2 20 13 21 10 0 12 3 5 5 -7 3 -9 12
-6 20 3 7 9 11 14 8 5 -3 6 2 3 10 -3 9 -10 16 -16 16 -5 0 -6 -4 -3 -10 3 -6
-1 -7 -10 -4 -14 6 -14 8 2 19 12 9 22 10 30 3 9 -7 11 -5 9 9 -2 10 1 29 7
43 15 37 18 60 8 60 -6 0 -8 -9 -6 -20 2 -11 -1 -22 -6 -26 -6 -3 -9 2 -8 12
2 11 0 25 -5 33 -6 10 -5 12 2 7 7 -4 12 -2 12 4 0 6 4 8 10 5 6 -3 7 1 4 10
-5 13 -9 13 -23 3 -14 -11 -14 -11 -4 3 7 9 11 18 8 21 -3 2 2 5 10 5 8 0 12
-4 9 -8 -2 -4 0 -10 5 -14 6 -3 8 6 5 21 -3 18 -1 23 7 18 8 -4 9 -3 5 5 -6 9
-12 9 -24 -1 -15 -11 -15 -11 -4 4 10 13 10 17 0 22 -7 3 -4 4 8 1 14 -4 21 0
21 9 0 9 -5 12 -10 9 -5 -3 -8 0 -5 8 3 8 10 14 16 14 5 0 13 3 17 7 4 3 -5 5
-20 4 -18 -2 -23 0 -16 7 7 7 7 16 0 30 -8 14 -8 18 0 12 8 -4 10 3 6 25 -5
29 -4 31 10 16 21 -21 31 -21 14 0 -10 13 -10 17 2 25 10 6 11 9 1 9 -7 0 -10
5 -6 12 4 7 3 8 -5 4 -6 -4 -9 -12 -6 -17 4 -5 1 -9 -4 -9 -15 0 -14 12 4 37
8 12 12 28 9 37 -4 10 -1 16 7 17 8 0 1 7 -16 14 -23 11 -26 14 -10 15 16 0
17 2 6 9 -8 5 -15 22 -16 38 -2 15 -4 28 -5 28 -1 0 -3 8 -5 18 -2 9 1 15 6
11 5 -3 9 -1 9 5 0 5 -6 11 -12 14 -10 3 -10 7 0 19 10 13 10 18 1 24 -8 4 -9
3 -5 -4 4 -7 2 -12 -3 -12 -17 0 -13 18 7 30 14 9 14 10 -6 5 -22 -6 -23 -5
-12 15 8 15 8 20 1 16 -7 -4 -11 1 -11 13 0 12 -6 21 -12 21 -9 0 -8 4 2 10
13 9 7 14 -12 11 -4 0 -5 6 -2 14 3 8 -1 21 -9 30 -8 8 -14 26 -13 39 2 16 -1
23 -10 19 -8 -3 -11 4 -10 22 2 14 1 23 -2 21 -6 -7 -32 20 -32 33 0 5 -7 17
-16 25 -8 9 -11 16 -5 16 6 0 11 4 11 10 0 5 -7 7 -15 4 -8 -4 -15 -1 -15 5 0
7 -13 26 -30 44 -16 18 -30 36 -30 41 0 4 -11 17 -25 28 -14 11 -22 25 -18 31
3 7 3 9 -1 5 -7 -6 -41 20 -98 75 -10 9 -22 17 -28 17 -5 0 -10 5 -10 10 0 6
-6 10 -13 10 -7 0 -23 9 -35 20 -12 11 -28 20 -37 20 -8 0 -15 4 -15 8 0 4
-12 13 -27 19 -130 52 -153 61 -153 56 0 -3 -7 0 -15 7 -9 7 -18 10 -21 7 -3
-3 -17 -2 -31 4 -13 5 -43 12 -66 15 -53 8 -265 12 -272 6z m1121 -977 c1 -14
-2 -25 -7 -25 -10 0 -12 33 -2 43 3 4 7 7 7 7 1 0 2 -11 2 -25z m-49 -424 c-1
-15 -4 -17 -14 -9 -7 5 -10 14 -7 19 10 16 23 9 21 -10z m-67 -131 c0 -5 -5
-10 -11 -10 -5 0 -7 5 -4 10 3 6 8 10 11 10 2 0 4 -4 4 -10z m-55 -138 c-3 -3
-11 0 -18 7 -9 10 -8 11 6 5 10 -3 15 -9 12 -12z m-186 -259 c-6 -7 -15 -10
-20 -7 -13 8 -3 21 15 21 12 0 13 -4 5 -14z m-89 -60 c0 -5 -5 -15 -10 -23 -7
-12 -9 -10 -7 8 1 19 17 33 17 15z m-87 -48 c-3 -9 -8 -14 -10 -11 -3 3 -2 9
2 15 9 16 15 13 8 -4z m-166 -110 c0 -8 -4 -15 -9 -15 -10 0 -11 14 -1 23 9
10 10 9 10 -8z m-797 -80 c0 -8 -2 -15 -4 -15 -2 0 -6 7 -10 15 -3 8 -1 15 4
15 6 0 10 -7 10 -15z m157 -32 c0 -9 -4 -10 -12 -3 -7 5 -15 7 -18 3 -4 -3 -7
-1 -7 5 0 6 8 10 18 9 10 0 19 -7 19 -14z m307 1 c3 -8 2 -12 -4 -9 -6 3 -10
10 -10 16 0 14 7 11 14 -7z m-31 -15 c-8 -8 -13 -7 -18 2 -5 8 -4 10 3 5 7 -4
12 -2 12 5 0 7 3 9 7 6 4 -4 2 -12 -4 -18z"/>
<path d="M5510 3661 c-314 -68 -597 -285 -777 -596 -174 -300 -221 -658 -126
-959 14 -44 32 -90 40 -103 8 -12 11 -28 7 -34 -4 -8 -3 -9 4 -5 7 4 12 2 12
-5 0 -6 18 -38 39 -69 22 -32 37 -61 33 -65 -4 -4 0 -5 8 -3 9 2 14 -4 14 -14
-1 -9 4 -14 11 -12 7 3 16 1 20 -5 3 -6 0 -11 -7 -12 -7 0 -3 -4 10 -10 14 -5
20 -13 16 -20 -5 -8 -3 -9 5 -4 13 8 51 -26 51 -45 0 -6 5 -8 10 -5 6 3 10 1
10 -4 0 -6 7 -11 17 -11 9 0 14 -3 10 -6 -3 -4 0 -13 8 -20 18 -19 31 -18 15
1 -9 10 -9 15 -1 15 6 0 11 -5 11 -10 0 -8 35 -29 60 -35 15 -3 57 -30 68 -44
8 -9 11 -11 8 -4 -4 6 -1 15 5 19 8 4 9 3 5 -4 -4 -7 -2 -12 4 -12 6 0 8 -5 5
-10 -3 -5 -1 -10 5 -10 6 0 8 -5 4 -12 -5 -9 -2 -9 9 1 9 7 17 10 17 6 0 -4 7
-1 17 6 15 13 15 12 3 -11 -13 -25 -13 -25 8 -7 15 14 22 15 28 6 5 -8 3 -10
-6 -4 -9 6 -11 4 -6 -4 5 -7 10 -10 14 -7 3 3 11 -2 19 -12 13 -15 13 -15 3 6
-6 12 -7 22 -3 22 4 0 1 5 -7 11 -13 9 -13 10 0 6 8 -2 14 -10 12 -16 -3 -15
21 -14 37 2 11 10 12 9 6 -2 -6 -11 -4 -13 11 -7 15 6 14 2 -6 -21 -21 -23
-21 -25 -3 -9 21 17 23 18 29 2 5 -14 9 -15 15 -4 13 19 11 36 -2 18 -9 -12
-10 -12 -5 3 3 10 6 21 6 23 0 2 5 4 11 4 5 0 8 -3 5 -8 -2 -4 2 -18 10 -32 7
-14 13 -19 14 -12 0 7 5 10 12 6 7 -4 8 -3 4 5 -4 6 -12 9 -17 6 -5 -4 -9 -1
-9 4 0 14 6 14 31 1 24 -13 25 -2 2 17 -15 11 -12 11 12 -1 22 -10 36 -11 49
-4 10 6 16 7 13 2 -3 -5 1 -18 9 -29 8 -10 14 -13 14 -6 0 7 4 9 10 6 6 -3 7
1 3 10 -5 13 -7 14 -14 3 -5 -7 -9 -8 -9 -3 0 6 4 16 9 23 7 11 9 11 14 -1 4
-10 13 -13 27 -10 13 4 26 0 31 -8 6 -10 9 -8 9 9 0 13 4 21 9 17 6 -3 14 3
20 12 6 10 11 13 11 6 0 -15 29 -10 42 8 8 11 9 11 5 -3 -3 -9 1 -19 9 -22 9
-3 12 -1 9 4 -3 6 -1 10 4 10 6 0 11 7 11 16 0 8 4 13 9 9 5 -3 12 -1 15 4 3
5 21 5 41 1 24 -5 33 -5 28 3 -4 6 0 8 10 4 8 -3 21 0 27 8 6 7 19 12 29 10
11 -2 17 4 18 17 1 12 7 26 14 32 9 8 10 8 5 -1 -4 -7 -2 -13 3 -13 6 0 11 5
11 11 0 7 9 9 23 6 21 -6 21 -6 3 8 -19 14 -18 15 10 16 16 1 35 1 42 0 6 -1
12 3 12 9 0 6 -4 9 -9 5 -6 -3 -9 4 -8 14 1 18 3 19 17 6 19 -17 31 -10 23 11
-3 9 1 14 12 14 10 0 14 -5 9 -12 -4 -8 -3 -10 2 -5 5 5 10 13 10 18 3 22 5
23 14 9 8 -13 10 -12 10 3 0 10 4 16 8 13 8 -5 12 9 13 49 0 16 2 17 10 5 8
-13 11 -13 23 3 8 10 17 18 20 18 23 -3 26 1 9 17 -10 9 -12 13 -4 7 12 -8 13
-6 7 10 -4 11 -4 16 0 12 4 -4 14 2 22 14 8 11 20 18 27 15 18 -6 38 17 25 30
-6 6 -6 15 0 24 7 10 10 11 10 3 0 -7 4 -13 10 -13 5 0 7 6 4 14 -3 8 0 17 6
21 8 5 7 11 -2 23 -11 13 -11 14 2 7 21 -13 39 -15 45 -5 3 5 0 12 -6 16 -8 4
-9 3 -5 -4 5 -8 1 -10 -10 -5 -15 5 -15 7 0 15 9 5 14 14 10 19 -3 5 -2 8 3 7
4 -2 9 2 11 7 2 6 10 17 18 26 11 12 11 18 1 29 -10 12 -9 12 6 1 12 -10 14
-17 7 -26 -5 -6 -6 -16 -2 -20 4 -5 1 -5 -7 0 -10 5 -12 4 -7 -4 4 -6 12 -9
17 -5 5 3 7 9 4 13 -2 5 7 19 20 31 14 13 25 28 25 33 0 5 -9 -1 -20 -14 -10
-13 -19 -19 -20 -13 0 5 10 21 23 34 12 14 23 28 23 32 1 5 2 13 3 19 0 5 6 7
13 3 7 -4 8 -3 4 5 -4 6 -13 9 -19 5 -7 -3 -4 1 6 9 19 16 24 32 5 21 -7 -4
-8 -3 -4 5 4 6 11 9 16 6 16 -10 19 25 2 35 -16 11 -16 11 1 6 9 -3 17 -1 17
4 0 5 -8 14 -17 20 -17 11 -17 11 0 6 26 -8 47 3 40 21 -4 10 -2 14 5 9 6 -3
14 -1 18 5 4 7 3 9 -3 6 -6 -4 -18 0 -28 7 -14 10 -15 15 -5 21 9 5 11 4 6 -3
-4 -7 -1 -12 9 -12 13 0 14 4 4 23 -12 21 -11 21 6 7 13 -10 16 -11 11 -2 -5
8 -1 21 8 31 15 17 15 19 -1 32 -16 13 -17 12 -5 -3 8 -9 9 -19 4 -22 -15 -9
-21 29 -7 47 7 9 15 14 18 10 4 -3 7 -1 7 5 0 7 -5 12 -11 12 -6 0 -9 7 -6 15
4 8 2 17 -3 20 -11 7 -2 35 10 35 5 0 7 -9 5 -20 -2 -11 0 -20 6 -20 5 0 7 10
5 23 -2 12 6 35 17 51 13 18 15 26 6 21 -21 -14 -38 -15 -46 -3 -3 7 -1 8 5 4
7 -4 12 -2 12 4 0 6 4 9 9 5 5 -3 13 0 17 6 4 7 3 9 -4 5 -6 -3 -14 -1 -18 6
-11 17 -12 48 -2 42 4 -3 8 0 8 7 0 8 5 7 18 -2 15 -13 16 -12 4 3 -8 10 -19
16 -24 15 -6 -1 -11 8 -13 20 -1 14 3 19 12 16 7 -3 13 -1 13 5 0 5 -6 12 -14
15 -14 6 -16 30 -3 43 3 4 5 -3 2 -15 -2 -11 0 -21 6 -21 5 0 7 11 5 25 -3 16
1 29 12 36 16 10 16 10 0 5 -10 -3 -18 -1 -18 5 0 6 -4 8 -8 5 -4 -2 -8 5 -9
17 0 12 1 16 4 9 3 -6 9 -9 15 -6 6 4 1 12 -13 20 -13 7 -18 13 -11 14 6 0 12
5 12 11 0 5 -5 7 -12 3 -6 -4 -8 -3 -4 4 3 6 2 13 -3 16 -11 7 -8 53 4 64 5 4
5 -2 1 -13 -6 -16 -5 -18 5 -7 11 10 10 16 -5 30 -11 9 -16 12 -12 5 3 -6 2
-14 -3 -17 -5 -3 -8 7 -7 23 1 17 -1 28 -5 25 -4 -2 -10 3 -13 12 -10 25 -7
36 7 29 6 -4 3 1 -7 9 -11 9 -16 16 -10 16 5 0 1 5 -8 11 -10 5 -15 16 -12 24
4 8 1 15 -5 15 -6 0 -11 9 -11 19 0 11 -3 21 -7 23 -5 2 -19 23 -33 48 -27 51
-36 63 -67 92 -12 12 -20 25 -17 30 3 4 1 8 -4 8 -6 0 -33 22 -61 49 -28 27
-51 47 -51 44 0 -2 -12 4 -27 15 -166 116 -399 159 -613 113z m990 -1011 c0
-5 -8 -10 -17 -10 -15 0 -16 2 -3 10 19 12 20 12 20 0z m-50 -180 c0 -5 -5
-10 -11 -10 -5 0 -7 5 -4 10 3 6 8 10 11 10 2 0 4 -4 4 -10z m-24 -96 c1 -9 0
-13 -4 -10 -3 4 -7 14 -8 22 -1 9 0 13 4 10 3 -4 7 -14 8 -22z m-59 -161 c0
-7 -4 -13 -8 -13 -4 0 -9 6 -12 13 -3 8 0 14 7 14 7 0 13 -6 13 -14z m-34 -28
c-3 -9 -8 -14 -10 -11 -3 3 -2 9 2 15 9 16 15 13 8 -4z m-123 -231 c0 -8 -19
-13 -24 -6 -3 5 1 9 9 9 8 0 15 -2 15 -3z m-100 -81 c0 -5 -5 -15 -10 -23 -7
-12 -9 -10 -7 8 1 19 17 33 17 15z m-54 -58 c-2 -14 -46 -53 -46 -41 0 3 0 9
0 14 0 4 5 8 10 8 6 1 15 2 20 3 6 0 9 4 9 9 -2 11 1 22 5 22 2 0 3 -7 2 -15z
m-73 -50 c-7 -21 -12 -19 -10 4 0 11 5 18 9 15 4 -3 5 -11 1 -19z m-46 -40 c0
-8 -4 -12 -9 -9 -5 3 -6 10 -3 15 9 13 12 11 12 -6z m-82 -35 c-3 -5 -12 -10
-18 -10 -7 0 -6 4 3 10 19 12 23 12 15 0z m-19 -35 c-3 -20 -16 -31 -16 -13 0
13 8 28 16 28 1 0 1 -7 0 -15z m-30 -7 c-3 -22 -17 -39 -27 -33 -15 10 -10 25
6 18 9 -3 15 -2 14 3 -2 13 0 24 5 24 2 0 3 -6 2 -12z m-55 -25 c13 -16 12
-17 -3 -4 -10 7 -18 15 -18 17 0 8 8 3 21 -13z m-601 -51 c0 -5 -7 -9 -15 -9
-8 0 -12 4 -9 9 3 4 9 8 15 8 5 0 9 -4 9 -8z"/>
<path d="M3198 3564 c-390 -67 -754 -414 -903 -859 -15 -44 -29 -91 -32 -105
-2 -14 -9 -43 -14 -65 -5 -22 -12 -103 -15 -180 -5 -119 -3 -156 15 -241 11
-56 28 -114 36 -130 8 -16 15 -33 15 -38 0 -5 14 -31 30 -58 17 -27 28 -53 25
-59 -4 -5 0 -9 8 -9 13 0 28 -21 31 -42 1 -3 5 -10 10 -15 6 -5 6 -2 1 7 -5 8
14 -7 42 -34 28 -28 49 -55 46 -63 -3 -7 0 -13 7 -13 6 0 8 5 5 10 -3 6 -1 10
4 10 6 0 11 -5 11 -10 0 -6 3 -9 8 -8 13 3 72 -38 65 -46 -4 -4 1 -4 12 0 15
6 17 4 12 -11 -6 -15 -5 -16 7 -6 10 8 16 9 21 1 3 -6 11 -7 17 -4 7 4 8 2 4
-4 -4 -7 -1 -12 9 -12 10 0 13 5 9 13 -4 6 2 4 13 -6 11 -10 27 -15 37 -11 9
3 16 1 16 -5 0 -6 -3 -10 -7 -10 -18 3 -33 -2 -33 -10 0 -10 14 -9 42 4 10 4
15 12 11 18 -3 6 -1 7 6 3 9 -6 9 -11 0 -22 -7 -9 -8 -14 -3 -13 5 1 11 0 14
-1 19 -7 39 -7 34 1 -3 5 -10 7 -15 4 -5 -4 -9 -1 -9 4 0 6 5 11 11 11 5 0 7
5 3 12 -4 7 -3 8 5 4 6 -4 9 -12 5 -17 -8 -13 28 -7 39 6 5 6 7 4 4 -5 -2 -8
-10 -14 -17 -12 -11 3 -11 0 0 -12 7 -9 18 -16 24 -16 6 0 4 5 -4 11 -12 8 -9
10 12 6 19 -3 25 0 21 10 -3 7 -10 10 -16 6 -6 -4 -7 -1 -3 6 6 10 12 9 24 -2
26 -21 46 -32 38 -19 -3 6 -2 13 4 17 5 3 10 -1 10 -10 0 -12 4 -13 18 -6 11
6 24 6 36 -1 15 -8 17 -8 11 2 -6 10 -4 12 8 7 9 -3 19 -2 22 4 4 5 11 7 16 4
5 -4 9 -1 9 5 0 7 -7 9 -16 6 -8 -3 -12 -2 -9 4 3 5 19 8 35 6 17 -2 38 3 47
10 15 11 22 10 43 -3 14 -9 22 -12 18 -8 -8 9 15 35 31 35 6 0 11 7 11 15 0 8
4 15 9 15 6 0 8 -8 6 -18 -2 -11 3 -19 11 -19 11 0 11 3 1 16 -10 12 -9 14 6
8 11 -4 20 -1 23 8 4 8 11 12 17 8 6 -4 7 -1 2 7 -6 10 -4 12 9 7 14 -5 17 -3
12 8 -3 8 -1 15 5 15 6 0 7 5 4 10 -3 6 -1 10 5 10 6 0 8 -11 6 -25 -3 -15 -1
-23 5 -20 5 4 7 11 4 16 -6 8 16 14 38 10 5 -1 6 3 2 9 -3 6 -12 8 -18 4 -7
-3 -5 0 4 8 9 7 14 20 12 28 -4 13 -3 13 6 0 10 -13 11 -13 12 0 1 8 1 18 0
23 0 4 4 7 10 7 6 0 8 -7 5 -15 -3 -8 -9 -23 -12 -32 -5 -16 -4 -16 8 -2 7 9
18 17 23 18 6 1 9 8 7 16 -1 7 3 17 9 21 8 5 9 3 4 -5 -10 -17 27 2 44 23 10
12 9 17 -6 26 -15 9 -14 10 7 4 23 -6 24 -6 10 12 -14 17 -14 18 2 6 14 -11
21 -11 41 3 14 9 28 23 31 31 3 9 10 13 15 10 11 -7 9 13 -3 32 -7 11 -4 12
12 3 29 -16 34 -14 27 9 -5 16 -3 19 12 14 16 -6 15 -5 -2 9 -19 16 -19 16 9
11 26 -4 27 -3 12 11 -9 9 -16 21 -16 26 0 6 7 3 16 -5 14 -14 34 -14 34 0 0
3 -4 3 -9 0 -5 -3 -11 0 -14 8 -4 11 0 13 17 10 15 -2 23 1 23 11 0 10 -6 13
-19 9 -10 -3 -18 -1 -18 5 0 6 3 10 8 10 22 -4 52 2 52 10 0 6 -10 8 -21 6
-12 -3 -18 -1 -15 3 4 4 13 7 19 7 7 1 11 7 9 14 -1 7 2 10 8 6 6 -3 8 -12 4
-18 -3 -7 6 1 20 17 14 17 23 33 21 37 -3 4 2 13 11 20 14 12 14 14 -2 26 -11
8 -13 13 -5 13 8 0 11 6 7 16 -3 8 -2 13 3 9 5 -3 11 0 13 5 2 6 12 13 23 15
11 2 21 4 23 4 1 1 -2 11 -9 23 -10 18 -9 20 5 15 8 -3 18 -1 22 5 5 7 2 8 -6
3 -9 -5 -10 -2 -5 14 5 17 3 20 -12 15 -17 -5 -17 -5 -1 8 9 7 25 19 35 26 10
7 12 10 4 6 -11 -5 -13 -3 -8 10 4 10 7 20 7 22 0 2 8 4 18 4 14 0 15 2 2 9
-8 6 -18 7 -24 4 -5 -4 -2 4 7 16 8 13 13 29 11 36 -3 7 -1 16 4 19 9 6 8 -36
-2 -52 -3 -5 0 -9 7 -9 17 0 15 66 -2 76 -10 6 -9 10 4 14 9 4 13 3 10 -3 -3
-6 -2 -10 3 -10 14 0 21 35 11 53 -6 10 -5 18 2 23 7 4 9 3 5 -4 -3 -6 -1 -14
5 -18 7 -4 9 -3 5 4 -3 6 -2 13 4 17 5 3 10 12 10 18 0 8 -3 8 -9 -2 -11 -18
-25 3 -26 40 -1 21 4 26 20 24 18 -1 21 4 20 37 0 23 -6 43 -15 48 -11 7 -11
10 -2 10 8 0 10 5 6 12 -11 17 -12 48 -2 42 11 -7 10 3 -3 28 -6 12 -7 18 -1
14 5 -3 15 1 22 9 11 13 10 14 -6 9 -16 -6 -17 -5 -6 7 6 7 12 17 12 22 0 5
-6 5 -12 -1 -10 -8 -13 -5 -13 13 0 19 3 21 14 12 10 -9 9 -2 -3 22 -10 18
-13 30 -8 27 6 -4 8 2 5 14 -3 13 0 20 8 20 9 1 6 5 -6 13 -11 7 -21 17 -22
22 -1 6 -5 19 -9 30 -7 18 -6 18 9 6 10 -8 17 -9 17 -3 0 6 -9 14 -20 17 -11
4 -18 11 -14 16 3 5 11 6 17 2 8 -5 8 -2 0 9 -7 8 -9 19 -5 23 4 5 1 5 -6 1
-7 -4 -9 -12 -6 -18 4 -6 2 -8 -4 -5 -5 4 -8 16 -5 27 3 11 1 20 -4 20 -5 0
-17 23 -27 50 -10 28 -22 50 -27 50 -5 0 -8 3 -7 8 4 15 -13 50 -27 56 -8 3
-15 11 -15 18 0 7 -9 19 -21 26 -12 8 -18 19 -15 28 3 8 1 12 -4 9 -5 -3 -15
3 -22 15 -7 11 -17 20 -23 20 -6 0 -18 8 -27 18 -25 26 -38 34 -104 69 -112
59 -266 81 -406 57z m765 -589 c-3 -9 -8 -14 -10 -11 -3 3 -2 9 2 15 9 16 15
13 8 -4z m17 -279 c0 -2 -7 -7 -16 -10 -8 -3 -12 -2 -9 4 6 10 25 14 25 6z
m-3 -29 c0 -8 -6 -14 -14 -14 -9 0 -10 4 -2 14 6 7 12 13 14 13 1 0 2 -6 2
-13z m-33 -145 c3 -5 -1 -9 -9 -9 -8 0 -12 4 -9 9 3 4 7 8 9 8 2 0 6 -4 9 -8z
m-54 -151 c0 -6 -4 -12 -8 -15 -5 -3 -9 1 -9 9 0 8 4 15 9 15 4 0 8 -4 8 -9z
m-34 -133 c3 -4 -1 -5 -10 -4 -8 1 -18 5 -22 8 -3 4 1 5 10 4 8 -1 18 -5 22
-8z m-79 -139 c-11 -17 -12 -17 -21 -2 -6 11 -5 18 2 21 7 2 9 9 5 15 -4 7 0
6 10 -1 13 -11 14 -17 4 -33z m-150 -156 c-4 -3 -1 -13 6 -22 11 -14 10 -14
-5 -2 -16 12 -16 31 -1 31 4 0 3 -3 0 -7z m-32 -62 c-3 -6 -11 -11 -16 -11 -5
0 -4 6 3 14 14 16 24 13 13 -3z m-30 -31 c-27 -12 -43 -12 -25 0 8 5 22 9 30
9 10 0 8 -3 -5 -9z m-65 -60 c0 -5 -6 -12 -12 -16 -7 -4 -10 -4 -6 1 4 4 3 14
-4 22 -8 11 -7 12 6 7 9 -3 16 -10 16 -14z m-50 -10 c0 -5 -5 -10 -11 -10 -5
0 -7 5 -4 10 3 6 8 10 11 10 2 0 4 -4 4 -10z m-80 -60 c0 -5 -5 -10 -11 -10
-5 0 -7 5 -4 10 3 6 8 10 11 10 2 0 4 -4 4 -10z m-80 -50 c0 -5 -5 -10 -11
-10 -5 0 -7 5 -4 10 3 6 8 10 11 10 2 0 4 -4 4 -10z m-19 -27 c13 -16 12 -17
-3 -4 -17 13 -22 21 -14 21 2 0 10 -8 17 -17z m-89 -37 c7 4 8 2 4 -5 -9 -13
-26 -5 -25 12 0 9 2 8 6 -1 2 -6 10 -9 15 -6z m-202 -36 c0 -5 -5 -10 -11 -10
-5 0 -7 5 -4 10 3 6 8 10 11 10 2 0 4 -4 4 -10z m54 -6 c5 -14 4 -15 -9 -4
-17 14 -19 20 -6 20 5 0 12 -7 15 -16z"/>
<path d="M1075 3454 c-380 -80 -733 -428 -880 -869 -20 -60 -43 -146 -51 -190
-15 -82 -21 -269 -10 -321 3 -16 8 -45 12 -64 10 -59 15 -72 55 -158 29 -63
37 -74 73 -114 15 -17 16 -22 5 -30 -11 -8 -10 -9 3 -4 17 5 33 -9 33 -29 0
-5 7 -10 17 -10 9 0 28 -10 42 -22 14 -13 31 -23 36 -23 6 0 10 -3 10 -7 0 -5
9 -19 20 -33 11 -14 18 -18 14 -9 -3 10 0 20 7 25 8 5 10 3 4 -6 -6 -10 -3
-12 13 -8 17 5 20 2 17 -21 -2 -14 -2 -20 1 -14 4 10 11 10 25 2 28 -15 61
-20 54 -8 -4 5 -1 9 5 9 6 0 8 5 4 12 -4 7 -3 8 4 4 7 -4 22 -9 33 -11 29 -6
33 -11 14 -19 -9 -3 -14 -2 -11 2 2 4 -4 9 -15 9 -15 1 -17 -1 -7 -11 14 -13
60 -17 52 -4 -3 5 5 6 18 4 13 -2 22 -10 20 -17 -2 -9 0 -10 11 -1 8 7 18 8
22 4 5 -4 5 -1 1 6 -5 8 0 12 14 12 14 0 19 -4 14 -12 -7 -13 45 29 57 46 4 5
10 -1 14 -13 3 -11 11 -21 16 -21 6 0 5 9 -2 23 -11 21 -11 21 17 -3 16 -14
26 -21 22 -16 -4 5 0 15 10 23 16 12 16 13 0 7 -11 -4 -18 -1 -18 7 0 7 3 9 7
5 4 -3 13 4 20 16 13 22 14 22 8 1 -3 -12 -1 -25 6 -29 8 -4 9 -3 5 4 -10 16
7 15 23 -1 11 -10 11 -8 2 10 -14 27 -14 44 0 21 5 -9 16 -15 24 -12 8 4 12
10 9 15 -3 5 -9 7 -13 5 -4 -3 -8 2 -8 10 0 10 4 11 11 4 12 -12 29 -14 22 -2
-2 4 4 8 14 9 10 1 21 -5 24 -13 3 -8 11 -14 18 -14 9 0 9 3 -2 10 -12 8 -12
10 2 15 10 4 21 4 27 1 5 -4 13 -1 17 5 4 8 3 9 -4 5 -7 -4 -12 -2 -12 4 0 6
-4 8 -10 5 -6 -3 -7 1 -3 10 3 10 8 13 12 6 4 -5 16 -9 27 -9 21 2 25 22 9 48
-7 12 -6 13 6 3 11 -9 19 -8 34 3 17 13 18 16 5 24 -9 6 -10 10 -3 10 26 0 25
-24 -1 -45 -18 -15 -22 -22 -12 -22 9 0 16 5 16 11 0 6 5 4 11 -4 8 -12 9 -11
7 5 -2 14 2 20 15 19 17 -2 17 0 2 22 -18 28 -9 32 12 7 14 -17 14 -17 9 -1
-5 16 10 23 44 20 3 0 7 9 7 20 2 19 1 19 -11 3 -10 -15 -14 -15 -24 -2 -10
11 -9 17 5 28 16 13 17 12 5 -3 -8 -10 -9 -19 -3 -22 5 -4 13 4 16 15 7 20 8
20 17 6 5 -10 14 -17 21 -17 8 0 8 3 -1 9 -11 7 -11 9 2 14 8 3 16 1 19 -6 2
-6 6 -4 10 5 4 13 1 16 -19 12 -13 -2 -24 0 -24 6 0 6 5 8 12 4 8 -5 9 -2 4
11 -5 14 -4 15 7 7 15 -12 58 -12 51 0 -3 5 5 12 18 17 20 8 20 10 4 10 -19 1
-19 1 -1 15 17 13 17 14 1 23 -17 9 -17 11 -2 16 10 4 15 3 12 -2 -3 -5 1 -11
9 -14 10 -4 12 -1 8 10 -5 12 -2 15 8 11 12 -5 15 1 12 26 -2 22 -1 26 5 13 8
-18 9 -18 22 -1 12 14 12 16 1 10 -9 -6 -12 -5 -9 4 2 8 14 14 26 15 12 1 25
5 29 10 5 4 1 6 -9 2 -10 -3 -23 3 -34 16 -10 12 -12 16 -4 10 18 -17 33 -17
24 0 -5 8 -2 7 9 -2 16 -12 17 -12 10 5 -6 17 -5 18 13 4 17 -14 18 -14 6 2
-10 12 -11 22 -3 36 6 11 8 22 5 25 -8 8 69 67 79 60 6 -4 7 -1 3 6 -5 7 0 22
11 34 15 19 16 20 1 8 -13 -10 -18 -10 -18 -2 0 7 -5 9 -12 5 -7 -4 -5 2 5 13
14 16 15 22 5 26 -7 3 -3 4 9 4 17 -1 19 -4 11 -14 -14 -18 0 -17 18 1 12 13
12 15 -4 20 -10 4 -19 14 -19 22 0 14 2 14 14 -2 10 -13 13 -14 13 -3 0 12 2
12 11 -1 9 -13 10 -12 5 2 -3 10 -1 20 4 23 15 9 12 27 -2 22 -7 -2 -12 -10
-11 -16 2 -6 -1 -11 -6 -11 -6 0 -9 9 -8 19 0 11 4 19 7 19 21 -2 30 5 30 23
0 15 -5 19 -16 15 -9 -3 -12 -2 -9 5 4 5 14 9 23 8 10 -1 24 -1 32 0 13 1 13
3 0 10 -8 6 -19 7 -25 5 -5 -3 -2 1 8 10 13 10 17 21 12 37 -6 18 -4 21 11 15
18 -6 18 -5 0 9 -18 14 -18 15 -2 15 9 0 15 4 11 10 -3 5 -13 7 -23 4 -15 -5
-15 -4 1 6 15 10 16 14 5 28 -7 9 -8 14 -4 10 5 -4 16 -2 25 5 14 11 14 10 2
-5 -19 -24 -5 -23 22 3 14 12 16 18 6 14 -9 -3 -22 2 -30 11 -12 16 -12 17 3
12 22 -9 31 2 16 19 -9 11 -9 16 1 22 10 7 10 9 -1 13 -7 3 -14 19 -15 34 -1
23 0 25 6 10 7 -19 8 -19 16 0 4 10 7 25 6 32 -1 8 3 20 10 28 6 8 9 17 5 21
-3 3 -6 1 -6 -5 0 -6 -10 -16 -22 -22 -22 -11 -22 -10 -4 4 15 12 17 18 7 30
-8 10 -9 16 -1 21 5 3 10 13 10 21 0 8 -4 13 -8 10 -12 -7 -10 38 2 47 8 6 7
10 -1 14 -7 2 -13 9 -13 14 0 6 3 8 8 6 4 -3 8 6 8 19 2 18 -1 22 -10 15 -8
-6 -11 -3 -12 12 -1 12 -4 32 -7 44 -3 13 -2 25 4 28 5 4 9 12 9 18 0 7 -4 6
-10 -3 -9 -13 -10 -13 -11 0 -1 8 -1 21 0 29 2 7 -2 11 -6 8 -5 -3 -10 4 -10
15 -1 12 -8 25 -15 29 -7 5 -9 9 -4 9 5 0 3 7 -4 15 -6 8 -9 18 -6 24 3 5 -1
12 -10 15 -9 4 -14 13 -10 22 3 8 2 12 -4 9 -6 -3 -10 -2 -10 3 0 5 -11 21
-25 36 -14 15 -22 33 -19 39 4 7 4 9 -1 5 -4 -4 -28 11 -54 33 -91 81 -203
120 -336 118 -44 -1 -89 -3 -100 -5z m591 -1006 c4 -7 3 -8 -4 -4 -7 4 -12 2
-12 -5 0 -7 -3 -10 -6 -6 -6 5 3 27 11 27 2 0 7 -5 11 -12z m-92 -241 c4 4 4
0 0 -10 -8 -22 -11 -22 -25 6 -11 19 -10 20 3 10 8 -7 18 -10 22 -6z m-34 -37
c-8 -5 -19 -10 -25 -10 -5 0 -3 5 5 10 8 5 20 10 25 10 6 0 3 -5 -5 -10z
m-147 -205 c-3 -9 -8 -14 -10 -11 -3 3 -2 9 2 15 9 16 15 13 8 -4z m-48 -73
c-1 -25 -15 -43 -26 -37 -16 10 -10 25 8 18 11 -4 14 -3 9 5 -4 7 -4 17 -1 22
9 14 12 12 10 -8z m-250 -201 c3 -5 0 -13 -6 -17 -7 -4 -9 -3 -5 4 3 5 0 13
-6 15 -9 4 -10 6 -1 6 6 1 14 -3 18 -8z m-645 -91 c0 -5 -2 -10 -4 -10 -3 0
-8 5 -11 10 -3 6 -1 10 4 10 6 0 11 -4 11 -10z m81 -29 c2 2 12 -2 23 -8 12
-7 15 -13 7 -17 -6 -4 -11 -2 -11 3 0 6 -3 10 -7 10 -22 -4 -33 3 -33 19 0 13
2 14 9 4 4 -8 10 -12 12 -11z m254 -1 c-3 -5 -12 -10 -18 -10 -7 0 -6 4 3 10
19 12 23 12 15 0z m-35 -17 c0 -2 -6 -3 -12 -2 -27 3 -39 -1 -32 -13 5 -7 3
-8 -7 -2 -8 5 -17 9 -21 9 -3 0 -10 3 -14 7 -3 4 2 6 13 4 11 -3 26 -1 33 4
12 8 40 3 40 -7z"/>
<path d="M1704 3015 c1 -8 8 -21 16 -28 12 -10 12 -9 2 4 -6 9 -9 18 -6 21 3
3 1 9 -4 12 -6 3 -9 -1 -8 -9z"/>
<path d="M9369 2947 c6 -8 7 -18 3 -22 -4 -5 -1 -5 6 -1 10 6 10 11 1 22 -6 8
-14 14 -16 14 -3 0 0 -6 6 -13z"/>
<path d="M9375 2900 c3 -5 8 -10 11 -10 2 0 4 5 4 10 0 6 -5 10 -11 10 -5 0
-7 -4 -4 -10z"/>
<path d="M1727 2855 c3 -8 9 -12 14 -9 12 7 11 11 -5 17 -10 4 -13 1 -9 -8z"/>
<path d="M3980 2813 c0 -6 8 -17 18 -24 16 -13 16 -13 2 6 -8 11 -16 22 -17
24 -2 2 -3 0 -3 -6z"/>
<path d="M1728 2793 c7 -3 16 -2 19 1 4 3 -2 6 -13 5 -11 0 -14 -3 -6 -6z"/>
<path d="M6496 2781 c-4 -5 3 -7 14 -4 23 6 26 13 6 13 -8 0 -17 -4 -20 -9z"/>
<path d="M3976 2765 c-3 -8 -1 -15 4 -15 6 0 10 7 10 15 0 8 -2 15 -4 15 -2 0
-6 -7 -10 -15z"/>
<path d="M3990 2730 c0 -5 5 -10 11 -10 5 0 7 5 4 10 -3 6 -8 10 -11 10 -2 0
-4 -4 -4 -10z"/>
<path d="M6496 2725 c-3 -8 -1 -15 4 -15 6 0 10 7 10 15 0 8 -2 15 -4 15 -2 0
-6 -7 -10 -15z"/>
<path d="M9384 2690 c0 -13 4 -16 10 -10 7 7 7 13 0 20 -6 6 -10 3 -10 -10z"/>
<path d="M1730 2690 c0 -5 5 -10 11 -10 5 0 7 5 4 10 -3 6 -8 10 -11 10 -2 0
-4 -4 -4 -10z"/>
<path d="M1718 2663 c7 -3 16 -2 19 1 4 3 -2 6 -13 5 -11 0 -14 -3 -6 -6z"/>
<path d="M3959 2623 c0 -5 -2 -16 -4 -26 -3 -14 0 -16 9 -8 7 6 16 7 21 3 4
-4 2 3 -4 16 -12 22 -20 28 -22 15z"/>
<path d="M1715 2529 c-4 -6 -5 -12 -2 -15 2 -3 7 2 10 11 7 17 1 20 -8 4z"/>
<path d="M6470 2516 c0 -2 7 -7 16 -10 8 -3 12 -2 9 4 -6 10 -25 14 -25 6z"/>
<path d="M6430 2325 c0 -8 2 -15 4 -15 2 0 6 7 10 15 3 8 1 15 -4 15 -6 0 -10
-7 -10 -15z"/>
<path d="M3890 2309 c0 -5 5 -7 10 -4 6 3 10 8 10 11 0 2 -4 4 -10 4 -5 0 -10
-5 -10 -11z"/>
<path d="M3820 2190 c-9 -16 -8 -19 6 -13 13 5 15 3 9 -7 -5 -9 -4 -11 4 -6 9
6 9 11 1 21 -8 10 -7 14 2 18 9 4 10 6 1 6 -7 1 -17 -8 -23 -19z"/>
<path d="M1530 2133 c-8 -10 -16 -31 -17 -48 -2 -27 -1 -28 10 -10 6 11 12 25
13 30 0 6 2 16 2 23 1 7 7 10 14 6 7 -4 8 -3 4 4 -9 15 -9 15 -26 -5z"/>
<path d="M9187 2086 c-4 -10 -1 -13 9 -9 7 3 14 9 14 14 0 14 -17 10 -23 -5z"/>
<path d="M6285 2070 c-3 -5 -2 -10 4 -10 5 0 13 5 16 10 3 6 2 10 -4 10 -5 0
-13 -4 -16 -10z"/>
<path d="M6245 2010 c-3 -5 -2 -10 4 -10 5 0 13 5 16 10 3 6 2 10 -4 10 -5 0
-13 -4 -16 -10z"/>
<path d="M9085 1959 c-4 -6 -2 -16 5 -22 10 -9 11 -9 6 0 -3 6 -1 13 6 15 9 3
9 6 1 11 -7 4 -15 2 -18 -4z"/>
<path d="M6160 1909 c-12 -22 -8 -35 9 -25 6 4 7 14 4 23 -5 12 -3 14 7 8 9
-5 11 -4 6 3 -10 16 -14 15 -26 -9z"/>
<path d="M3535 1799 c-4 -6 -5 -12 -2 -15 2 -3 7 2 10 11 7 17 1 20 -8 4z"/>
<path d="M8881 1756 c-9 -11 -9 -16 0 -22 8 -5 9 -3 4 6 -6 10 -4 12 8 7 11
-4 14 -2 10 9 -6 17 -8 17 -22 0z"/>
<path d="M7670 1670 c0 -5 5 -10 11 -10 5 0 7 5 4 10 -3 6 -8 10 -11 10 -2 0
-4 -4 -4 -10z"/>
<path d="M349 1647 c6 -8 9 -16 6 -19 -3 -2 2 -5 10 -5 13 0 13 3 -2 19 -19
21 -31 25 -14 5z"/>
<path d="M2524 1648 c-4 -7 -3 -10 1 -5 5 4 17 0 27 -10 10 -9 20 -14 22 -12
2 2 -6 12 -19 22 -18 13 -25 14 -31 5z"/>
<path d="M1000 1630 c-8 -26 -7 -41 2 -32 6 6 8 16 5 24 -3 7 -6 11 -7 8z"/>
<path d="M4990 1610 c6 -11 13 -20 16 -20 2 0 0 9 -6 20 -6 11 -13 20 -16 20
-2 0 0 -9 6 -20z"/>
<path d="M5010 1618 c0 -2 14 -16 30 -31 17 -16 27 -22 24 -13 -5 12 -54 52
-54 44z"/>
<path d="M2630 1590 c0 -5 5 -10 11 -10 5 0 7 5 4 10 -3 6 -8 10 -11 10 -2 0
-4 -4 -4 -10z"/>
<path d="M3210 1589 c0 -5 5 -7 10 -4 6 3 10 8 10 11 0 2 -4 4 -10 4 -5 0 -10
-5 -10 -11z"/>
<path d="M5691 1586 c-10 -11 -9 -14 1 -12 14 2 23 15 15 22 -2 2 -10 -2 -16
-10z"/>
<path d="M3132 1577 c-9 -10 -6 -13 13 -13 19 0 22 3 13 13 -6 7 -12 13 -13
13 -1 0 -7 -6 -13 -13z"/>
<path d="M2691 1564 c0 -11 3 -14 6 -6 3 7 2 16 -1 19 -3 4 -6 -2 -5 -13z"/>
<path d="M3087 1559 c7 -7 15 -10 18 -7 3 3 -2 9 -12 12 -14 6 -15 5 -6 -5z"/>
<path d="M800 1545 c-10 -13 -11 -18 -1 -28 10 -9 11 -8 5 7 -5 12 -4 17 3 13
5 -3 10 0 10 8 0 19 -2 19 -17 0z"/>
<path d="M5572 1547 c-8 -10 -6 -13 7 -13 11 0 17 6 14 13 -3 7 -6 13 -8 13
-1 0 -7 -6 -13 -13z"/>
<path d="M5607 1549 c7 -7 15 -10 18 -7 3 3 -2 9 -12 12 -14 6 -15 5 -6 -5z"/>
<path d="M7950 1550 c0 -5 5 -10 11 -10 5 0 7 5 4 10 -3 6 -8 10 -11 10 -2 0
-4 -4 -4 -10z"/>
<path d="M8070 1526 c0 -9 5 -16 10 -16 6 0 10 4 10 9 0 6 -4 13 -10 16 -5 3
-10 -1 -10 -9z"/>
<path d="M5406 1518 c3 -4 11 -5 19 -1 21 7 19 12 -4 10 -11 0 -18 -5 -15 -9z"/>
<path d="M5510 1520 c0 -5 5 -10 11 -10 5 0 7 5 4 10 -3 6 -8 10 -11 10 -2 0
-4 -4 -4 -10z"/>
<path d="M8220 1525 c0 -2 9 -9 20 -15 16 -9 18 -8 14 5 -5 13 -34 22 -34 10z"/>
</g>
</svg>
