<?xml version="1.0" standalone="no"?>
<!DOCTYPE svg PUBLIC "-//W3C//DTD SVG 20010904//EN"
 "http://www.w3.org/TR/2001/REC-SVG-20010904/DTD/svg10.dtd">
<svg version="1.0" xmlns="http://www.w3.org/2000/svg"
 width="260.000000pt" height="260.000000pt" viewBox="0 0 260.000000 260.000000"
 preserveAspectRatio="xMidYMid meet">
<metadata>
Created by potrace 1.11, written by Peter Selinger 2001-2013
</metadata>
<g transform="translate(0.000000,260.000000) scale(0.100000,-0.100000)"
fill="#000000" stroke="none">
<path d="M2270 2229 c-138 -38 -233 -149 -225 -261 13 -191 285 -237 447 -75
53 52 77 114 72 178 -11 122 -151 197 -294 158z"/>
<path d="M1579 2116 c-58 -20 -106 -54 -142 -99 -43 -54 -59 -94 -59 -150 0
-132 130 -201 275 -147 81 31 172 119 185 180 22 107 -4 172 -86 214 -37 19
-123 20 -173 2z"/>
<path d="M1027 2016 c-145 -53 -236 -204 -191 -316 50 -125 226 -121 352 7 38
38 75 114 77 158 2 35 -19 91 -42 117 -40 44 -127 59 -196 34z"/>
<path d="M549 1920 c-168 -48 -264 -262 -154 -346 110 -83 326 63 327 223 1
89 -83 148 -173 123z"/>
<path d="M2217 1620 c-89 -28 -148 -77 -193 -163 -61 -117 -8 -263 115 -314
91 -38 238 -15 317 50 120 99 141 265 47 362 -72 74 -179 98 -286 65z"/>
<path d="M1486 1545 c-134 -55 -217 -177 -201 -300 13 -110 88 -170 210 -169
83 0 145 27 207 88 64 64 82 109 83 198 0 70 -2 79 -31 115 -62 79 -173 107
-268 68z"/>
<path d="M935 1468 c-148 -32 -262 -228 -201 -346 86 -165 356 -81 409 129 37
144 -64 249 -208 217z"/>
<path d="M382 1404 c-54 -20 -137 -100 -162 -157 -17 -39 -25 -97 -22 -154 3
-32 59 -92 96 -101 38 -10 119 3 155 25 81 51 146 143 157 227 8 53 -22 126
-61 152 -35 23 -111 27 -163 8z"/>
<path d="M2220 960 c-57 -11 -124 -48 -168 -92 -123 -122 -130 -304 -16 -422
57 -59 107 -80 199 -82 100 -3 164 19 232 81 136 122 149 291 32 419 -73 80
-178 116 -279 96z"/>
<path d="M1420 914 c-117 -46 -185 -109 -221 -204 -50 -133 -11 -263 100 -328
97 -57 240 -25 331 74 64 69 85 124 85 220 0 72 -3 86 -30 130 -42 68 -103
104 -186 109 -35 3 -71 2 -79 -1z"/>
<path d="M809 865 c-124 -31 -225 -151 -234 -276 -9 -141 86 -250 205 -236 62
7 135 45 182 94 79 82 111 229 69 316 -41 84 -131 126 -222 102z"/>
<path d="M203 816 c-58 -27 -131 -95 -160 -147 -28 -53 -25 -171 7 -228 35
-62 69 -85 127 -84 136 0 267 150 267 303 -1 108 -47 163 -146 175 -32 4 -56
-1 -95 -19z"/>
</g>
</svg>
