<svg xmlns="http://www.w3.org/2000/svg" viewBox="0 0 11 11.5">
  <defs>
    <style>
      .cls-1 {
        fill: #fff;
      }
    </style>
  </defs>
  <path id="Path_13" data-name="Path 13" class="cls-1" d="M38.5,985.862a.84.84,0,0,0-.2-.515l-4.5-4.75a.748.748,0,0,0-1.064-.025.738.738,0,0,0-.022,1.056l3.3,3.485H27.75a.75.75,0,1,0,0,1.5h8.258l-3.3,3.484a.741.741,0,0,0,.023,1.058.75.75,0,0,0,1.064-.027l4.5-4.75a.73.73,0,0,0,.2-.516Z" transform="translate(-980.362 38.5) rotate(-90)"/>
</svg>
