<svg xmlns="http://www.w3.org/2000/svg" width="15.378" height="15.376" viewBox="0 0 15.378 15.376">
  <g id="Group_35" data-name="Group 35" transform="translate(-9.689 -9.691)">
    <g id="_x32_7-Phone" transform="translate(9.689 9.691)">
      <path id="Path_33" data-name="Path 33" d="M24.322,21.059,22.089,19.5a1.722,1.722,0,0,0-2.4.427l-.518.743a19.2,19.2,0,0,1-2.762-2.32,19.174,19.174,0,0,1-2.32-2.762l.742-.518a1.721,1.721,0,0,0,.427-2.4L13.7,10.436a1.725,1.725,0,0,0-1.408-.745,1.616,1.616,0,0,0-.561.1,3.092,3.092,0,0,0-.581.285l-.308.217a2.337,2.337,0,0,0-.217.194A3.1,3.1,0,0,0,9.83,11.9c-.643,2.409.949,6.052,3.962,9.064,2.53,2.53,5.568,4.1,7.931,4.1h0a4.4,4.4,0,0,0,1.134-.14,3.1,3.1,0,0,0,1.415-.794,2.344,2.344,0,0,0,.2-.231l.217-.31a3.1,3.1,0,0,0,.275-.565,1.7,1.7,0,0,0-.645-1.969Z" transform="translate(-9.689 -9.691)" fill="#2d2d2d"/>
    </g>
  </g>
</svg>
