<svg id="Group_29" data-name="Group 29" xmlns="http://www.w3.org/2000/svg" width="20.526" height="17.297" viewBox="0 0 20.526 17.297">
  <path id="Path_27" data-name="Path 27" d="M20.222,46.087a1.418,1.418,0,0,0-1.116-.535H15.153l-2.144-4.908a.6.6,0,1,0-1.1.481l1.933,4.427H6.686l1.933-4.427a.6.6,0,1,0-1.1-.481L5.374,45.552H1.42A1.418,1.418,0,0,0,.3,46.087a1.385,1.385,0,0,0-.269,1.178l2.111,9.221a1.409,1.409,0,0,0,1.385,1.094H16.995a1.409,1.409,0,0,0,1.385-1.094l2.111-9.221a1.385,1.385,0,0,0-.269-1.178ZM16.995,56.377H3.531a.215.215,0,0,1-.213-.159L1.208,47a.184.184,0,0,1,.038-.16.218.218,0,0,1,.175-.082H4.848l-.158.361a.6.6,0,1,0,1.1.481l.368-.842h8.205l.368.842a.6.6,0,0,0,1.1-.481l-.158-.361h3.428a.218.218,0,0,1,.175.082.184.184,0,0,1,.038.16l-2.111,9.221a.215.215,0,0,1-.213.159Z" transform="translate(0 -40.283)" fill="#529b97"/>
  <path id="Path_28" data-name="Path 28" d="M151.6,266.717a.6.6,0,0,0-.6.6v4.41a.6.6,0,1,0,1.2,0v-4.41A.6.6,0,0,0,151.6,266.717Z" transform="translate(-144.946 -257.639)" fill="#529b97"/>
  <path id="Path_29" data-name="Path 29" d="M241.6,266.717a.6.6,0,0,0-.6.6v4.41a.6.6,0,1,0,1.2,0v-4.41A.6.6,0,0,0,241.6,266.717Z" transform="translate(-231.338 -257.639)" fill="#529b97"/>
  <path id="Path_30" data-name="Path 30" d="M331.6,266.717a.6.6,0,0,0-.6.6v4.41a.6.6,0,1,0,1.2,0v-4.41A.6.6,0,0,0,331.6,266.717Z" transform="translate(-317.73 -257.639)" fill="#529b97"/>
</svg>
