<svg xmlns="http://www.w3.org/2000/svg" width="20.381" height="17.342" viewBox="0 0 20.381 17.342"><g transform="translate(-1.718 -4.495)"><g transform="translate(1.718 4.495)"><path d="M20.064,5.861a6.258,6.258,0,0,0-8.156.307,6.258,6.258,0,0,0-8.156-.307A5.944,5.944,0,0,0,1.72,10.328a6.491,6.491,0,0,0,2.1,4.93l5.5,5.508a3.652,3.652,0,0,0,5.166,0l5.48-5.487A6.512,6.512,0,0,0,22.1,10.328a5.944,5.944,0,0,0-2.034-4.467Zm-1.077,8.391-5.508,5.508a2.226,2.226,0,0,1-3.139,0l-5.53-5.53a5.15,5.15,0,0,1-1.67-3.874A4.57,4.57,0,0,1,4.681,6.946,4.4,4.4,0,0,1,7.549,5.94a5.143,5.143,0,0,1,3.824,1.712.749.749,0,0,0,1.07,0,4.92,4.92,0,0,1,6.693-.706,4.57,4.57,0,0,1,1.541,3.411,5.172,5.172,0,0,1-1.691,3.9Z" transform="translate(-1.718 -4.495)" fill="#2d2d2d"/><path d="M22.94,8.037a.714.714,0,0,0-.455,1.352,2.454,2.454,0,0,1,1.657,2.179.714.714,0,0,0,1.427,0A3.873,3.873,0,0,0,22.94,8.037Z" transform="translate(-7.529 -5.499)" fill="#2d2d2d"/></g></g></svg>