<svg xmlns="http://www.w3.org/2000/svg" width="23.861" height="20.106" viewBox="0 0 23.861 20.106"><path d="M23.506,47.03a1.649,1.649,0,0,0-1.3-.622h-4.6L15.122,40.7a.7.7,0,1,0-1.281.56l2.247,5.146H7.772l2.247-5.146a.7.7,0,1,0-1.281-.56L6.246,46.408h-4.6a1.649,1.649,0,0,0-1.3.622A1.61,1.61,0,0,0,.041,48.4L2.5,59.118a1.638,1.638,0,0,0,1.61,1.271h15.65a1.638,1.638,0,0,0,1.61-1.271L23.819,48.4a1.61,1.61,0,0,0-.313-1.369ZM19.755,58.991H4.105a.25.25,0,0,1-.247-.185L1.4,48.087a.213.213,0,0,1,.044-.186.254.254,0,0,1,.2-.1H5.636l-.183.419a.7.7,0,1,0,1.281.56l.427-.979H16.7l.427.979a.7.7,0,0,0,1.281-.56l-.183-.419h3.985a.254.254,0,0,1,.2.1.214.214,0,0,1,.044.186L20,58.806a.25.25,0,0,1-.247.185Z" transform="translate(0 -40.283)" fill="#fff"/><path d="M151.7,266.717a.7.7,0,0,0-.7.7v5.126a.7.7,0,1,0,1.4,0v-5.126A.7.7,0,0,0,151.7,266.717Z" transform="translate(-143.963 -256.165)" fill="#fff"/><path d="M241.7,266.717a.7.7,0,0,0-.7.7v5.126a.7.7,0,1,0,1.4,0v-5.126A.7.7,0,0,0,241.7,266.717Z" transform="translate(-229.769 -256.165)" fill="#fff"/><path d="M331.7,266.717a.7.7,0,0,0-.7.7v5.126a.7.7,0,1,0,1.4,0v-5.126A.7.7,0,0,0,331.7,266.717Z" transform="translate(-315.574 -256.165)" fill="#fff"/></svg>