<svg xmlns="http://www.w3.org/2000/svg" xmlns:xlink="http://www.w3.org/1999/xlink" width="28.144" height="28.144" viewBox="0 0 28.144 28.144">
  <defs>
    <clipPath id="clip-path">
      <path id="Path_37" data-name="Path 37" d="M0,0H28.144V28.144H0Z" fill="#529b97"/>
    </clipPath>
  </defs>
  <g id="Group_65" data-name="Group 65" clip-path="url(#clip-path)">
    <path id="Path_36" data-name="Path 36" d="M13.511,1.25a.879.879,0,0,1,.879.879V3.3a.293.293,0,0,0,.293.293.879.879,0,0,1,0,1.759.293.293,0,0,0-.293.293V22.064a.293.293,0,0,0,.293.293.879.879,0,0,1,0,1.759.293.293,0,0,0-.293.293v1.173a.879.879,0,1,1-1.759,0V24.7a.586.586,0,0,0-.586-.586H6.475A3.225,3.225,0,0,1,3.25,20.892V6.82A3.225,3.225,0,0,1,6.475,3.6h5.57a.586.586,0,0,0,.586-.586V2.129a.879.879,0,0,1,.879-.879ZM12.631,5.94a.586.586,0,0,0-.586-.586H6.475A1.466,1.466,0,0,0,5.009,6.82V20.892a1.466,1.466,0,0,0,1.466,1.466h5.57a.586.586,0,0,0,.586-.586Zm5.863-1.466a.879.879,0,0,1,.879-.879h1.173A3.225,3.225,0,0,1,23.771,6.82V7.993a.879.879,0,0,1-1.759,0V6.82a1.466,1.466,0,0,0-1.466-1.466H19.374A.88.88,0,0,1,18.495,4.475Zm4.4,7.329a.879.879,0,0,1,.879.879v2.345a.879.879,0,0,1-1.759,0V12.683A.879.879,0,0,1,22.892,11.8Zm0,7.036a.879.879,0,0,1,.879.879v1.173a3.225,3.225,0,0,1-3.225,3.225H19.374a.879.879,0,1,1,0-1.759h1.173a1.466,1.466,0,0,0,1.466-1.466V19.719A.879.879,0,0,1,22.892,18.84Z" transform="translate(0.561 0.216)" fill="#529b97" fill-rule="evenodd"/>
  </g>
</svg>
