<svg xmlns="http://www.w3.org/2000/svg" width="18.894" height="17.679" viewBox="0 0 18.894 17.679">
  <g id="Group_2" data-name="Group 2" transform="translate(-0.647 -1.377)">
    <g id="Layer_2" data-name="Layer 2" transform="translate(0.647 1.377)">
      <path id="Path_2" data-name="Path 2" d="M19.248,9.85l-.486-.841a2.265,2.265,0,0,0-2.116-1.082A1.47,1.47,0,0,1,15.314,7.2a1.454,1.454,0,0,1,.036-1.514,2.257,2.257,0,0,0,.126-2.375l-.486-.84A2.193,2.193,0,0,0,12,1.67L1.739,7.595a2.19,2.19,0,0,0-.8,2.989l.486.841a2.253,2.253,0,0,0,2.116,1.082,1.476,1.476,0,0,1,1.331.727,1.454,1.454,0,0,1-.036,1.514,2.257,2.257,0,0,0-.126,2.375l.486.842a2.192,2.192,0,0,0,1.9,1.091,2.169,2.169,0,0,0,1.091-.293l10.262-5.925a2.19,2.19,0,0,0,.8-2.989Zm-11.118.3a.617.617,0,0,1-.311.083.624.624,0,0,1-.313-1.165L10.388,7.4a.624.624,0,0,1,.624,1.082Zm4.547,1.218L9.794,13.03a.617.617,0,0,1-.311.083.624.624,0,0,1-.313-1.165l2.882-1.664a.624.624,0,0,1,.624,1.082Z" transform="translate(-0.647 -1.377)" fill="#fff"/>
    </g>
  </g>
</svg>
