<svg id="Group_299" data-name="Group 299" xmlns="http://www.w3.org/2000/svg" width="23.724" height="23.113" viewBox="0 0 23.724 23.113">
  <g id="Grid" transform="translate(0 0)">
    <path id="Path_100" data-name="Path 100" d="M13.335,5.777H8.149A2.857,2.857,0,0,0,5.295,8.631v5.186A2.857,2.857,0,0,0,8.149,16.67h5.186a2.857,2.857,0,0,0,2.854-2.854V8.631A2.856,2.856,0,0,0,13.335,5.777Zm.951,8.04a.952.952,0,0,1-.951.951H8.149a.952.952,0,0,1-.951-.951V8.631a.952.952,0,0,1,.951-.951h5.186a.952.952,0,0,1,.951.951v5.186Zm11.879-8.04H20.979a2.857,2.857,0,0,0-2.854,2.854v5.186a2.857,2.857,0,0,0,2.854,2.854h5.186a2.857,2.857,0,0,0,2.854-2.854V8.631a2.857,2.857,0,0,0-2.854-2.854Zm.951,8.04a.952.952,0,0,1-.951.951H20.979a.952.952,0,0,1-.951-.951V8.631a.952.952,0,0,1,.951-.951h5.186a.952.952,0,0,1,.951.951ZM13.335,18H8.149A2.857,2.857,0,0,0,5.3,20.85v5.186A2.857,2.857,0,0,0,8.149,28.89h5.186a2.857,2.857,0,0,0,2.854-2.854V20.85A2.856,2.856,0,0,0,13.335,18Zm.951,8.039a.952.952,0,0,1-.951.951H8.149a.952.952,0,0,1-.951-.951V20.85a.952.952,0,0,1,.951-.951h5.186a.952.952,0,0,1,.951.951v5.186ZM26.165,18H20.979a2.857,2.857,0,0,0-2.854,2.854v5.186a2.857,2.857,0,0,0,2.854,2.854h3.875a.951.951,0,1,0,0-1.9H20.979a.952.952,0,0,1-.951-.951V20.85a.952.952,0,0,1,.951-.951h5.186a.952.952,0,0,1,.951.951V25.2a.951.951,0,0,0,1.9,0V20.85A2.856,2.856,0,0,0,26.165,18Z" transform="translate(-5.295 -5.777)" fill="#529b97"/>
  </g>
</svg>
