<svg xmlns="http://www.w3.org/2000/svg" width="18.077" height="18.074" viewBox="0 0 18.077 18.074">
  <g id="Group_255" data-name="Group 255" transform="translate(-1412.75 -106.75)">
    <g id="Group_256" data-name="Group 256" transform="translate(1412.75 106.75)">
      <path id="Path_96" data-name="Path 96" d="M13.84,18.112h-9.6A4.242,4.242,0,0,1,0,13.875V7.934A4.261,4.261,0,0,1,1.667,4.565L6.469.9a4.247,4.247,0,0,1,5.139,0l1.526,1.163v-.9a.706.706,0,0,1,1.412,0V3.492a.706.706,0,0,1-1.134.562L10.752,2.026a2.831,2.831,0,0,0-3.426,0l-4.8,3.662A2.841,2.841,0,0,0,1.412,7.934v5.941A2.828,2.828,0,0,0,4.237,16.7h9.6a2.828,2.828,0,0,0,2.825-2.825V7.934a2.843,2.843,0,0,0-1.1-2.254.706.706,0,1,1,.856-1.123,4.263,4.263,0,0,1,1.655,3.376v5.941A4.242,4.242,0,0,1,13.84,18.112ZM7.626,8.19a.883.883,0,1,0,.883.883A.883.883,0,0,0,7.626,8.19Zm3.707.883a.883.883,0,0,1-1.765,0A.883.883,0,0,1,11.333,9.073ZM8.509,11.9a.883.883,0,0,1-1.765,0A.883.883,0,0,1,8.509,11.9Zm2.825,0a.883.883,0,0,1-1.765,0A.883.883,0,0,1,11.333,11.9Z" transform="translate(0 -0.037)" fill="#529b97"/>
    </g>
  </g>
</svg>
