<svg id="Group_15" data-name="Group 15" xmlns="http://www.w3.org/2000/svg" width="13.748" height="13.748" viewBox="0 0 13.748 13.748">
  <g id="_x31_0.Linkedin" transform="translate(0 0)">
    <path id="Path_19" data-name="Path 19" d="M47.184,44.7V39.665c0-2.475-.533-4.365-3.42-4.365a2.984,2.984,0,0,0-2.7,1.478h-.034V35.523H38.3V44.7h2.853V40.146c0-1.2.223-2.354,1.7-2.354,1.461,0,1.478,1.358,1.478,2.423v4.468h2.853Z" transform="translate(-33.437 -30.952)" fill="#529b97"/>
    <path id="Path_20" data-name="Path 20" d="M11.3,36.6h2.853v9.177H11.3Z" transform="translate(-11.077 -32.029)" fill="#529b97"/>
    <path id="Path_21" data-name="Path 21" d="M11.65,10a1.658,1.658,0,1,0,1.65,1.65A1.65,1.65,0,0,0,11.65,10Z" transform="translate(-10 -10)" fill="#529b97"/>
  </g>
</svg>
