<svg xmlns="http://www.w3.org/2000/svg" version="1.1" xmlns:xlink="http://www.w3.org/1999/xlink" xmlns:svgjs="http://svgjs.com/svgjs" width="512" height="512" x="0" y="0" viewBox="0 0 449.306 449.306" style="enable-background:new 0 0 512 512" xml:space="preserve" class=""><g>
<g>
	<g>
		<g>
			<path d="M447.739,251.298l-59.037-126.433c-1.731-3.54-5.484-5.625-9.404-5.224h-50.155c-5.771,0-10.449,4.678-10.449,10.449
				c0,5.771,4.678,10.449,10.449,10.449h43.363l48.588,104.49h-59.559c-27.004-0.133-51.563,15.625-62.694,40.229
				c-8.062,16.923-25.141,27.698-43.886,27.69h-60.604c-18.745,0.008-35.823-10.767-43.886-27.69
				c-11.131-24.604-35.69-40.362-62.694-40.229H29.257l57.469-104.49h33.437c5.771,0,10.449-4.678,10.449-10.449
				c0-5.771-4.678-10.449-10.449-10.449H80.457c-3.776-0.358-7.425,1.467-9.404,4.702L2.09,250.776
				c-1.209,1.072-1.958,2.569-2.09,4.18v130.09c0.832,29.282,24.524,52.744,53.812,53.29h341.682
				c29.289-0.546,52.98-24.008,53.812-53.29v-130.09C449.107,253.622,448.567,252.362,447.739,251.298z M428.408,385.045
				c-0.812,17.743-15.16,31.864-32.914,32.392H53.812c-17.754-0.528-32.102-14.648-32.914-32.392V265.927h66.873
				c18.745-0.008,35.823,10.767,43.886,27.69c11.131,24.604,35.69,40.362,62.694,40.229h60.604
				c27.004,0.133,51.563-15.625,62.694-40.229c8.062-16.923,25.141-27.698,43.886-27.69h66.873V385.045z" fill="#529b97" data-original="#000000" class=""></path>
			<path d="M217.339,252.865c3.706,4.04,9.986,4.31,14.025,0.603c0.21-0.192,0.411-0.394,0.603-0.603l71.053-71.576
				c3.462-4.617,2.527-11.166-2.09-14.629c-3.715-2.786-8.824-2.786-12.539,0l-53.29,53.29V21.42
				c0-5.771-4.678-10.449-10.449-10.449s-10.449,4.678-10.449,10.449v198.531l-53.29-53.29c-4.617-3.462-11.166-2.527-14.629,2.09
				c-2.786,3.715-2.786,8.824,0,12.539L217.339,252.865z" fill="#529b97" data-original="#000000" class=""></path>
		</g>
	</g>
</g>
<g>
</g>
<g>
</g>
<g>
</g>
<g>
</g>
<g>
</g>
<g>
</g>
<g>
</g>
<g>
</g>
<g>
</g>
<g>
</g>
<g>
</g>
<g>
</g>
<g>
</g>
<g>
</g>
<g>
</g>
</g></svg>