<svg id="Group_13" data-name="Group 13" xmlns="http://www.w3.org/2000/svg" width="17.085" height="17.086" viewBox="0 0 17.085 17.086">
  <path id="Path_17" data-name="Path 17" d="M8.711,17.087h-.17c-1.339,0-2.577-.031-3.78-.1a5.053,5.053,0,0,1-2.913-1.1A4.675,4.675,0,0,1,.277,13.344,11.239,11.239,0,0,1,.02,10.66C.011,10.037,0,9.3,0,8.546S.011,7.052.02,6.428A11.24,11.24,0,0,1,.277,3.744,4.675,4.675,0,0,1,1.848,1.208,5.053,5.053,0,0,1,4.761.106C5.965.032,7.2,0,8.545,0s2.577.031,3.78.1a5.053,5.053,0,0,1,2.913,1.1,4.675,4.675,0,0,1,1.571,2.536,11.24,11.24,0,0,1,.258,2.684c.009.624.018,1.363.019,2.115v0c0,.752-.011,1.491-.019,2.115a11.234,11.234,0,0,1-.258,2.684,4.675,4.675,0,0,1-1.571,2.536,5.053,5.053,0,0,1-2.913,1.1c-1.152.07-2.336.1-3.613.1Zm-.17-1.335c1.318,0,2.527-.03,3.7-.1a3.677,3.677,0,0,0,2.15-.8,3.37,3.37,0,0,0,1.121-1.832,10.225,10.225,0,0,0,.217-2.372c.008-.62.017-1.353.019-2.1s-.011-1.478-.019-2.1a10.227,10.227,0,0,0-.217-2.372,3.37,3.37,0,0,0-1.121-1.832,3.678,3.678,0,0,0-2.15-.8c-1.175-.072-2.385-.1-3.7-.1s-2.527.03-3.7.1a3.678,3.678,0,0,0-2.15.8A3.37,3.37,0,0,0,1.571,4.074a10.226,10.226,0,0,0-.217,2.372c-.008.62-.017,1.354-.019,2.1s.011,1.476.019,2.1a10.225,10.225,0,0,0,.217,2.372,3.37,3.37,0,0,0,1.121,1.832,3.678,3.678,0,0,0,2.15.8C6.017,15.722,7.227,15.755,8.541,15.752Zm-.032-3.037a4.171,4.171,0,1,1,4.171-4.171A4.176,4.176,0,0,1,8.509,12.716Zm0-7.008a2.837,2.837,0,1,0,2.837,2.837A2.84,2.84,0,0,0,8.509,5.708Zm4.639-2.67a1,1,0,1,0,1,1A1,1,0,0,0,13.148,3.038Zm0,0" transform="translate(0 -0.001)" fill="#529b97"/>
</svg>
