<svg id="Group_300" data-name="Group 300" xmlns="http://www.w3.org/2000/svg" width="27.719" height="22.089" viewBox="0 0 27.719 22.089">
  <path id="Path_101" data-name="Path 101" d="M7.647,61.528H1.881A1.883,1.883,0,0,1,0,59.647V53.881A1.883,1.883,0,0,1,1.881,52H7.647a1.883,1.883,0,0,1,1.881,1.881v5.766A1.883,1.883,0,0,1,7.647,61.528Zm-5.766-7.8a.149.149,0,0,0-.149.149v5.766a.149.149,0,0,0,.149.149H7.647a.149.149,0,0,0,.149-.149V53.881a.149.149,0,0,0-.149-.149Z" transform="translate(0 -52)" fill="#efa69f"/>
  <path id="Path_102" data-name="Path 102" d="M7.647,293.528H1.881A1.883,1.883,0,0,1,0,291.647v-5.766A1.883,1.883,0,0,1,1.881,284H7.647a1.883,1.883,0,0,1,1.881,1.881v5.766A1.883,1.883,0,0,1,7.647,293.528Zm-5.766-7.8a.149.149,0,0,0-.149.149v5.766a.149.149,0,0,0,.149.149H7.647a.149.149,0,0,0,.149-.149v-5.766a.149.149,0,0,0-.149-.149Z" transform="translate(0 -271.44)" fill="#efa69f"/>
  <path id="Path_103" data-name="Path 103" d="M238.726,101.732H224.866a.866.866,0,0,1,0-1.732h13.859a.866.866,0,0,1,0,1.732Z" transform="translate(-211.873 -97.401)" fill="#efa69f"/>
  <path id="Path_104" data-name="Path 104" d="M233.962,161.732h-9.1a.866.866,0,0,1,0-1.732h9.1a.866.866,0,0,1,0,1.732Z" transform="translate(-211.873 -154.153)" fill="#efa69f"/>
  <path id="Path_105" data-name="Path 105" d="M238.726,329.732H224.866a.866.866,0,0,1,0-1.732h13.859a.866.866,0,0,1,0,1.732Z" transform="translate(-211.873 -313.058)" fill="#efa69f"/>
  <path id="Path_106" data-name="Path 106" d="M233.962,393.732h-9.1a.866.866,0,0,1,0-1.732h9.1a.866.866,0,0,1,0,1.732Z" transform="translate(-211.873 -373.593)" fill="#efa69f"/>
</svg>
