<svg xmlns="http://www.w3.org/2000/svg" width="19.333" height="19.333" viewBox="0 0 19.333 19.333"><path d="M9.666,0A9.668,9.668,0,0,0,1.282,14.478L.036,18.346a.755.755,0,0,0,.95.95l3.868-1.245A9.667,9.667,0,1,0,9.666,0Zm0,17.822a8.132,8.132,0,0,1-4.317-1.236.756.756,0,0,0-.632-.078l-2.792.9.9-2.792a.756.756,0,0,0-.079-.632,8.156,8.156,0,1,1,6.92,3.839Zm.944-8.156a.944.944,0,1,1-.944-.944A.944.944,0,0,1,10.61,9.666Zm3.776,0a.944.944,0,1,1-.944-.944A.944.944,0,0,1,14.386,9.666Zm-7.552,0a.944.944,0,1,1-.944-.944A.944.944,0,0,1,6.834,9.666Zm0,0"/></svg>