<svg xmlns="http://www.w3.org/2000/svg" version="1.1" xmlns:xlink="http://www.w3.org/1999/xlink" xmlns:svgjs="http://svgjs.com/svgjs" width="512" height="512" x="0" y="0" viewBox="0 0 512.001 512.001" style="enable-background:new 0 0 512 512" xml:space="preserve" class=""><g>
<g>
	<g>
		<path d="M507.232,1.478c-2.963-1.819-6.658-1.968-9.758-0.395l-492,249.788c-3.588,1.822-5.735,5.617-5.448,9.632
			c0.288,4.014,2.954,7.464,6.765,8.756l183.217,62.094c-0.014,0.215-0.033,0.428-0.033,0.647v116c0,4.033,2.423,7.672,6.145,9.227
			c1.245,0.521,2.554,0.773,3.853,0.773c2.582,0,5.121-1,7.03-2.886l88.941-87.858l202.847,68.748
			c1.047,0.355,2.131,0.529,3.209,0.529c2.064,0,4.106-0.639,5.827-1.873c2.62-1.878,4.173-4.903,4.173-8.127V10
			C512.001,6.524,510.196,3.296,507.232,1.478z M194.945,311.909L35.72,257.945L467.109,38.93L194.945,311.909z M209.975,424.066
			v-85.945l64.779,21.954L209.975,424.066z M492.001,412.586l-34-11.524V294.987c0-5.522-4.477-10-10-10s-10,4.478-10,10v99.296
			l-221.947-75.221L492.001,42.29V412.586z" fill="#529b97" data-original="#000000" class=""></path>
	</g>
</g>
<g>
	<g>
		<path d="M455.071,248.93c-1.86-1.86-4.44-2.93-7.07-2.93s-5.21,1.069-7.07,2.93c-1.86,1.86-2.93,4.44-2.93,7.07
			c0,2.63,1.07,5.21,2.93,7.069c1.86,1.86,4.44,2.931,7.07,2.931s5.21-1.07,7.07-2.931c1.86-1.859,2.93-4.439,2.93-7.069
			C458.001,253.37,456.931,250.79,455.071,248.93z" fill="#529b97" data-original="#000000" class=""></path>
	</g>
</g>
<g>
	<g>
		<path d="M139.405,372.596c-3.905-3.904-10.237-3.904-14.142,0l-74.167,74.167c-3.905,3.905-3.905,10.237,0,14.143
			c1.953,1.952,4.512,2.929,7.071,2.929c2.559,0,5.119-0.977,7.071-2.929l74.167-74.167
			C143.31,382.834,143.31,376.502,139.405,372.596z" fill="#529b97" data-original="#000000" class=""></path>
	</g>
</g>
<g>
	<g>
		<path d="M40.571,471.43c-1.86-1.86-4.44-2.93-7.07-2.93s-5.21,1.069-7.07,2.93c-1.86,1.86-2.93,4.44-2.93,7.07
			s1.07,5.21,2.93,7.069c1.86,1.86,4.44,2.931,7.07,2.931s5.21-1.07,7.07-2.931c1.86-1.859,2.93-4.439,2.93-7.069
			S42.431,473.29,40.571,471.43z" fill="#529b97" data-original="#000000" class=""></path>
	</g>
</g>
<g>
	<g>
		<path d="M345.568,422.435c-3.907-3.904-10.238-3.905-14.143,0l-72.494,72.494c-3.905,3.905-3.906,10.237,0,14.143
			c1.953,1.952,4.512,2.929,7.071,2.929c2.559,0,5.119-0.977,7.071-2.929l72.495-72.494
			C349.473,432.673,349.473,426.341,345.568,422.435z" fill="#529b97" data-original="#000000" class=""></path>
	</g>
</g>
<g>
</g>
<g>
</g>
<g>
</g>
<g>
</g>
<g>
</g>
<g>
</g>
<g>
</g>
<g>
</g>
<g>
</g>
<g>
</g>
<g>
</g>
<g>
</g>
<g>
</g>
<g>
</g>
<g>
</g>
</g></svg>