<svg xmlns="http://www.w3.org/2000/svg" version="1.1" xmlns:xlink="http://www.w3.org/1999/xlink" xmlns:svgjs="http://svgjs.com/svgjs" width="512" height="512" x="0" y="0" viewBox="0 0 1550 1550" style="enable-background:new 0 0 512 512" xml:space="preserve" class="hovered-paths"><g><g><g><path d="m965.1 1536.7h-222.4c-11.6 0-21-9.4-21-21 0-380.8-309.8-690.7-690.7-690.7-11.6 0-21-9.4-21-21v-222.4c0-11.6 9.4-21 21-21 129 0 254.1 25.2 371.9 75 113.8 48.1 215.9 116.9 303.6 204.6 87.6 87.6 156.5 189.8 204.6 303.6 49.8 117.8 75 243 75 371.9 0 11.6-9.4 21-21 21zm-201.7-42h180.5c-2.6-115.9-26.6-228.3-71.5-334.6-46-108.8-111.8-206.4-195.6-290.2s-181.4-149.6-290.2-195.6c-106.2-44.9-218.7-68.9-334.6-71.5v180.5c387.3 11 700.4 324 711.4 711.4z" fill="#ffffff" data-original="#000000" class="hovered-path"></path></g><g><path d="m1519 1536.7h-222.4c-11.6 0-21-9.4-21-21 0-682.6-555.3-1238-1238-1238-11.6 0-21-9.4-21-21v-222.4c0-11.6 9.4-21 21-21 202.9 0 399.7 39.7 585 118 179 75.6 339.6 183.9 477.5 321.8s246.2 298.6 321.8 477.5c78.3 185.3 118 382.1 118 585 .1 11.7-9.3 21.1-20.9 21.1zm-201.6-42h180.4c-2.6-189.8-41.1-374-114.6-547.7-73.5-173.9-178.7-330.1-312.8-464.2-134-134-290.2-239.3-464.2-312.8-173.7-73.4-357.9-111.9-547.7-114.6v180.4c689.3 11.2 1247.8 569.8 1258.9 1258.9z" fill="#ffffff" data-original="#000000" class="hovered-path"></path></g><g><path d="m170.4 1536.7c-88.4 0-160.4-71.9-160.4-160.4s71.9-160.3 160.4-160.3 160.4 71.9 160.4 160.4-72 160.3-160.4 160.3zm0-278.7c-65.3 0-118.4 53.1-118.4 118.4s53.1 118.4 118.4 118.4 118.4-53.1 118.4-118.4-53.2-118.4-118.4-118.4z" fill="#ffffff" data-original="#000000" class="hovered-path"></path></g></g></g></svg>