<svg id="Group_14" data-name="Group 14" xmlns="http://www.w3.org/2000/svg" width="17.282" height="14.188" viewBox="0 0 17.282 14.188">
  <path id="Path_18" data-name="Path 18" d="M.378,14.872A10.135,10.135,0,0,0,5.82,16.44a9.952,9.952,0,0,0,10.1-10.118,4.133,4.133,0,0,0,1.492-2.8.546.546,0,0,0-.822-.471,2.257,2.257,0,0,1-1.835.308,3.9,3.9,0,0,0-4.616-.621A3.75,3.75,0,0,0,8.1,6.254a9.043,9.043,0,0,1-5.866-3.2.546.546,0,0,0-.892.073,3.8,3.8,0,0,0-.085,3.756.568.568,0,0,0-.474.565,3.849,3.849,0,0,0,1.341,2.907.545.545,0,0,0-.14.565A3.918,3.918,0,0,0,4.2,13.292a6.354,6.354,0,0,1-3.461.578.546.546,0,0,0-.359,1Zm5.591-1.393a.546.546,0,0,0-.321-.978,2.846,2.846,0,0,1-2.235-1.163,3.849,3.849,0,0,0,.745-.119.546.546,0,0,0-.035-1.062A2.8,2.8,0,0,1,2,8.251a3.766,3.766,0,0,0,.832.111.546.546,0,0,0,.311-1A2.711,2.711,0,0,1,1.982,4.4,10.146,10.146,0,0,0,8.7,7.4a.545.545,0,0,0,.558-.667A2.663,2.663,0,0,1,10.651,3.7a2.79,2.79,0,0,1,3.411.518,2.751,2.751,0,0,0,1.981.226,3.517,3.517,0,0,1-1,1.171.546.546,0,0,0-.232.474,8.873,8.873,0,0,1-2.443,6.52A8.937,8.937,0,0,1,5.82,15.348a9.164,9.164,0,0,1-2.94-.482,7.369,7.369,0,0,0,3.089-1.387Z" transform="translate(-0.124 -2.252)" fill="#529b97"/>
</svg>
