<svg xmlns="http://www.w3.org/2000/svg" width="14.795" height="17.484" viewBox="0 0 14.795 17.484">
  <g id="Group_28" data-name="Group 28" transform="translate(78 -12)">
    <g id="user_account_people_man" data-name="user, account, people, man" transform="translate(-78 12)">
      <path id="Path_25" data-name="Path 25" d="M17.6,16.087a.672.672,0,1,0-.946.956,6.01,6.01,0,0,1,1.795,4.3c0,.823-2.358,2.017-6.052,2.017s-6.052-1.2-6.052-2.019a6.011,6.011,0,0,1,1.772-4.279.672.672,0,1,0-.951-.951A7.348,7.348,0,0,0,5,21.345c0,2.184,3.811,3.362,7.4,3.362s7.4-1.178,7.4-3.362A7.343,7.343,0,0,0,17.6,16.087Z" transform="translate(-5 -7.222)" fill="#529b97"/>
      <path id="Path_26" data-name="Path 26" d="M13.707,12.415A4.707,4.707,0,1,0,9,7.707,4.707,4.707,0,0,0,13.707,12.415Zm0-8.07a3.362,3.362,0,1,1-3.362,3.362,3.362,3.362,0,0,1,3.362-3.362Z" transform="translate(-6.31 -3)" fill="#529b97"/>
    </g>
  </g>
</svg>
